<svg xmlns="http://www.w3.org/2000/svg" viewBox="0 0 79 79"><path fill="#FFF" d="M54.4 38.4c-1-4.7-4.1-8.6-8.3-10.6-.6 1.4-1.8 2.5-3.3 2.9-.2 1.7-1.6 3-3.3 3-3.3 0-6.2-2.5-7-5.8-4.1 2.1-7.1 5.9-8 10.5-1.8.5-3 2-3 3.9 0 2.1 1.5 3.8 3.5 4 2 6 7.7 10.4 14.5 10.4 6.7 0 12.4-4.4 14.5-10.4 2-.3 3.5-2 3.5-4 0-1.8-1.3-3.4-3.1-3.9z"/><ellipse fill="#C5C6C8" cx="35.8" cy="41.3" rx="2.2" ry="3.1"/><ellipse fill="#C5C6C8" cx="43.2" cy="41.3" rx="2.2" ry="3.1"/><path fill="#C5C6C8" d="M39.5 51c-2 0-3.9-.6-5.5-1.7-.5-.3-.6-1-.3-1.5s1-.6 1.5-.3c1.2.8 2.8 1.3 4.3 1.3s3-.5 4.3-1.3c.5-.3 1.2-.2 1.5.3s.2 1.2-.3 1.5c-1.6 1.1-3.5 1.7-5.5 1.7zM44.4 26v-.1c0-2.8-2-4.7-4.8-4.7s-5 2.3-5 5c0 .3 0 .6.1.9v.1c0 .2.1.4.2.6 0 .1 0 .2.1.3v.1c.1.2.1.3.2.5.1.1.1.2.2.3.1.2.2.3.3.5l.3.3c.1.1.2.3.4.4l.3.3c.1.1.2.2.4.3.1.1.3.2.4.3.1.1.2.1.4.2s.4.1.6.2c.1 0 .2.1.3.1.3.1.6.1.9.1.6 0 1.1-.5 1.1-1.1s-.5-1.1-1.1-1.1c-.2 0-.4 0-.5-.1-.1 0-.1 0-.2-.1-.1 0-.2-.1-.3-.1-.1 0-.2-.1-.2-.1-.1 0-.1-.1-.2-.1-.1-.1-.2-.1-.3-.2l-.1-.1-.3-.3s0-.1-.1-.1c-.1-.1-.2-.3-.3-.4-.1-.2-.2-.4-.2-.6 0-.1-.1-.2-.1-.3 0-.2-.1-.3-.1-.5v-.4c0-.1 0-.2.1-.3.3-1.2 1.4-2.1 2.7-2.1 1.6 0 2.6 1 2.6 2.5 0 .3-.2.5-.4.7-.1 0-.2.1-.3.1-.1 0-.2 0-.3-.1-.1 0-.1-.1-.2-.1-.2-.1-.3-.3-.3-.6 0-.1 0-.2-.1-.3 0-.1-.1-.2-.1-.2-.2-.3-.5-.5-.9-.5-.5 0-.9.3-1 .8 0 .1-.1.2-.1.3 0 .2 0 .4.1.5v.2c0 .1.1.2.1.3v.1c0 .1 0 .1.1.2 0 .1.1.1.1.2 0 0 0 .1.1.1v.1c0 .1.1.1.1.2s.1.1.1.2l.2.2.2.2.2.2c.1.1.2.1.3.1.1 0 .1.1.2.1s.2.1.3.1c.1 0 .1 0 .2.1.2 0 .4.1.6.1.2 0 .4 0 .5-.1h.2c.1 0 .2-.1.4-.1.1 0 .1 0 .2-.1s.3-.1.4-.2c.1 0 .1-.1.2-.1.1-.1.2-.1.2-.2l.2-.2c.1-.1.1-.1.1-.2.1-.1.1-.2.2-.3.1-.1.1-.2.2-.3.1-1 .2-1.4.2-1.7z"/><g><path fill="#C5C6C8" d="M55.4 37.6c-1.2-4.8-4.5-8.7-8.9-10.8-.1.7-.4 1.4-.9 2 3.9 1.9 6.8 5.4 7.7 9.8l.1.7.7.2c1.3.3 2.2 1.5 2.2 2.9 0 1.5-1.1 2.7-2.6 2.9l-.7.1-.1.6c-1.9 5.8-7.3 9.7-13.4 9.7S28 51.8 26.1 46l-.2-.6-.7-.1c-1.5-.2-2.6-1.5-2.6-2.9 0-1.3.9-2.5 2.2-2.9l.7-.2.1-.7c.9-4.2 3.6-7.7 7.3-9.6-.3-.7-.5-1.4-.5-2.2-4.3 2.1-7.6 6-8.8 10.8-1.9.8-3.2 2.7-3.2 4.8 0 2.3 1.6 4.4 3.8 5C26.6 53.7 32.7 58 39.5 58s12.9-4.2 15.3-10.6c2.2-.6 3.8-2.6 3.8-5 0-2.1-1.3-4-3.2-4.8z"/></g></svg>