<svg xmlns="http://www.w3.org/2000/svg" xmlns:xlink="http://www.w3.org/1999/xlink" viewBox="0 0 79 79"><path fill="#3C5152" d="M26.8 47.3c.1-.2.2-.5.3-.8.1-.3.1-.5.2-.8v-.2c0-.3.1-.5.1-.8 0-3.2-2.6-5.8-5.8-5.8s-5.8 2.6-5.8 5.8c0 .3 0 .7.1 1v.1c.1.3.1.6.3.9.8 2.2 3 3.8 5.5 3.8 2.1.1 4.1-1.2 5.1-3.2zm-7.6.5c-.2-.2-.4-.3-.6-.5l-.2-.2c-.1-.1-.2-.2-.2-.4-.1-.1-.1-.2-.2-.4 0-.1-.1-.1-.1-.2-.1-.2-.1-.4-.2-.6v-.1c0-.2-.1-.5-.1-.7 0-2.1 1.7-3.8 3.8-3.8s3.8 1.7 3.8 3.8c0 .2 0 .5-.1.7v.2c0 .2-.1.3-.1.5 0 .1-.1.2-.1.3-.1.1-.1.3-.2.4-.1.1-.1.2-.2.3l-.1.1c-.3.4-.7.7-1.1.9-.6.3-1.2.5-1.9.5s-1.5-.3-2.2-.8z"/><circle fill="#8C8B8B" cx="21.5" cy="44.7" r="1.8"/><path fill="#EA3226" d="M50.5 33.6c-3.4 0-8.8-4.9-8.8-5-.1-.1-.4-.2-.5-.1-.2.1-.3.3-.3.5v.6c0 1.9 0 3.9.5 5h-.6c-6 0-9.9-.4-9.9-5.2 0-.3-.2-.5-.5-.5-1.1 0-1.7.7-2.4 1.4-.9.9-1.9 1.9-4.1 1.9-.6 0-1.6 0-2.7.1-1.5 0-3.3.1-4.9.1-.3 0-.5.2-.5.5 0 3.7-4.4 4.2-4.5 4.2-.3 0-.5.2-.5.5 0 3.6 1.3 6 2.9 7.6v-.4c0-4.3 3.5-7.8 7.8-7.8s7.8 3.5 7.8 7.8c0 1.2-.3 2.3-.8 3.3h20.1c-.5-1-.8-2.1-.8-3.3 0-4.3 3.5-7.8 7.8-7.8s7.8 3.5 7.8 7.8c0 1.1-.3 2.2-.7 3.2 2.3-.3 5.1-1.4 5.1-4.9.2-9.1-14.4-9.5-17.3-9.5z"/><defs><path id="a" d="M50.5 33.6c-3.4 0-8.8-4.9-8.8-5-.1-.1-.4-.2-.5-.1-.2.1-.3.3-.3.5v.6c0 1.9 0 3.9.5 5h-.6c-6 0-9.9-.4-9.9-5.2 0-.3-.2-.5-.5-.5-1.1 0-1.7.7-2.4 1.4-.9.9-1.9 1.9-4.1 1.9-.6 0-1.6 0-2.7.1-1.5 0-3.3.1-4.9.1-.3 0-.5.2-.5.5 0 3.7-4.4 4.2-4.5 4.2-.3 0-.5.2-.5.5 0 3.6 1.3 6 2.9 7.6v-.4c0-4.3 3.5-7.8 7.8-7.8s7.8 3.5 7.8 7.8c0 1.2-.3 2.3-.8 3.3h20.1c-.5-1-.8-2.1-.8-3.3 0-4.3 3.5-7.8 7.8-7.8s7.8 3.5 7.8 7.8c0 1.1-.3 2.2-.7 3.2 2.3-.3 5.1-1.4 5.1-4.9.2-9.1-14.4-9.5-17.3-9.5z"/></defs><clipPath id="b"><use xlink:href="#a" overflow="visible"/></clipPath><g clip-path="url(#b)"><rect x="8.6" y="44.8" fill="#BE2126" width="59.4" height="7.6"/></g><g><path fill="#3C5152" d="M61 47.3c.1-.2.2-.5.3-.8.1-.3.1-.5.2-.8v-.2c0-.3.1-.5.1-.8 0-3.2-2.6-5.8-5.8-5.8S50 41.5 50 44.7c0 .3 0 .6.1.8v.2c0 .3.1.5.2.8.1.3.2.5.3.8v.1c1 1.9 2.9 3.2 5.2 3.2s4.2-1.3 5.2-3.3zm-7.1.8c-.4-.2-.8-.5-1.1-.9l-.1-.1c-.1-.1-.1-.2-.2-.3-.1-.1-.1-.2-.2-.4 0-.1-.1-.2-.1-.3-.1-.2-.1-.3-.2-.5v-.2c0-.2-.1-.4-.1-.7 0-2.1 1.7-3.8 3.8-3.8s3.8 1.7 3.8 3.8c0 .2 0 .5-.1.7v.2c0 .2-.1.3-.1.5 0 .1-.1.2-.1.3-.1.1-.1.3-.2.4-.1.1-.1.2-.2.3l-.1.1c-.3.4-.7.7-1.1.9-.6.3-1.2.5-1.9.5-.6 0-1.2-.2-1.8-.5z"/></g><g><circle fill="#8C8B8B" cx="55.8" cy="44.7" r="1.8"/></g></svg>