<svg xmlns="http://www.w3.org/2000/svg" xmlns:xlink="http://www.w3.org/1999/xlink" viewBox="0 0 79 79"><path fill="#C6C6C6" d="M44.5 37.2c3.4-3.1 7-6 10.8-8.7 0-1.2-.6-2.5-1.7-3.6s-2.4-1.7-3.6-1.7c-2.7 3.8-5.6 7.4-8.7 10.8l3.2 3.2z"/><defs><path id="a" d="M44.5 37.2c3.4-3.1 7-6 10.8-8.7 0-1.2-.6-2.5-1.7-3.6s-2.4-1.7-3.6-1.7c-2.7 3.8-5.6 7.4-8.7 10.8l3.2 3.2z"/></defs><clipPath id="b"><use xlink:href="#a" overflow="visible"/></clipPath><defs><path id="c" d="M44.5 37.2c3.4-3.1 7-6 10.8-8.7 0-1.2-.6-2.5-1.7-3.6s-2.4-1.7-3.6-1.7c-2.7 3.8-5.6 7.4-8.7 10.8l3.2 3.2z"/></defs><clipPath id="d"><use xlink:href="#c" overflow="visible"/></clipPath><defs><path id="e" d="M44.5 37.2c3.4-3.1 7-6 10.8-8.7 0-1.2-.6-2.5-1.7-3.6s-2.4-1.7-3.6-1.7c-2.7 3.8-5.6 7.4-8.7 10.8l3.2 3.2z"/></defs><clipPath id="f"><use xlink:href="#e" overflow="visible"/></clipPath><defs><path id="g" d="M44.5 37.2c3.4-3.1 7-6 10.8-8.7 0-1.2-.6-2.5-1.7-3.6s-2.4-1.7-3.6-1.7c-2.7 3.8-5.6 7.4-8.7 10.8l3.2 3.2z"/></defs><clipPath id="h"><use xlink:href="#g" overflow="visible"/></clipPath><defs><path id="i" d="M44.5 37.2c3.4-3.1 7-6 10.8-8.7 0-1.2-.6-2.5-1.7-3.6s-2.4-1.7-3.6-1.7c-2.7 3.8-5.6 7.4-8.7 10.8l3.2 3.2z"/></defs><clipPath id="j"><use xlink:href="#i" overflow="visible"/></clipPath><defs><path id="k" d="M44.5 37.2c3.4-3.1 7-6 10.8-8.7 0-1.2-.6-2.5-1.7-3.6s-2.4-1.7-3.6-1.7c-2.7 3.8-5.6 7.4-8.7 10.8l3.2 3.2z"/></defs><clipPath id="l"><use xlink:href="#k" overflow="visible"/></clipPath><defs><path id="m" d="M44.5 37.2c3.4-3.1 7-6 10.8-8.7 0-1.2-.6-2.5-1.7-3.6s-2.4-1.7-3.6-1.7c-2.7 3.8-5.6 7.4-8.7 10.8l3.2 3.2z"/></defs><clipPath id="n"><use xlink:href="#m" overflow="visible"/></clipPath><defs><path id="o" d="M44.5 37.2c3.4-3.1 7-6 10.8-8.7 0-1.2-.6-2.5-1.7-3.6s-2.4-1.7-3.6-1.7c-2.7 3.8-5.6 7.4-8.7 10.8l3.2 3.2z"/></defs><clipPath id="p"><use xlink:href="#o" overflow="visible"/></clipPath><defs><path id="q" d="M44.5 37.2c3.4-3.1 7-6 10.8-8.7 0-1.2-.6-2.5-1.7-3.6s-2.4-1.7-3.6-1.7c-2.7 3.8-5.6 7.4-8.7 10.8l3.2 3.2z"/></defs><clipPath id="r"><use xlink:href="#q" overflow="visible"/></clipPath><defs><path id="s" d="M44.5 37.2c3.4-3.1 7-6 10.8-8.7 0-1.2-.6-2.5-1.7-3.6s-2.4-1.7-3.6-1.7c-2.7 3.8-5.6 7.4-8.7 10.8l3.2 3.2z"/></defs><clipPath id="t"><use xlink:href="#s" overflow="visible"/></clipPath><defs><path id="u" d="M44.5 37.2c3.4-3.1 7-6 10.8-8.7 0-1.2-.6-2.5-1.7-3.6s-2.4-1.7-3.6-1.7c-2.7 3.8-5.6 7.4-8.7 10.8l3.2 3.2z"/></defs><clipPath id="v"><use xlink:href="#u" overflow="visible"/></clipPath><defs><path id="w" d="M44.5 37.2c3.4-3.1 7-6 10.8-8.7 0-1.2-.6-2.5-1.7-3.6s-2.4-1.7-3.6-1.7c-2.7 3.8-5.6 7.4-8.7 10.8l3.2 3.2z"/></defs><clipPath id="x"><use xlink:href="#w" overflow="visible"/></clipPath><defs><path id="y" d="M44.5 37.2c3.4-3.1 7-6 10.8-8.7 0-1.2-.6-2.5-1.7-3.6s-2.4-1.7-3.6-1.7c-2.7 3.8-5.6 7.4-8.7 10.8l3.2 3.2z"/></defs><clipPath id="z"><use xlink:href="#y" overflow="visible"/></clipPath><defs><path id="A" d="M44.5 37.2c3.4-3.1 7-6 10.8-8.7 0-1.2-.6-2.5-1.7-3.6s-2.4-1.7-3.6-1.7c-2.7 3.8-5.6 7.4-8.7 10.8l3.2 3.2z"/></defs><clipPath id="B"><use xlink:href="#A" overflow="visible"/></clipPath><defs><path id="C" d="M44.5 37.2c3.4-3.1 7-6 10.8-8.7 0-1.2-.6-2.5-1.7-3.6s-2.4-1.7-3.6-1.7c-2.7 3.8-5.6 7.4-8.7 10.8l3.2 3.2z"/></defs><clipPath id="D"><use xlink:href="#C" overflow="visible"/></clipPath><defs><path id="E" d="M44.5 37.2c3.4-3.1 7-6 10.8-8.7 0-1.2-.6-2.5-1.7-3.6s-2.4-1.7-3.6-1.7c-2.7 3.8-5.6 7.4-8.7 10.8l3.2 3.2z"/></defs><clipPath id="F"><use xlink:href="#E" overflow="visible"/></clipPath><defs><path id="G" d="M44.5 37.2c3.4-3.1 7-6 10.8-8.7 0-1.2-.6-2.5-1.7-3.6s-2.4-1.7-3.6-1.7c-2.7 3.8-5.6 7.4-8.7 10.8l3.2 3.2z"/></defs><clipPath id="H"><use xlink:href="#G" overflow="visible"/></clipPath><defs><path id="I" d="M44.5 37.2c3.4-3.1 7-6 10.8-8.7 0-1.2-.6-2.5-1.7-3.6s-2.4-1.7-3.6-1.7c-2.7 3.8-5.6 7.4-8.7 10.8l3.2 3.2z"/></defs><clipPath id="J"><use xlink:href="#I" overflow="visible"/></clipPath><defs><path id="K" d="M44.5 37.2c3.4-3.1 7-6 10.8-8.7 0-1.2-.6-2.5-1.7-3.6s-2.4-1.7-3.6-1.7c-2.7 3.8-5.6 7.4-8.7 10.8l3.2 3.2z"/></defs><clipPath id="L"><use xlink:href="#K" overflow="visible"/></clipPath><defs><path id="M" d="M44.5 37.2c3.4-3.1 7-6 10.8-8.7 0-1.2-.6-2.5-1.7-3.6s-2.4-1.7-3.6-1.7c-2.7 3.8-5.6 7.4-8.7 10.8l3.2 3.2z"/></defs><clipPath id="N"><use xlink:href="#M" overflow="visible"/></clipPath><defs><path id="O" d="M44.5 37.2c3.4-3.1 7-6 10.8-8.7 0-1.2-.6-2.5-1.7-3.6s-2.4-1.7-3.6-1.7c-2.7 3.8-5.6 7.4-8.7 10.8l3.2 3.2z"/></defs><clipPath id="P"><use xlink:href="#O" overflow="visible"/></clipPath><defs><path id="Q" d="M44.5 37.2c3.4-3.1 7-6 10.8-8.7 0-1.2-.6-2.5-1.7-3.6s-2.4-1.7-3.6-1.7c-2.7 3.8-5.6 7.4-8.7 10.8l3.2 3.2z"/></defs><clipPath id="R"><use xlink:href="#Q" overflow="visible"/></clipPath><defs><path id="S" d="M44.5 37.2c3.4-3.1 7-6 10.8-8.7 0-1.2-.6-2.5-1.7-3.6s-2.4-1.7-3.6-1.7c-2.7 3.8-5.6 7.4-8.7 10.8l3.2 3.2z"/></defs><clipPath id="T"><use xlink:href="#S" overflow="visible"/></clipPath><defs><path id="U" d="M44.5 37.2c3.4-3.1 7-6 10.8-8.7 0-1.2-.6-2.5-1.7-3.6s-2.4-1.7-3.6-1.7c-2.7 3.8-5.6 7.4-8.7 10.8l3.2 3.2z"/></defs><clipPath id="V"><use xlink:href="#U" overflow="visible"/></clipPath><defs><path id="W" d="M44.5 37.2c3.4-3.1 7-6 10.8-8.7 0-1.2-.6-2.5-1.7-3.6s-2.4-1.7-3.6-1.7c-2.7 3.8-5.6 7.4-8.7 10.8l3.2 3.2z"/></defs><clipPath id="X"><use xlink:href="#W" overflow="visible"/></clipPath><defs><path id="Y" d="M44.5 37.2c3.4-3.1 7-6 10.8-8.7 0-1.2-.6-2.5-1.7-3.6s-2.4-1.7-3.6-1.7c-2.7 3.8-5.6 7.4-8.7 10.8l3.2 3.2z"/></defs><clipPath id="Z"><use xlink:href="#Y" overflow="visible"/></clipPath><defs><path id="aa" d="M44.5 37.2c3.4-3.1 7-6 10.8-8.7 0-1.2-.6-2.5-1.7-3.6s-2.4-1.7-3.6-1.7c-2.7 3.8-5.6 7.4-8.7 10.8l3.2 3.2z"/></defs><clipPath id="ab"><use xlink:href="#aa" overflow="visible"/></clipPath><defs><path id="ac" d="M44.5 37.2c3.4-3.1 7-6 10.8-8.7 0-1.2-.6-2.5-1.7-3.6s-2.4-1.7-3.6-1.7c-2.7 3.8-5.6 7.4-8.7 10.8l3.2 3.2z"/></defs><clipPath id="ad"><use xlink:href="#ac" overflow="visible"/></clipPath><defs><path id="ae" d="M44.5 37.2c3.4-3.1 7-6 10.8-8.7 0-1.2-.6-2.5-1.7-3.6s-2.4-1.7-3.6-1.7c-2.7 3.8-5.6 7.4-8.7 10.8l3.2 3.2z"/></defs><clipPath id="af"><use xlink:href="#ae" overflow="visible"/></clipPath><defs><path id="ag" d="M44.5 37.2c3.4-3.1 7-6 10.8-8.7 0-1.2-.6-2.5-1.7-3.6s-2.4-1.7-3.6-1.7c-2.7 3.8-5.6 7.4-8.7 10.8l3.2 3.2z"/></defs><clipPath id="ah"><use xlink:href="#ag" overflow="visible"/></clipPath><g><defs><path id="ai" d="M44.5 37.2c3.4-3.1 7-6 10.8-8.7 0-1.2-.6-2.5-1.7-3.6s-2.4-1.7-3.6-1.7c-2.7 3.8-5.6 7.4-8.7 10.8l3.2 3.2z"/></defs><clipPath id="aj"><use xlink:href="#ai" overflow="visible"/></clipPath></g><g><defs><path id="ak" d="M44.5 37.2c3.4-3.1 7-6 10.8-8.7 0-1.2-.6-2.5-1.7-3.6s-2.4-1.7-3.6-1.7c-2.7 3.8-5.6 7.4-8.7 10.8l3.2 3.2z"/></defs><clipPath id="al"><use xlink:href="#ak" overflow="visible"/></clipPath></g><g><defs><path id="am" d="M44.5 37.2c3.4-3.1 7-6 10.8-8.7 0-1.2-.6-2.5-1.7-3.6s-2.4-1.7-3.6-1.7c-2.7 3.8-5.6 7.4-8.7 10.8l3.2 3.2z"/></defs><clipPath id="an"><use xlink:href="#am" overflow="visible"/></clipPath></g><g><defs><path id="ao" d="M44.5 37.2c3.4-3.1 7-6 10.8-8.7 0-1.2-.6-2.5-1.7-3.6s-2.4-1.7-3.6-1.7c-2.7 3.8-5.6 7.4-8.7 10.8l3.2 3.2z"/></defs><clipPath id="ap"><use xlink:href="#ao" overflow="visible"/></clipPath></g><g><defs><path id="aq" d="M44.5 37.2c3.4-3.1 7-6 10.8-8.7 0-1.2-.6-2.5-1.7-3.6s-2.4-1.7-3.6-1.7c-2.7 3.8-5.6 7.4-8.7 10.8l3.2 3.2z"/></defs><clipPath id="ar"><use xlink:href="#aq" overflow="visible"/></clipPath></g><g><defs><path id="as" d="M44.5 37.2c3.4-3.1 7-6 10.8-8.7 0-1.2-.6-2.5-1.7-3.6s-2.4-1.7-3.6-1.7c-2.7 3.8-5.6 7.4-8.7 10.8l3.2 3.2z"/></defs><clipPath id="at"><use xlink:href="#as" overflow="visible"/></clipPath></g><g><defs><path id="au" d="M44.5 37.2c3.4-3.1 7-6 10.8-8.7 0-1.2-.6-2.5-1.7-3.6s-2.4-1.7-3.6-1.7c-2.7 3.8-5.6 7.4-8.7 10.8l3.2 3.2z"/></defs><clipPath id="av"><use xlink:href="#au" overflow="visible"/></clipPath></g><g><defs><path id="aw" d="M44.5 37.2c3.4-3.1 7-6 10.8-8.7 0-1.2-.6-2.5-1.7-3.6s-2.4-1.7-3.6-1.7c-2.7 3.8-5.6 7.4-8.7 10.8l3.2 3.2z"/></defs><clipPath id="ax"><use xlink:href="#aw" overflow="visible"/></clipPath></g><g><defs><path id="ay" d="M44.5 37.2c3.4-3.1 7-6 10.8-8.7 0-1.2-.6-2.5-1.7-3.6s-2.4-1.7-3.6-1.7c-2.7 3.8-5.6 7.4-8.7 10.8l3.2 3.2z"/></defs><clipPath id="az"><use xlink:href="#ay" overflow="visible"/></clipPath></g><g><defs><path id="aA" d="M44.5 37.2c3.4-3.1 7-6 10.8-8.7 0-1.2-.6-2.5-1.7-3.6s-2.4-1.7-3.6-1.7c-2.7 3.8-5.6 7.4-8.7 10.8l3.2 3.2z"/></defs><clipPath id="aB"><use xlink:href="#aA" overflow="visible"/></clipPath></g><g><defs><path id="aC" d="M44.5 37.2c3.4-3.1 7-6 10.8-8.7 0-1.2-.6-2.5-1.7-3.6s-2.4-1.7-3.6-1.7c-2.7 3.8-5.6 7.4-8.7 10.8l3.2 3.2z"/></defs><clipPath id="aD"><use xlink:href="#aC" overflow="visible"/></clipPath></g><g><defs><path id="aE" d="M44.5 37.2c3.4-3.1 7-6 10.8-8.7 0-1.2-.6-2.5-1.7-3.6s-2.4-1.7-3.6-1.7c-2.7 3.8-5.6 7.4-8.7 10.8l3.2 3.2z"/></defs><clipPath id="aF"><use xlink:href="#aE" overflow="visible"/></clipPath></g><g><defs><path id="aG" d="M44.5 37.2c3.4-3.1 7-6 10.8-8.7 0-1.2-.6-2.5-1.7-3.6s-2.4-1.7-3.6-1.7c-2.7 3.8-5.6 7.4-8.7 10.8l3.2 3.2z"/></defs><clipPath id="aH"><use xlink:href="#aG" overflow="visible"/></clipPath></g><g><defs><path id="aI" d="M44.5 37.2c3.4-3.1 7-6 10.8-8.7 0-1.2-.6-2.5-1.7-3.6s-2.4-1.7-3.6-1.7c-2.7 3.8-5.6 7.4-8.7 10.8l3.2 3.2z"/></defs><clipPath id="aJ"><use xlink:href="#aI" overflow="visible"/></clipPath></g><g><defs><path id="aK" d="M44.5 37.2c3.4-3.1 7-6 10.8-8.7 0-1.2-.6-2.5-1.7-3.6s-2.4-1.7-3.6-1.7c-2.7 3.8-5.6 7.4-8.7 10.8l3.2 3.2z"/></defs><clipPath id="aL"><use xlink:href="#aK" overflow="visible"/></clipPath></g><g><defs><path id="aM" d="M44.5 37.2c3.4-3.1 7-6 10.8-8.7 0-1.2-.6-2.5-1.7-3.6s-2.4-1.7-3.6-1.7c-2.7 3.8-5.6 7.4-8.7 10.8l3.2 3.2z"/></defs><clipPath id="aN"><use xlink:href="#aM" overflow="visible"/></clipPath></g><g><defs><path id="aO" d="M44.5 37.2c3.4-3.1 7-6 10.8-8.7 0-1.2-.6-2.5-1.7-3.6s-2.4-1.7-3.6-1.7c-2.7 3.8-5.6 7.4-8.7 10.8l3.2 3.2z"/></defs><clipPath id="aP"><use xlink:href="#aO" overflow="visible"/></clipPath></g><g><defs><path id="aQ" d="M44.5 37.2c3.4-3.1 7-6 10.8-8.7 0-1.2-.6-2.5-1.7-3.6s-2.4-1.7-3.6-1.7c-2.7 3.8-5.6 7.4-8.7 10.8l3.2 3.2z"/></defs><clipPath id="aR"><use xlink:href="#aQ" overflow="visible"/></clipPath></g><g><defs><path id="aS" d="M44.5 37.2c3.4-3.1 7-6 10.8-8.7 0-1.2-.6-2.5-1.7-3.6s-2.4-1.7-3.6-1.7c-2.7 3.8-5.6 7.4-8.7 10.8l3.2 3.2z"/></defs><clipPath id="aT"><use xlink:href="#aS" overflow="visible"/></clipPath></g><g><defs><path id="aU" d="M44.5 37.2c3.4-3.1 7-6 10.8-8.7 0-1.2-.6-2.5-1.7-3.6s-2.4-1.7-3.6-1.7c-2.7 3.8-5.6 7.4-8.7 10.8l3.2 3.2z"/></defs><clipPath id="aV"><use xlink:href="#aU" overflow="visible"/></clipPath></g><g><defs><path id="aW" d="M44.5 37.2c3.4-3.1 7-6 10.8-8.7 0-1.2-.6-2.5-1.7-3.6s-2.4-1.7-3.6-1.7c-2.7 3.8-5.6 7.4-8.7 10.8l3.2 3.2z"/></defs><clipPath id="aX"><use xlink:href="#aW" overflow="visible"/></clipPath></g><g><defs><path id="aY" d="M44.5 37.2c3.4-3.1 7-6 10.8-8.7 0-1.2-.6-2.5-1.7-3.6s-2.4-1.7-3.6-1.7c-2.7 3.8-5.6 7.4-8.7 10.8l3.2 3.2z"/></defs><clipPath id="aZ"><use xlink:href="#aY" overflow="visible"/></clipPath></g><g><defs><path id="ba" d="M44.5 37.2c3.4-3.1 7-6 10.8-8.7 0-1.2-.6-2.5-1.7-3.6s-2.4-1.7-3.6-1.7c-2.7 3.8-5.6 7.4-8.7 10.8l3.2 3.2z"/></defs><clipPath id="bb"><use xlink:href="#ba" overflow="visible"/></clipPath></g><g><defs><path id="bc" d="M44.5 37.2c3.4-3.1 7-6 10.8-8.7 0-1.2-.6-2.5-1.7-3.6s-2.4-1.7-3.6-1.7c-2.7 3.8-5.6 7.4-8.7 10.8l3.2 3.2z"/></defs><clipPath id="bd"><use xlink:href="#bc" overflow="visible"/></clipPath></g><g><defs><path id="be" d="M44.5 37.2c3.4-3.1 7-6 10.8-8.7 0-1.2-.6-2.5-1.7-3.6s-2.4-1.7-3.6-1.7c-2.7 3.8-5.6 7.4-8.7 10.8l3.2 3.2z"/></defs><clipPath id="bf"><use xlink:href="#be" overflow="visible"/></clipPath></g><g><defs><path id="bg" d="M44.5 37.2c3.4-3.1 7-6 10.8-8.7 0-1.2-.6-2.5-1.7-3.6s-2.4-1.7-3.6-1.7c-2.7 3.8-5.6 7.4-8.7 10.8l3.2 3.2z"/></defs><clipPath id="bh"><use xlink:href="#bg" overflow="visible"/></clipPath></g><g><defs><path id="bi" d="M44.5 37.2c3.4-3.1 7-6 10.8-8.7 0-1.2-.6-2.5-1.7-3.6s-2.4-1.7-3.6-1.7c-2.7 3.8-5.6 7.4-8.7 10.8l3.2 3.2z"/></defs><clipPath id="bj"><use xlink:href="#bi" overflow="visible"/></clipPath></g><g><defs><path id="bk" d="M44.5 37.2c3.4-3.1 7-6 10.8-8.7 0-1.2-.6-2.5-1.7-3.6s-2.4-1.7-3.6-1.7c-2.7 3.8-5.6 7.4-8.7 10.8l3.2 3.2z"/></defs><clipPath id="bl"><use xlink:href="#bk" overflow="visible"/></clipPath></g><g><defs><path id="bm" d="M44.5 37.2c3.4-3.1 7-6 10.8-8.7 0-1.2-.6-2.5-1.7-3.6s-2.4-1.7-3.6-1.7c-2.7 3.8-5.6 7.4-8.7 10.8l3.2 3.2z"/></defs><clipPath id="bn"><use xlink:href="#bm" overflow="visible"/></clipPath></g><g><defs><path id="bo" d="M44.5 37.2c3.4-3.1 7-6 10.8-8.7 0-1.2-.6-2.5-1.7-3.6s-2.4-1.7-3.6-1.7c-2.7 3.8-5.6 7.4-8.7 10.8l3.2 3.2z"/></defs><clipPath id="bp"><use xlink:href="#bo" overflow="visible"/></clipPath></g><g><path fill="#C6C6C6" d="M33.5 41.8c-3.4 3.1-7 6-10.8 8.7 0 1.2.6 2.5 1.7 3.6s2.4 1.7 3.6 1.7c2.7-3.8 5.6-7.4 8.7-10.8l-3.2-3.2z"/><defs><path id="bq" d="M33.5 41.8c-3.4 3.1-7 6-10.8 8.7 0 1.2.6 2.5 1.7 3.6s2.4 1.7 3.6 1.7c2.7-3.8 5.6-7.4 8.7-10.8l-3.2-3.2z"/></defs><clipPath id="br"><use xlink:href="#bq" overflow="visible"/></clipPath><defs><path id="bs" d="M33.5 41.8c-3.4 3.1-7 6-10.8 8.7 0 1.2.6 2.5 1.7 3.6s2.4 1.7 3.6 1.7c2.7-3.8 5.6-7.4 8.7-10.8l-3.2-3.2z"/></defs><clipPath id="bt"><use xlink:href="#bs" overflow="visible"/></clipPath><defs><path id="bu" d="M33.5 41.8c-3.4 3.1-7 6-10.8 8.7 0 1.2.6 2.5 1.7 3.6s2.4 1.7 3.6 1.7c2.7-3.8 5.6-7.4 8.7-10.8l-3.2-3.2z"/></defs><clipPath id="bv"><use xlink:href="#bu" overflow="visible"/></clipPath><defs><path id="bw" d="M33.5 41.8c-3.4 3.1-7 6-10.8 8.7 0 1.2.6 2.5 1.7 3.6s2.4 1.7 3.6 1.7c2.7-3.8 5.6-7.4 8.7-10.8l-3.2-3.2z"/></defs><clipPath id="bx"><use xlink:href="#bw" overflow="visible"/></clipPath><defs><path id="by" d="M33.5 41.8c-3.4 3.1-7 6-10.8 8.7 0 1.2.6 2.5 1.7 3.6s2.4 1.7 3.6 1.7c2.7-3.8 5.6-7.4 8.7-10.8l-3.2-3.2z"/></defs><clipPath id="bz"><use xlink:href="#by" overflow="visible"/></clipPath><defs><path id="bA" d="M33.5 41.8c-3.4 3.1-7 6-10.8 8.7 0 1.2.6 2.5 1.7 3.6s2.4 1.7 3.6 1.7c2.7-3.8 5.6-7.4 8.7-10.8l-3.2-3.2z"/></defs><clipPath id="bB"><use xlink:href="#bA" overflow="visible"/></clipPath><defs><path id="bC" d="M33.5 41.8c-3.4 3.1-7 6-10.8 8.7 0 1.2.6 2.5 1.7 3.6s2.4 1.7 3.6 1.7c2.7-3.8 5.6-7.4 8.7-10.8l-3.2-3.2z"/></defs><clipPath id="bD"><use xlink:href="#bC" overflow="visible"/></clipPath><defs><path id="bE" d="M33.5 41.8c-3.4 3.1-7 6-10.8 8.7 0 1.2.6 2.5 1.7 3.6s2.4 1.7 3.6 1.7c2.7-3.8 5.6-7.4 8.7-10.8l-3.2-3.2z"/></defs><clipPath id="bF"><use xlink:href="#bE" overflow="visible"/></clipPath><defs><path id="bG" d="M33.5 41.8c-3.4 3.1-7 6-10.8 8.7 0 1.2.6 2.5 1.7 3.6s2.4 1.7 3.6 1.7c2.7-3.8 5.6-7.4 8.7-10.8l-3.2-3.2z"/></defs><clipPath id="bH"><use xlink:href="#bG" overflow="visible"/></clipPath><defs><path id="bI" d="M33.5 41.8c-3.4 3.1-7 6-10.8 8.7 0 1.2.6 2.5 1.7 3.6s2.4 1.7 3.6 1.7c2.7-3.8 5.6-7.4 8.7-10.8l-3.2-3.2z"/></defs><clipPath id="bJ"><use xlink:href="#bI" overflow="visible"/></clipPath><defs><path id="bK" d="M33.5 41.8c-3.4 3.1-7 6-10.8 8.7 0 1.2.6 2.5 1.7 3.6s2.4 1.7 3.6 1.7c2.7-3.8 5.6-7.4 8.7-10.8l-3.2-3.2z"/></defs><clipPath id="bL"><use xlink:href="#bK" overflow="visible"/></clipPath><defs><path id="bM" d="M33.5 41.8c-3.4 3.1-7 6-10.8 8.7 0 1.2.6 2.5 1.7 3.6s2.4 1.7 3.6 1.7c2.7-3.8 5.6-7.4 8.7-10.8l-3.2-3.2z"/></defs><clipPath id="bN"><use xlink:href="#bM" overflow="visible"/></clipPath><defs><path id="bO" d="M33.5 41.8c-3.4 3.1-7 6-10.8 8.7 0 1.2.6 2.5 1.7 3.6s2.4 1.7 3.6 1.7c2.7-3.8 5.6-7.4 8.7-10.8l-3.2-3.2z"/></defs><clipPath id="bP"><use xlink:href="#bO" overflow="visible"/></clipPath><defs><path id="bQ" d="M33.5 41.8c-3.4 3.1-7 6-10.8 8.7 0 1.2.6 2.5 1.7 3.6s2.4 1.7 3.6 1.7c2.7-3.8 5.6-7.4 8.7-10.8l-3.2-3.2z"/></defs><clipPath id="bR"><use xlink:href="#bQ" overflow="visible"/></clipPath><defs><path id="bS" d="M33.5 41.8c-3.4 3.1-7 6-10.8 8.7 0 1.2.6 2.5 1.7 3.6s2.4 1.7 3.6 1.7c2.7-3.8 5.6-7.4 8.7-10.8l-3.2-3.2z"/></defs><clipPath id="bT"><use xlink:href="#bS" overflow="visible"/></clipPath><defs><path id="bU" d="M33.5 41.8c-3.4 3.1-7 6-10.8 8.7 0 1.2.6 2.5 1.7 3.6s2.4 1.7 3.6 1.7c2.7-3.8 5.6-7.4 8.7-10.8l-3.2-3.2z"/></defs><clipPath id="bV"><use xlink:href="#bU" overflow="visible"/></clipPath><defs><path id="bW" d="M33.5 41.8c-3.4 3.1-7 6-10.8 8.7 0 1.2.6 2.5 1.7 3.6s2.4 1.7 3.6 1.7c2.7-3.8 5.6-7.4 8.7-10.8l-3.2-3.2z"/></defs><clipPath id="bX"><use xlink:href="#bW" overflow="visible"/></clipPath><defs><path id="bY" d="M33.5 41.8c-3.4 3.1-7 6-10.8 8.7 0 1.2.6 2.5 1.7 3.6s2.4 1.7 3.6 1.7c2.7-3.8 5.6-7.4 8.7-10.8l-3.2-3.2z"/></defs><clipPath id="bZ"><use xlink:href="#bY" overflow="visible"/></clipPath><defs><path id="ca" d="M33.5 41.8c-3.4 3.1-7 6-10.8 8.7 0 1.2.6 2.5 1.7 3.6s2.4 1.7 3.6 1.7c2.7-3.8 5.6-7.4 8.7-10.8l-3.2-3.2z"/></defs><clipPath id="cb"><use xlink:href="#ca" overflow="visible"/></clipPath><defs><path id="cc" d="M33.5 41.8c-3.4 3.1-7 6-10.8 8.7 0 1.2.6 2.5 1.7 3.6s2.4 1.7 3.6 1.7c2.7-3.8 5.6-7.4 8.7-10.8l-3.2-3.2z"/></defs><clipPath id="cd"><use xlink:href="#cc" overflow="visible"/></clipPath><defs><path id="ce" d="M33.5 41.8c-3.4 3.1-7 6-10.8 8.7 0 1.2.6 2.5 1.7 3.6s2.4 1.7 3.6 1.7c2.7-3.8 5.6-7.4 8.7-10.8l-3.2-3.2z"/></defs><clipPath id="cf"><use xlink:href="#ce" overflow="visible"/></clipPath><defs><path id="cg" d="M33.5 41.8c-3.4 3.1-7 6-10.8 8.7 0 1.2.6 2.5 1.7 3.6s2.4 1.7 3.6 1.7c2.7-3.8 5.6-7.4 8.7-10.8l-3.2-3.2z"/></defs><clipPath id="ch"><use xlink:href="#cg" overflow="visible"/></clipPath><defs><path id="ci" d="M33.5 41.8c-3.4 3.1-7 6-10.8 8.7 0 1.2.6 2.5 1.7 3.6s2.4 1.7 3.6 1.7c2.7-3.8 5.6-7.4 8.7-10.8l-3.2-3.2z"/></defs><clipPath id="cj"><use xlink:href="#ci" overflow="visible"/></clipPath><defs><path id="ck" d="M33.5 41.8c-3.4 3.1-7 6-10.8 8.7 0 1.2.6 2.5 1.7 3.6s2.4 1.7 3.6 1.7c2.7-3.8 5.6-7.4 8.7-10.8l-3.2-3.2z"/></defs><clipPath id="cl"><use xlink:href="#ck" overflow="visible"/></clipPath><defs><path id="cm" d="M33.5 41.8c-3.4 3.1-7 6-10.8 8.7 0 1.2.6 2.5 1.7 3.6s2.4 1.7 3.6 1.7c2.7-3.8 5.6-7.4 8.7-10.8l-3.2-3.2z"/></defs><clipPath id="cn"><use xlink:href="#cm" overflow="visible"/></clipPath><defs><path id="co" d="M33.5 41.8c-3.4 3.1-7 6-10.8 8.7 0 1.2.6 2.5 1.7 3.6s2.4 1.7 3.6 1.7c2.7-3.8 5.6-7.4 8.7-10.8l-3.2-3.2z"/></defs><clipPath id="cp"><use xlink:href="#co" overflow="visible"/></clipPath><defs><path id="cq" d="M33.5 41.8c-3.4 3.1-7 6-10.8 8.7 0 1.2.6 2.5 1.7 3.6s2.4 1.7 3.6 1.7c2.7-3.8 5.6-7.4 8.7-10.8l-3.2-3.2z"/></defs><clipPath id="cr"><use xlink:href="#cq" overflow="visible"/></clipPath><defs><path id="cs" d="M33.5 41.8c-3.4 3.1-7 6-10.8 8.7 0 1.2.6 2.5 1.7 3.6s2.4 1.7 3.6 1.7c2.7-3.8 5.6-7.4 8.7-10.8l-3.2-3.2z"/></defs><clipPath id="ct"><use xlink:href="#cs" overflow="visible"/></clipPath><defs><path id="cu" d="M33.5 41.8c-3.4 3.1-7 6-10.8 8.7 0 1.2.6 2.5 1.7 3.6s2.4 1.7 3.6 1.7c2.7-3.8 5.6-7.4 8.7-10.8l-3.2-3.2z"/></defs><clipPath id="cv"><use xlink:href="#cu" overflow="visible"/></clipPath><defs><path id="cw" d="M33.5 41.8c-3.4 3.1-7 6-10.8 8.7 0 1.2.6 2.5 1.7 3.6s2.4 1.7 3.6 1.7c2.7-3.8 5.6-7.4 8.7-10.8l-3.2-3.2z"/></defs><clipPath id="cx"><use xlink:href="#cw" overflow="visible"/></clipPath><g><defs><path id="cy" d="M33.5 41.8c-3.4 3.1-7 6-10.8 8.7 0 1.2.6 2.5 1.7 3.6s2.4 1.7 3.6 1.7c2.7-3.8 5.6-7.4 8.7-10.8l-3.2-3.2z"/></defs><clipPath id="cz"><use xlink:href="#cy" overflow="visible"/></clipPath></g><g><defs><path id="cA" d="M33.5 41.8c-3.4 3.1-7 6-10.8 8.7 0 1.2.6 2.5 1.7 3.6s2.4 1.7 3.6 1.7c2.7-3.8 5.6-7.4 8.7-10.8l-3.2-3.2z"/></defs><clipPath id="cB"><use xlink:href="#cA" overflow="visible"/></clipPath></g><g><defs><path id="cC" d="M33.5 41.8c-3.4 3.1-7 6-10.8 8.7 0 1.2.6 2.5 1.7 3.6s2.4 1.7 3.6 1.7c2.7-3.8 5.6-7.4 8.7-10.8l-3.2-3.2z"/></defs><clipPath id="cD"><use xlink:href="#cC" overflow="visible"/></clipPath></g><g><defs><path id="cE" d="M33.5 41.8c-3.4 3.1-7 6-10.8 8.7 0 1.2.6 2.5 1.7 3.6s2.4 1.7 3.6 1.7c2.7-3.8 5.6-7.4 8.7-10.8l-3.2-3.2z"/></defs><clipPath id="cF"><use xlink:href="#cE" overflow="visible"/></clipPath></g><g><defs><path id="cG" d="M33.5 41.8c-3.4 3.1-7 6-10.8 8.7 0 1.2.6 2.5 1.7 3.6s2.4 1.7 3.6 1.7c2.7-3.8 5.6-7.4 8.7-10.8l-3.2-3.2z"/></defs><clipPath id="cH"><use xlink:href="#cG" overflow="visible"/></clipPath></g><g><defs><path id="cI" d="M33.5 41.8c-3.4 3.1-7 6-10.8 8.7 0 1.2.6 2.5 1.7 3.6s2.4 1.7 3.6 1.7c2.7-3.8 5.6-7.4 8.7-10.8l-3.2-3.2z"/></defs><clipPath id="cJ"><use xlink:href="#cI" overflow="visible"/></clipPath></g><g><defs><path id="cK" d="M33.5 41.8c-3.4 3.1-7 6-10.8 8.7 0 1.2.6 2.5 1.7 3.6s2.4 1.7 3.6 1.7c2.7-3.8 5.6-7.4 8.7-10.8l-3.2-3.2z"/></defs><clipPath id="cL"><use xlink:href="#cK" overflow="visible"/></clipPath></g><g><defs><path id="cM" d="M33.5 41.8c-3.4 3.1-7 6-10.8 8.7 0 1.2.6 2.5 1.7 3.6s2.4 1.7 3.6 1.7c2.7-3.8 5.6-7.4 8.7-10.8l-3.2-3.2z"/></defs><clipPath id="cN"><use xlink:href="#cM" overflow="visible"/></clipPath></g><g><defs><path id="cO" d="M33.5 41.8c-3.4 3.1-7 6-10.8 8.7 0 1.2.6 2.5 1.7 3.6s2.4 1.7 3.6 1.7c2.7-3.8 5.6-7.4 8.7-10.8l-3.2-3.2z"/></defs><clipPath id="cP"><use xlink:href="#cO" overflow="visible"/></clipPath></g><g><defs><path id="cQ" d="M33.5 41.8c-3.4 3.1-7 6-10.8 8.7 0 1.2.6 2.5 1.7 3.6s2.4 1.7 3.6 1.7c2.7-3.8 5.6-7.4 8.7-10.8l-3.2-3.2z"/></defs><clipPath id="cR"><use xlink:href="#cQ" overflow="visible"/></clipPath></g><g><defs><path id="cS" d="M33.5 41.8c-3.4 3.1-7 6-10.8 8.7 0 1.2.6 2.5 1.7 3.6s2.4 1.7 3.6 1.7c2.7-3.8 5.6-7.4 8.7-10.8l-3.2-3.2z"/></defs><clipPath id="cT"><use xlink:href="#cS" overflow="visible"/></clipPath></g><g><defs><path id="cU" d="M33.5 41.8c-3.4 3.1-7 6-10.8 8.7 0 1.2.6 2.5 1.7 3.6s2.4 1.7 3.6 1.7c2.7-3.8 5.6-7.4 8.7-10.8l-3.2-3.2z"/></defs><clipPath id="cV"><use xlink:href="#cU" overflow="visible"/></clipPath></g><g><defs><path id="cW" d="M33.5 41.8c-3.4 3.1-7 6-10.8 8.7 0 1.2.6 2.5 1.7 3.6s2.4 1.7 3.6 1.7c2.7-3.8 5.6-7.4 8.7-10.8l-3.2-3.2z"/></defs><clipPath id="cX"><use xlink:href="#cW" overflow="visible"/></clipPath></g><g><defs><path id="cY" d="M33.5 41.8c-3.4 3.1-7 6-10.8 8.7 0 1.2.6 2.5 1.7 3.6s2.4 1.7 3.6 1.7c2.7-3.8 5.6-7.4 8.7-10.8l-3.2-3.2z"/></defs><clipPath id="cZ"><use xlink:href="#cY" overflow="visible"/></clipPath></g><g><defs><path id="da" d="M33.5 41.8c-3.4 3.1-7 6-10.8 8.7 0 1.2.6 2.5 1.7 3.6s2.4 1.7 3.6 1.7c2.7-3.8 5.6-7.4 8.7-10.8l-3.2-3.2z"/></defs><clipPath id="db"><use xlink:href="#da" overflow="visible"/></clipPath></g><g><defs><path id="dc" d="M33.5 41.8c-3.4 3.1-7 6-10.8 8.7 0 1.2.6 2.5 1.7 3.6s2.4 1.7 3.6 1.7c2.7-3.8 5.6-7.4 8.7-10.8l-3.2-3.2z"/></defs><clipPath id="dd"><use xlink:href="#dc" overflow="visible"/></clipPath></g><g><defs><path id="de" d="M33.5 41.8c-3.4 3.1-7 6-10.8 8.7 0 1.2.6 2.5 1.7 3.6s2.4 1.7 3.6 1.7c2.7-3.8 5.6-7.4 8.7-10.8l-3.2-3.2z"/></defs><clipPath id="df"><use xlink:href="#de" overflow="visible"/></clipPath></g><g><defs><path id="dg" d="M33.5 41.8c-3.4 3.1-7 6-10.8 8.7 0 1.2.6 2.5 1.7 3.6s2.4 1.7 3.6 1.7c2.7-3.8 5.6-7.4 8.7-10.8l-3.2-3.2z"/></defs><clipPath id="dh"><use xlink:href="#dg" overflow="visible"/></clipPath></g><g><defs><path id="di" d="M33.5 41.8c-3.4 3.1-7 6-10.8 8.7 0 1.2.6 2.5 1.7 3.6s2.4 1.7 3.6 1.7c2.7-3.8 5.6-7.4 8.7-10.8l-3.2-3.2z"/></defs><clipPath id="dj"><use xlink:href="#di" overflow="visible"/></clipPath></g><g><defs><path id="dk" d="M33.5 41.8c-3.4 3.1-7 6-10.8 8.7 0 1.2.6 2.5 1.7 3.6s2.4 1.7 3.6 1.7c2.7-3.8 5.6-7.4 8.7-10.8l-3.2-3.2z"/></defs><clipPath id="dl"><use xlink:href="#dk" overflow="visible"/></clipPath></g><g><defs><path id="dm" d="M33.5 41.8c-3.4 3.1-7 6-10.8 8.7 0 1.2.6 2.5 1.7 3.6s2.4 1.7 3.6 1.7c2.7-3.8 5.6-7.4 8.7-10.8l-3.2-3.2z"/></defs><clipPath id="dn"><use xlink:href="#dm" overflow="visible"/></clipPath></g><g><defs><path id="do" d="M33.5 41.8c-3.4 3.1-7 6-10.8 8.7 0 1.2.6 2.5 1.7 3.6s2.4 1.7 3.6 1.7c2.7-3.8 5.6-7.4 8.7-10.8l-3.2-3.2z"/></defs><clipPath id="dp"><use xlink:href="#do" overflow="visible"/></clipPath></g><g><defs><path id="dq" d="M33.5 41.8c-3.4 3.1-7 6-10.8 8.7 0 1.2.6 2.5 1.7 3.6s2.4 1.7 3.6 1.7c2.7-3.8 5.6-7.4 8.7-10.8l-3.2-3.2z"/></defs><clipPath id="dr"><use xlink:href="#dq" overflow="visible"/></clipPath></g><g><defs><path id="ds" d="M33.5 41.8c-3.4 3.1-7 6-10.8 8.7 0 1.2.6 2.5 1.7 3.6s2.4 1.7 3.6 1.7c2.7-3.8 5.6-7.4 8.7-10.8l-3.2-3.2z"/></defs><clipPath id="dt"><use xlink:href="#ds" overflow="visible"/></clipPath></g><g><defs><path id="du" d="M33.5 41.8c-3.4 3.1-7 6-10.8 8.7 0 1.2.6 2.5 1.7 3.6s2.4 1.7 3.6 1.7c2.7-3.8 5.6-7.4 8.7-10.8l-3.2-3.2z"/></defs><clipPath id="dv"><use xlink:href="#du" overflow="visible"/></clipPath></g><g><defs><path id="dw" d="M33.5 41.8c-3.4 3.1-7 6-10.8 8.7 0 1.2.6 2.5 1.7 3.6s2.4 1.7 3.6 1.7c2.7-3.8 5.6-7.4 8.7-10.8l-3.2-3.2z"/></defs><clipPath id="dx"><use xlink:href="#dw" overflow="visible"/></clipPath></g><g><defs><path id="dy" d="M33.5 41.8c-3.4 3.1-7 6-10.8 8.7 0 1.2.6 2.5 1.7 3.6s2.4 1.7 3.6 1.7c2.7-3.8 5.6-7.4 8.7-10.8l-3.2-3.2z"/></defs><clipPath id="dz"><use xlink:href="#dy" overflow="visible"/></clipPath></g><g><defs><path id="dA" d="M33.5 41.8c-3.4 3.1-7 6-10.8 8.7 0 1.2.6 2.5 1.7 3.6s2.4 1.7 3.6 1.7c2.7-3.8 5.6-7.4 8.7-10.8l-3.2-3.2z"/></defs><clipPath id="dB"><use xlink:href="#dA" overflow="visible"/></clipPath></g><g><defs><path id="dC" d="M33.5 41.8c-3.4 3.1-7 6-10.8 8.7 0 1.2.6 2.5 1.7 3.6s2.4 1.7 3.6 1.7c2.7-3.8 5.6-7.4 8.7-10.8l-3.2-3.2z"/></defs><clipPath id="dD"><use xlink:href="#dC" overflow="visible"/></clipPath></g><g><defs><path id="dE" d="M33.5 41.8c-3.4 3.1-7 6-10.8 8.7 0 1.2.6 2.5 1.7 3.6s2.4 1.7 3.6 1.7c2.7-3.8 5.6-7.4 8.7-10.8l-3.2-3.2z"/></defs><clipPath id="dF"><use xlink:href="#dE" overflow="visible"/></clipPath></g></g><g><path fill="#C6C6C6" d="M40.6 46.1c.2.2.4.2.6 0l4.4-4.4c.2-.2.2-.4 0-.6l-.8-.8-1.8-1.7-3.2-3.2-1.8-1.8-.8-.8c-.2-.2-.4-.2-.6 0l-4.4 4.4c-.2.2-.2.4 0 .6l.8.8 1.8 1.8 3.2 3.2 1.8 1.8.8.7z"/></g><g><path fill="#C6C6C6" d="M50.6 50.6L45 45.1l-2.4 2.4c-.5.5-1.1.7-1.7.7-.3 0-.6-.1-.8-.2-.3.3-.6.7-1 1l6.5 6.5c.2.2.4.2.6 0 .1-.1.1-.3.1-.4l-.2-4.1 4.1.4c.2 0 .3-.1.4-.2s.1-.4 0-.6z"/></g><g><path fill="#C5C6C8" d="M36.7 45c-3.1 3.4-6 7-8.7 10.8-1.2 0-2.5-.6-3.6-1.7s-1.7-2.4-1.7-3.6c3.8-2.7 7.4-5.6 10.8-8.7L31.7 40c-3.4 3.1-7.1 6.1-10.9 8.8l-.4.3-.1.5c-.3 2.1.6 4.5 2.3 6.2s4.1 2.7 6.2 2.3l.5-.1.3-.4c2.7-3.8 5.6-7.5 8.8-10.9L36.7 45z"/></g><g><path fill="#C6C6C6" d="M55.3 23.1c-1.8-1.8-4.1-2.7-6.2-2.4l-.5.1-.3.4c-2.7 3.8-5.6 7.5-8.8 10.9l1.8 1.8c3.1-3.4 6-7 8.7-10.8 1.2 0 2.5.6 3.6 1.7s1.7 2.4 1.7 3.6c-3.8 2.7-7.4 5.6-10.8 8.7l1.8 1.8c3.4-3.1 7.1-6.1 10.9-8.8l.4-.3.1-.5c.3-2-.6-4.4-2.4-6.2z"/></g></svg>