<svg xmlns="http://www.w3.org/2000/svg" viewBox="0 0 90 90"><circle cx="45.2" cy="45.3" r="37.5" fill="#FFF"/><path d="M45.2 84.8c-21.8 0-39.5-17.7-39.5-39.5S23.4 5.8 45.2 5.8s39.5 17.7 39.5 39.5S67 84.8 45.2 84.8zm0-75C25.6 9.8 9.7 25.7 9.7 45.3s15.9 35.5 35.5 35.5 35.5-15.9 35.5-35.5S64.8 9.8 45.2 9.8z" fill="#8CC24A"/><g><path d="M45.2 29.3c8.8 0 16 7.2 16 16s-7.2 16-16 16-16-7.2-16-16 7.2-16 16-16m0-4c-11 0-20 9-20 20s9 20 20 20 20-9 20-20c0-11.1-8.9-20-20-20z" fill="#3B5152"/><path d="M45.2 36.8c4.7 0 8.5 3.8 8.5 8.5s-3.8 8.5-8.5 8.5-8.5-3.8-8.5-8.5 3.8-8.5 8.5-8.5m0-4c-6.9 0-12.5 5.6-12.5 12.5s5.6 12.5 12.5 12.5 12.5-5.6 12.5-12.5-5.6-12.5-12.5-12.5z" fill="#4C9092"/><g fill="#3B5152"><circle cx="45.2" cy="45.3" r="2.5"/><path d="M45.2 44.8c.3 0 .5.2.5.5s-.2.5-.5.5-.5-.2-.5-.5.2-.5.5-.5m0-4c-2.5 0-4.5 2-4.5 4.5s2 4.5 4.5 4.5 4.5-2 4.5-4.5-2-4.5-4.5-4.5z"/></g><path d="M45.2 47.3c-.5 0-1-.2-1.4-.6s-.6-.9-.6-1.4.2-1 .6-1.4l8.1-8.1v-5.1l.1-.3c.2-.5.6-.9 1.2-.9.4 0 .7.2.9.4l.8.8v-3l.1-.3c.2-.5.6-.9 1.2-.9.4 0 .7.2.9.4l.8.8v-3l.1-.3c.2-.5.6-.9 1.2-.9.4 0 .7.2.9.4l7 6.7c.4.4.4.9.3 1.3-.1.4-.5.7-.9.8H63.2l.9.9c.4.4.4.9.3 1.3-.1.4-.5.7-.9.8H60.2l.9.9c.4.4.4.9.3 1.3-.1.4-.5.7-.9.8h-5.9l-8 8c-.4.4-.9.6-1.4.6z" fill="#FFF"/><path d="M66.4 31.3l-7.1-6.8c-.1-.1-.4-.1-.4.1V30l-2.6-2.5c-.1-.1-.4-.1-.4.1V33l-2.6-2.5c-.1-.1-.4-.1-.4.1v5.5l-8.4 8.4c-.4.4-.4 1 0 1.4.2.2.5.3.7.3s.5-.1.7-.3l8.3-8.3h6.1c.2 0 .3-.3.1-.4l-2.7-2.6h5.6c.2 0 .3-.3.1-.4l-2.7-2.6h5.6c.2.1.2-.1.1-.3z" fill="#E9312F"/></g></svg>