<svg xmlns="http://www.w3.org/2000/svg" viewBox="0 0 79 79"><path fill="#E16250" d="M67.3 53.3c0 1.7-1.3 3-3 3H15.4c-1.7 0-3-1.3-3-3V27c0-1.7 1.3-3 3-3h48.9c1.7 0 3 1.3 3 3v26.3z"/><path fill="#FFF" d="M63.3 51.6s.1.7-.6 1.5c-.4.4-1 .6-1.8.6h-2.6c-3.9 0-9.6 0-16.3.1-6.8.1-14.7.2-23.1.2h-.8c-.3 0-.6-.2-.9-.3-.5-.3-.9-.9-1.1-1.5 0-.2 0-.3-.1-.5V50.5v-1.6-6.6c0-4.4 0-8.9-.1-13.5v-.5c.1-.2.1-.4.2-.5.2-.3.4-.6.6-.8.3-.2.6-.4.9-.5.3-.1.7-.1 1-.1h10.1c4.4 0 8.8 0 13 .1 4.2 0 8.3.1 12.2.1 1.9 0 3.8 0 5.6.1h1.4c.4 0 .9 0 1.4.2.9.4 1.3 1.4 1.2 2.3 0 6.8-.1 12.4-.1 16.3-.1 3.8-.1 6.1-.1 6.1zm0 0v-6.2c0-3.9 0-9.6-.1-16.3.1-.8-.3-1.7-1.1-2-.4-.2-.8-.2-1.2-.2h-1.4c-1.8 0-3.7 0-5.6.1-3.9 0-8 .1-12.2.1-4.2 0-8.6.1-13 .1H18.2c-.1 0-.2 0-.3.1-.2.1-.4.2-.5.3-.2.1-.3.3-.4.5 0 .1-.1.2-.1.3v.4c0 4.5 0 9-.1 13.5V52c.1.4.4.8.7 1 .2.1.3.2.6.2h.8c8.5.1 16.3.2 23.1.2 6.8 0 12.4.1 16.3.1h2.6c.8.1 1.4-.2 1.8-.5.8-.8.6-1.5.6-1.4z"/><ellipse fill="#FFF" stroke="#FFF" stroke-miterlimit="10" cx="39.8" cy="40.1" rx="10.2" ry="13.6"/><path fill="#E16250" d="M35 43.6c0 1.2.4 2.1 1.1 2.8.7.7 1.6 1.1 2.7 1.3v-7.1c-.9-.2-1.8-.5-2.5-.8s-1.3-.6-1.7-1-.8-.9-1-1.4-.3-1.2-.3-2 .1-1.5.4-2.2c.3-.7.7-1.3 1.2-1.7.5-.5 1.1-.9 1.7-1.2.7-.3 1.4-.5 2.2-.5V28h1.5v1.8c1.4.2 2.6.7 3.5 1.6.9.9 1.5 2.1 1.8 3.7h-2.3c-.4-1.8-1.4-2.8-3-3.1v6.6l1.6.4c.3.1.8.2 1.2.5.5.2 1 .5 1.4.9.4.4.8.9 1.1 1.5s.5 1.3.5 2.1c0 .9-.1 1.6-.4 2.3-.3.7-.7 1.3-1.2 1.8s-1.1.9-1.8 1.2c-.7.3-1.5.5-2.4.5V52h-1.5v-2.2c-1.8-.2-3.2-.8-4.2-1.9-1.1-1.1-1.7-2.6-1.8-4.4-.1.1 2.2.1 2.2.1zM38.8 32c-.9.1-1.6.4-2.2.9-.6.5-.9 1.3-.9 2.3 0 .5.1.9.2 1.2.2.3.4.6.6.8.3.2.6.4 1 .6.4.2.8.3 1.2.4l.1-6.2zm1.4 15.8c.5 0 1-.1 1.4-.3.4-.2.8-.4 1.1-.6.3-.3.6-.6.7-1 .2-.4.3-.9.3-1.5 0-.5-.1-.9-.3-1.3-.2-.4-.4-.7-.7-.9s-.7-.5-1.1-.6c-.4-.2-.9-.3-1.4-.5v6.7z"/></svg>