<svg xmlns="http://www.w3.org/2000/svg" viewBox="0 0 79 79"><path fill="none" d="M31.9 27h.2c0-.1-.1-.1-.2 0zM19 51.6h-.1.1zM24.1 51.6s-.1 0 0 0c-.1 0 0 0 0 0zM17.6 51.2zM18.3 51.5h-.1c0-.1 0 0 .1 0zM25.5 51.6h-.2.2zM24.7 51.7h0zM36.9 28.1c.1 0 .1.1.2.1-.1-.1-.2-.1-.2-.1zM17 50.8l-.1-.1c0 .1 0 .1.1.1zM23.5 51.5c-.1 0-.1 0-.2-.1.1.1.1.1.2.1zM35 27.2c.1 0 .1 0 .2.1-.1-.1-.1-.1-.2-.1zM63.6 43.6c-.1 0-.1 0 0 0-.1 0-.1 0 0 0zM64.3 43.6s-.1 0 0 0c-.1 0 0 0 0 0zM63.9 43.7zM37.7 28.7c0 .1.1.1 0 0 .1.1 0 .1 0 0zM64.6 43.5s-.1 0 0 0c-.1 0 0 0 0 0zM34 26.9h.2-.2zM33 26.8s0 .1 0 0c.1.1.1.1 0 0 .1.1.1 0 0 0zM38.9 30.4c0 .1.1.1.1.2 0-.1 0-.1-.1-.2zM36 27.6zM38.3 29.5l.1.1s0-.1-.1-.1z"/><path fill="#8BC53F" d="M27.5 45.8c-.1 0-.1 0-.2-.1.1.1.2.1.2.1zM26.5 45.4zM23.6 42.6c0-.1-.1-.1-.1-.2.1 0 .1.1.1.2zM28.6 46h-.2.2zM25.7 44.9c-.1 0-.1-.1-.2-.1.1 0 .1.1.2.1zM24.8 44.2s0-.1 0 0c0-.1 0 0 0 0zM24.2 43.5l-.1-.1s.1 0 .1.1z"/><path fill="#FFF" d="M20.8 42.2c-.4-1.3-.5-2.7-.4-4-1.8.8-2.9 2.5-2.9 4.4-2 1.1-3.1 3.4-2.3 5.7l.3.6s0 .1.1.1l.3.6s0 .1.1.1c.1.2.3.3.4.5l.1.1c.2.2.3.3.5.4l.1.1.6.3c.2.1.4.2.6.2h.1c.2.1.4.1.6.2h.6v-.9c0-1 .8-1.8 1.8-1.8s1.8.8 1.8 1.8v.6c.1 0 .1 0 .2.1.1 0 .1 0 .2.1.2 0 .3.1.5.1H25.7c.2 0 .4-.1.6-.2 1.4-.5 2.5-1.5 3-2.8-4 0-7.3-2.6-8.5-6.3z"/><path fill="#009345" d="M30.6 46h-.2.2zM29.5 46.1zM24 51.6c-.2 0-.3-.1-.5-.1.2 0 .3.1.5.1zM16.9 50.8c-.2-.1-.3-.3-.5-.4.1.1.3.2.5.4zM23.1 51.4c.1 0 .1 0 .2.1 0-.1-.1-.1-.2-.1zM19 51.6h.5c-.1.1-.3.1-.5 0zM17.5 51.2l-.6-.3c.3.1.5.2.6.3zM26.2 51.4c-.2.1-.4.1-.6.2.1 0 .3-.1.6-.2zM18.9 51.6c-.2 0-.4-.1-.6-.2.2.1.4.2.6.2zM18.2 51.4c-.2-.1-.4-.1-.6-.2.2.1.4.2.6.2zM25.3 51.6h-.5c.2.1.4 0 .5 0zM24.7 51.7h-.6c.2-.1.4 0 .6 0z"/><path fill="#8BC53F" d="M23 38z"/><path fill="#009345" d="M38.4 29.6c.2.2.3.5.5.8-.1-.3-.3-.5-.5-.8zM37 28.2c.2.2.5.4.7.6-.2-.3-.5-.5-.7-.6zM37.8 28.8c.2.2.4.4.6.7-.2-.2-.4-.5-.6-.7zM32.1 26.9c.3 0 .6-.1.9-.1-.3.1-.6.1-.9.1zM35.2 27.2c.3.1.6.2.8.3-.2-.1-.5-.2-.8-.3zM34.2 26.9c.3.1.6.1.9.2-.4 0-.6-.1-.9-.2zM33.1 26.9c.3 0 .6 0 .9.1-.3-.1-.6-.1-.9-.1zM36.1 27.6c.3.1.5.3.8.5-.3-.2-.6-.4-.8-.5zM31 27.2c.3-.1.6-.2.9-.2-.3 0-.6.1-.9.2zM39 30.6c.1.3.3.6.4.9-.1-.3-.2-.6-.4-.9zM23.5 42.4c-.1-.3-.3-.6-.4-.9.2.3.3.6.4.9zM25.5 44.8c-.2-.2-.5-.4-.7-.6.3.2.5.4.7.6zM26.5 45.4c-.3-.1-.5-.3-.8-.5.3.2.5.3.8.5zM28.4 46c-.3-.1-.6-.1-.9-.2.3.1.6.2.9.2zM24.8 44.1l-.6-.6.6.6zM28.6 46c.3 0 .6.1.8.1-.3 0-.6 0-.8-.1zM27.3 45.7c-.3-.1-.5-.2-.8-.3.3.1.6.2.8.3zM24.1 43.4c-.2-.2-.3-.5-.5-.8.2.2.3.5.5.8zM30.4 46c-.3 0-.6.1-.9.1.3 0 .6 0 .9-.1zM29.4 46.1zM30.6 46c.1 0 .2 0 .4-.1-.1 0-.3.1-.4.1z"/><path fill="#FFF" d="M30.3 44.5c-.6-.9-.8-1.9-.6-2.9.2-1.1.8-2.1 1.8-2.7l8.2-5.5c0-.6-.1-1.3-.3-1.9-.1-.3-.2-.6-.4-.9 0-.1-.1-.1-.1-.2-.1-.3-.3-.5-.5-.8l-.1-.1c-.2-.2-.4-.4-.6-.7l-.1-.1c-.2-.2-.5-.4-.7-.6 0 0-.1-.1-.2-.1-.3-.2-.5-.3-.8-.5h-.1c-.3-.1-.5-.2-.8-.3-.1 0-.1 0-.2-.1-.3-.1-.6-.2-.9-.2h-.2c-.3 0-.6-.1-.9-.1h-.1c-.3 0-.6 0-.9.1h-.2c-.3.1-.6.1-.9.2-2.8.9-4.6 3.6-4.6 6.4-1 .5-1.8 1.2-2.4 2.1-.5.7-.9 1.5-1 2.3-.3 1.1-.2 2.3.1 3.5.1.3.2.6.4.9 0 .1.1.1.1.2.1.3.3.5.5.8l.1.1.6.6.1.1c.2.2.5.4.7.6.1 0 .1.1.2.1.2.2.5.3.8.5h.1c.3.1.5.2.8.3.1 0 .1 0 .2.1.3.1.6.2.9.2h.2c.3 0 .6.1.8.1h.1c.3 0 .6 0 .9-.1h.2c.1 0 .2-.1.4-.1s.4-.1.5-.1c-.2-.1-.4-.3-.6-.4-.1-.2-.3-.5-.5-.8z"/><path fill="#C5C6C8" d="M41.8 30.7c-1.2-3.8-4.7-6.4-8.7-6.4-.9 0-1.9.1-2.8.4-3.4 1.1-5.7 3.9-6.2 7.3-1.2.9-2.1 2.1-2.8 3.4-.4.1-.8.1-1.2.3-2.6.8-4.4 3-4.9 5.5-2.3 1.9-3.3 5-2.3 7.9 1 3 3.7 5 6.8 5v1.5c0 1 .8 1.8 1.8 1.8s1.8-.8 1.8-1.8V54c.5.1 1.1.2 1.6.2.7 0 1.5-.1 2.2-.3 1.8-.6 3.2-1.8 4.1-3.3v5.2c0 1 .8 1.8 1.8 1.8.7 0 1.3-.4 1.6-1V46.4c-.2 0-.5.1-.7.1-.3 0-.6 0-.9-.1l-.9-.3c-.1-.1-.2-.1-.3-.2-.2.1-.4.1-.5.1-.1 0-.2 0-.4.1h-.2c-.3 0-.6.1-.9.1h-.1c-.3 0-.6 0-.8-.1h-.2c-.3-.1-.6-.1-.9-.2-.1 0-.1 0-.2-.1-.3-.1-.5-.2-.8-.3h-.1c-.3-.1-.5-.3-.8-.5-.1 0-.1-.1-.2-.1-.2-.2-.5-.4-.7-.6l-.1-.1-.6-.6-.1-.1c-.2-.2-.3-.5-.5-.8 0-.1-.1-.1-.1-.2-.1-.3-.3-.6-.4-.9-.4-1.2-.4-2.4-.1-3.5.2-.8.6-1.6 1-2.3.6-.9 1.4-1.6 2.4-2.1 0-2.8 1.8-5.5 4.6-6.4.3-.1.6-.2.9-.2h.2c.3 0 .6-.1.9-.1h.1c.3 0 .6 0 .9.1h.2c.3.1.6.1.9.2.1 0 .1 0 .2.1.3.1.6.2.8.3h.1c.3.1.5.3.8.5.1 0 .1.1.2.1.2.2.5.4.7.6l.1.1c.2.2.4.4.6.7l.1.1c.2.2.3.5.5.8 0 .1.1.1.1.2.1.3.3.6.4.9.2.6.3 1.3.3 1.9l2.4-1.6c-.5-.6-.6-.9-.7-1.3zM29.2 48.6c-.5 1.3-1.6 2.4-3 2.8-.2.1-.4.1-.6.2h-.7-.7-.1c-.2 0-.3-.1-.5-.1-.1 0-.1 0-.2-.1-.1 0-.1 0-.2-.1v-.6c0-1-.8-1.8-1.8-1.8s-1.8.8-1.8 1.8v.9h-.5-.1c-.2 0-.4-.1-.6-.2h-.1c-.2-.1-.4-.1-.6-.2l-.6-.3-.1-.1c-.2-.1-.3-.3-.5-.4l-.1-.1c-.1-.1-.3-.3-.4-.5 0 0 0-.1-.1-.1l-.3-.6s0-.1-.1-.1l-.3-.6c-.7-2.2.3-4.6 2.3-5.7 0-1.9 1.1-3.7 2.9-4.4-.2 1.3-.1 2.6.4 4 1.2 3.6 4.5 6.2 8.4 6.3z"/><path fill="#009345" d="M31 45.9c.2 0 .4-.1.5-.1-.1 0-.3.1-.5.1z"/><path fill="#C5C6C8" d="M37.1 46v10.5c0 .5.4 1 1 1h7.1c.5 0 1-.4 1-1v-8.1h5.2v8.1c0 .5.4 1 1 1h7.1c.5 0 1-.4 1-1V45c0-.3-.2-.6-.4-.8L49.3 37c-.2-.1-.4-.2-.5-.2s-.4.1-.5.2l-2.6 1.7-2.6 1.7-5.5 3.7c-.3.2-.4.5-.4.8l-.1 1.1"/><path fill="#C5C6C8" d="M64.7 41.1l-4.2-2.8V32.4c0-.8-.6-1.4-1.4-1.4h-2.3c-.8 0-1.4.6-1.4 1.4V35l-5.8-3.9c-.2-.2-.5-.2-.8-.2-.3 0-.5.1-.8.2l-4.2 2.8-2.1 1.4-8.8 5.8c-.3.2-.4.4-.5.7-.1.4-.1.8.2 1.2.3.4.7.6 1.2.6.3 0 .5-.1.8-.2l.1-.1 8.4-5.6 2.2-1.4 3.7-2.4 14.3 9.5c.1.1.2.1.3.2H64.4c.1 0 .1 0 .2-.1h.1c.1 0 .1-.1.2-.1 0 0 .1 0 .1-.1l.2-.2c.3-.7.1-1.5-.5-2z"/><path fill="#FFF" d="M49.6 31.1c-.5-.3-1.1-.3-1.5 0 .2-.2.5-.2.8-.2.2 0 .4 0 .7.2zM64.8 43.4c-.1 0-.1.1-.2.1.1-.1.1-.1.2-.1zM64.5 43.5c-.1 0-.1.1-.2.1.1 0 .1 0 .2-.1zM63.9 43.7h-.3c.1-.1.2 0 .3 0zM64.2 43.6h-.3c.1.1.2.1.3 0zM63.5 43.6c-.1 0-.2-.1-.3-.2 0 .1.2.2.3.2z"/><path fill="#C5C6C8" d="M59.4 23.5c-.4-.4-.5-.4-.5-.6 0-.2 0-.2.5-.6.2-.2.4-.3.5-.5.5-.6.4-1.4-.1-1.9-.6-.5-1.4-.4-1.9.1l-.3.3c-.5.5-1.3 1.2-1.3 2.6 0 1.4.8 2.2 1.3 2.6.4.4.5.4.5.6 0 .2 0 .2-.5.6-.2.2-.4.3-.5.5-.3.3-.4.7-.3 1.1 0 .3.2.6.4.8.3.2.6.3.9.3.4 0 .7-.2 1-.5l.3-.3.3-.3c.5-.5 1-1.2 1-2.3 0-1.3-.8-2.1-1.3-2.5z"/></svg>