<svg xmlns="http://www.w3.org/2000/svg" viewBox="0 0 55 55"><path d="M23 47.9c0 .8-.3 1.6-.9 2.2s-1.3.9-2.2.9c-.8 0-1.6-.3-2.2-.9s-.9-1.3-.9-2.2.3-1.6.9-2.2 1.3-.9 2.2-.9c.8 0 1.6.3 2.2.9.6.7.9 1.4.9 2.2zm21.5 0c0 .8-.3 1.6-.9 2.2s-1.3.9-2.2.9-1.6-.3-2.2-.9-.9-1.3-.9-2.2.3-1.6.9-2.2 1.3-.9 2.2-.9 1.6.3 2.2.9c.6.7.9 1.4.9 2.2z" fill="#C6C6C8"/><path d="M47.6 21.8v12.3c0 .4-.1.7-.4 1s-.6.5-1 .5l-25.1 2.9c.2 1 .3 1.5.3 1.7 0 .3-.2.8-.6 1.5h22.1c.4 0 .8.2 1.1.5.3.3.5.7.5 1.1s-.2.8-.5 1.1c-.3.3-.7.5-1.1.5H18.3c-.4 0-.8-.2-1.1-.5-.3-.3-.5-.7-.5-1.1 0-.2.1-.4.2-.8.1-.3.3-.6.4-.9s.3-.6.5-1 .3-.6.4-.7l-4.3-19.8H9c-.4 0-.8-.2-1.1-.5-.3-.3-.5-.7-.5-1.1s.2-.8.5-1.1c.3-.3.7-.5 1.1-.5h6.2c.3 0 .5.1.7.2s.4.2.5.4c.1.1.2.3.3.6.1.2.2.5.2.6s.1.4.1.7c.1.3.1.5.1.6H46c.4 0 .8.2 1.1.5.3.5.5.9.5 1.3z" fill="#C6C6C8"/><path d="M31.6 28c-2.2 0-4.2-.5-6-1.6s-3.3-2.5-4.4-4.4c-1.1-1.8-1.6-3.9-1.6-6s.5-4.2 1.6-6 2.5-3.3 4.4-4.4c1.8-1.1 3.9-1.6 6-1.6 2.2 0 4.2.5 6 1.6S40.9 8.1 42 10c1.1 1.8 1.6 3.9 1.6 6s-.5 4.2-1.6 6-2.5 3.3-4.4 4.4c-1.8 1.1-3.8 1.6-6 1.6z" fill="#FFF"/><circle cx="31.6" cy="16" r="10" fill="#C6C6C8"/><path d="M31.6 27c-6.1 0-11-4.9-11-11s4.9-11 11-11 11 4.9 11 11-4.9 11-11 11zm0-20c-5 0-9 4-9 9s4 9 9 9 9-4 9-9-4-9-9-9z" fill="#FFF"/><path d="M32.8 21.5v1.8h-1.6v-1.7c-1.4-.1-2.5-.5-3.4-1.5l1.4-1.4c.7.7 1.6.9 2.7.9 1.3 0 1.9-.5 1.9-1.4 0-.4-.1-.7-.3-.9-.2-.2-.5-.3-1-.4l-1.3-.2c-.9-.1-1.6-.4-2.1-.9s-.8-1.3-.8-2.2c0-1.7 1.1-3 3-3.3V8.7h1.6v1.6c1.1.1 2 .5 2.8 1.3L34.3 13c-.7-.7-1.5-.8-2.3-.8-1.1 0-1.7.6-1.7 1.4 0 .3.1.6.3.8.2.2.6.4 1 .4l1.3.2c1 .1 1.6.4 2.1.9.6.6.9 1.4.9 2.4-.1 1.7-1.3 2.8-3.1 3.2z" fill="#FFF"/></svg>