<svg xmlns="http://www.w3.org/2000/svg" viewBox="0 0 79 79"><polygon fill="#FFF" points="32.9,52.4 20.3,58.2 20.3,33.7 32.9,27.9"/><path fill="#C5C6C8" d="M20.3 59.2c-.2 0-.4-.1-.5-.2-.3-.2-.5-.5-.5-.8V33.7c0-.4.2-.7.6-.9L32.5 27c.3-.1.7-.1 1 .1s.5.5.5.8v24.5c0 .4-.2.7-.6.9l-12.6 5.9h-.5zm1-24.8v22.3l10.6-4.9V29.4l-10.6 5z"/><polygon fill="#FFF" points="57.8,52.4 45.2,58.2 45.2,33.7 57.8,27.9"/><path fill="#C5C6C8" d="M45.2 59.2c-.2 0-.4-.1-.5-.2-.3-.2-.5-.5-.5-.8V33.7c0-.4.2-.7.6-.9L57.4 27c.3-.1.7-.1 1 .1s.5.5.5.8v24.5c0 .4-.2.7-.6.9l-12.6 5.9h-.5zm1-24.8v22.3l10.6-4.9V29.4l-10.6 5z"/><polygon fill="#FFF" points="32.9,52.4 45.5,58.2 45.5,33.7 32.9,27.9"/><path fill="#C5C6C8" d="M45.5 59.2c-.1 0-.3 0-.4-.1l-12.6-5.9c-.4-.2-.6-.5-.6-.9V27.9c0-.3.2-.7.5-.8.3-.2.6-.2 1-.1L46 32.9c.4.2.6.5.6.9v24.5c0 .3-.2.7-.5.8-.2.1-.4.1-.6.1zm-11.6-7.5l10.6 4.9V34.4l-10.6-4.9v22.2z"/><path fill="#FFF" d="M45.9 27.1c0-4.1-3.3-7.4-7.4-7.4S31 23 31 27.1c0 3 1.7 5.5 4.3 6.7l3.2 8.9 3.2-8.9c2.4-1.1 4.2-3.7 4.2-6.7zM38.5 24c1.8 0 3.2 1.4 3.2 3.2 0 1.8-1.4 3.2-3.2 3.2-1.8 0-3.2-1.4-3.2-3.2 0-1.8 1.4-3.2 3.2-3.2z"/><path fill="#C5C6C8" d="M38.5 43.7c-.4 0-.8-.3-.9-.7l-3-8.5c-2.7-1.5-4.5-4.3-4.5-7.4 0-4.6 3.8-8.4 8.4-8.4s8.4 3.8 8.4 8.4c0 3.1-1.7 6-4.5 7.4l-3 8.5c-.1.4-.5.7-.9.7zm0-23c-3.5 0-6.4 2.9-6.4 6.4 0 2.5 1.5 4.8 3.7 5.8.2.1.4.3.5.6l2.2 6.2 2.2-6.2c.1-.2.3-.5.5-.6 2.2-1.1 3.7-3.3 3.7-5.8 0-3.5-2.9-6.4-6.4-6.4zm0 10.6c-2.3 0-4.2-1.9-4.2-4.2s1.9-4.2 4.2-4.2 4.2 1.9 4.2 4.2-1.9 4.2-4.2 4.2zm0-6.3c-1.2 0-2.2 1-2.2 2.2s1 2.2 2.2 2.2 2.2-1 2.2-2.2-1-2.2-2.2-2.2zM33.3 50.8l-1.4-1.5.7-.7 1.3 1.5-.6.7zm2.2-.4l-.5-.9 1.7-1 .5.9-1.7 1zm3.5-2l-.5-.9 1.7-1 .5.9-1.7 1zm-8.4-.6l-1.4-1.5.7-.7 1.4 1.5-.7.7zm19.9-.1l-1.7-1 .5-.9 1.7 1-.5.9zm-8-1.3l-.5-.9 1.7-1 .5.9-1.7 1zm4.6-.8l-1.7-1 .5-.9 1.7 1-.5.9zm-19.2-.7l-1.4-1.5.7-.7 1.4 1.5-.7.7z"/><ellipse transform="rotate(-29.346 25.313 41.35)" fill="#C5C6C8" cx="25.3" cy="41.4" rx="1.4" ry="1"/><ellipse transform="rotate(-29.362 53.08 48.48)" fill="#C5C6C8" cx="53.1" cy="48.5" rx="1.4" ry="1"/></svg>