<svg xmlns="http://www.w3.org/2000/svg" viewBox="0 0 79 79"><path fill="none" d="M62.4 50.9zM62 51.4c-.1.1-.1.1 0 0-.1.1-.1.1 0 0zM59.4 52.8h-.1.1zM52.9 52.8h-.2.2zM61.4 51.9l-.1.1.1-.1zM60.1 52.6H60h.1zM45.2 28zM60.7 52.3s0 .1 0 0c0 .1 0 0 0 0zM44.1 28.1h.2-.2zM55 52.6c-.1 0-.1 0-.2.1 0-.1.1-.1.2-.1zM53.5 52.8c.1 0 .1 0 0 0h-.1.1zM54.3 52.8s-.1 0 0 0c-.1 0 0 0 0 0zM46.2 28.1h.2-.2z"/><path fill="#8BC53F" d="M49.9 47.2h-.2.2zM54.8 43.6c0 .1-.1.1-.1.2 0-.1 0-.2.1-.2zM51.8 46.5c0 .1 0 .1 0 0 0 .1 0 .1 0 0zM52.7 46c-.1 0-.1.1-.2.1.1-.1.2-.1.2-.1zM50.9 46.9c-.1 0-.1 0-.2.1.1-.1.2-.1.2-.1zM53.5 45.3zM54.2 44.5l-.1.1.1-.1z"/><path fill="#FFF" d="M57.5 43.4c-1.2 3.7-4.5 6.2-8.4 6.4.5 1.3 1.6 2.4 3 2.8.2.1.4.1.6.2h1.6c.2 0 .3-.1.5-.1.1 0 .1 0 .2-.1.1 0 .1 0 .2-.1V52c0-1 .8-1.8 1.8-1.8s1.8.8 1.8 1.8v.9h.6c.2 0 .4-.1.6-.2h.1c.2-.1.4-.1.6-.2l.6-.3.1-.1c.2-.1.3-.3.5-.4l.1-.1c.1-.1.3-.3.4-.5 0 0 0-.1.1-.1l.3-.6s0-.1.1-.1l.3-.6c.7-2.2-.3-4.6-2.3-5.7 0-1.9-1.1-3.7-2.9-4.4 0 1.2-.1 2.5-.5 3.8z"/><path fill="#009345" d="M48.8 47.3zM47.9 47.2h-.2.2zM53.4 52.8h-.5.5zM54.2 52.8h-.6.6zM52.8 52.8c-.2 0-.4-.1-.6-.2.1.1.3.1.6.2zM54.8 52.7c-.2 0-.3.1-.5.1.2-.1.3-.1.5-.1zM60 52.6c-.2.1-.4.1-.6.2.2 0 .4-.1.6-.2zM55 52.6c.1 0 .1 0 .2-.1-.1.1-.2.1-.2.1zM60.7 52.4c-.2.1-.4.2-.6.2.2-.1.4-.1.6-.2zM61.9 51.5c-.2.2-.3.3-.5.4.2-.1.4-.2.5-.4zM61.3 52l-.6.3.6-.3zM58.7 52.9h.5c-.1-.1-.3-.1-.5 0zM62.4 51c-.1.2-.3.3-.4.5.1-.2.2-.4.4-.5zM62.8 50.3l-.3.6.3-.6z"/><path fill="#FFF" d="M55.3 39.1c-.2-.8-.6-1.6-1-2.3-.6-.9-1.4-1.6-2.4-2.1 0-2.8-1.8-5.5-4.6-6.4-.3-.1-.6-.2-.9-.2h-.2c-.3 0-.6-.1-.9-.1h-.1c-.3 0-.6 0-.9.1h-.2c-.1 0-.2.1-.4.1v16.1c.2-.8.9-1.3 1.7-1.3.9 0 1.6.7 1.8 1.5V47.1c.1 0 .2.1.4.1h.2c.3 0 .6.1.9.1h.1c.3 0 .6 0 .8-.1h.2c.3-.1.6-.1.9-.2.1 0 .1 0 .2-.1.3-.1.5-.2.8-.3h.1c.3-.1.5-.3.8-.5.1 0 .1-.1.2-.1.2-.2.5-.4.7-.6l.1-.1.6-.6.1-.1c.2-.2.3-.5.5-.8 0-.1.1-.1.1-.2.1-.3.3-.6.4-.9.2-1.2.2-2.4 0-3.6"/><path fill="#009345" d="M44.1 28.1c-.1 0-.3 0-.4.1.2 0 .3-.1.4-.1zM44.3 28.1c.3 0 .6-.1.9-.1-.3 0-.6 0-.9.1zM46.4 28.1c.3.1.6.1.9.2-.3-.1-.6-.1-.9-.2zM45.3 28c.3 0 .6 0 .9.1-.3-.1-.6-.1-.9-.1zM53.4 45.4c-.2.2-.5.4-.7.6.3-.2.5-.4.7-.6zM55.1 42.6c-.1.3-.2.6-.4.9.2-.2.3-.5.4-.9zM51.7 46.6c-.3.1-.5.2-.8.3.3-.1.6-.2.8-.3zM54.1 44.6l-.6.6c.2-.1.4-.3.6-.6zM54.7 43.7c-.1.3-.3.5-.5.8.2-.2.3-.5.5-.8zM50.8 47c-.3.1-.6.2-.9.2.3-.1.6-.1.9-.2zM52.6 46.1c-.2.2-.5.3-.8.5.3-.2.5-.4.8-.5zM48.9 47.3c.3 0 .6 0 .8-.1-.3 0-.5.1-.8.1zM48.8 47.3c.1 0 .1 0 0 0 .1 0 .1 0 0 0 .1 0 .1 0 0 0zM48.8 47.3c-.3 0-.6 0-.9-.1.3 0 .6.1.9.1zM47.3 47.1c.1 0 .2 0 .4.1-.2-.1-.3-.1-.4-.1z"/><path fill="#C5C6C8" d="M18.1 21.1h21.6c.8 0 1.4-.6 1.4-1.4 0-.8-.6-1.4-1.4-1.4H18.1c-.8 0-1.4.6-1.4 1.4.1.8.7 1.4 1.4 1.4zM39.7 22.8H18.2c-.7 0-1.4.6-1.4 1.4v33.2c0 .7.6 1.4 1.4 1.4h6.2c.7 0 1.4-.6 1.4-1.4v-8.6h6.3v8.6c0 .7.6 1.4 1.4 1.4h6.2c.7 0 1.4-.6 1.4-1.4V24.2c0-.8-.7-1.4-1.4-1.4zm-9.4 6.8c0-.6.5-1.1 1.1-1.1H35c.6 0 1.1.5 1.1 1.1v4.3c0 .6-.5 1.1-1.1 1.1h-3.6c-.6 0-1.1-.5-1.1-1.1v-4.3zm-2.7 13.3c0 .6-.5 1.1-1.1 1.1h-3.6c-.6 0-1.1-.5-1.1-1.1v-4.3c0-.6.5-1.1 1.1-1.1h3.6c.6 0 1.1.5 1.1 1.1v4.3zm0-9c0 .6-.5 1.1-1.1 1.1h-3.6c-.6 0-1.1-.5-1.1-1.1v-4.3c0-.6.5-1.1 1.1-1.1h3.6c.6 0 1.1.5 1.1 1.1v4.3zm8.5 9c0 .3-.1.5-.3.7-.2.2-.5.4-.8.4h-3.7c-.6 0-1.1-.5-1.1-1.1v-4.3c0-.6.5-1.1 1.1-1.1H34.9c.3 0 .5.1.7.3.2.2.4.5.4.8l.1 4.3z"/><path fill="#FFF" d="M26.5 28.5h-3.6c-.6 0-1.1.5-1.1 1.1v4.3c0 .6.5 1.1 1.1 1.1h3.6c.6 0 1.1-.5 1.1-1.1v-4.3c0-.6-.5-1.1-1.1-1.1zM26.5 37.5h-3.6c-.6 0-1.1.5-1.1 1.1v4.3c0 .6.5 1.1 1.1 1.1h3.6c.6 0 1.1-.5 1.1-1.1v-4.3c0-.6-.5-1.1-1.1-1.1z"/><path fill="#C5C6C8" d="M63.2 42.4c-.5-2.6-2.3-4.7-4.9-5.5l-1.2-.3c-.6-1.3-1.6-2.5-2.8-3.4-.5-3.4-2.9-6.3-6.2-7.3-.9-.3-1.9-.4-2.8-.4-.5 0-1 0-1.5.1v2.6c.1 0 .2-.1.4-.1h.2c.3 0 .6-.1.9-.1h.1c.3 0 .6 0 .9.1h.2c.3.1.6.1.9.2 2.8.9 4.6 3.6 4.6 6.4 1 .5 1.8 1.2 2.4 2.1.5.7.9 1.5 1 2.3.3 1.1.2 2.3-.2 3.5-.1.3-.2.6-.4.9 0 .1-.1.1-.1.2-.1.3-.3.5-.5.8l-.1.1-.6.6-.1.1c-.2.2-.5.4-.7.6-.1 0-.1.1-.2.1-.2.2-.5.3-.8.5h-.1c-.3.1-.5.2-.8.3-.1 0-.1 0-.2.1-.3.1-.6.2-.9.2h-.2c-.3 0-.6.1-.8.1h-.1c-.3 0-.6 0-.9-.1h-.2c-.1 0-.2 0-.4-.1v-2.3-.3c-.1-.9-.9-1.5-1.8-1.5-.8 0-1.5.6-1.7 1.3v13c.2.8.9 1.3 1.7 1.3 1 0 1.8-.8 1.8-1.8v-5.2c.9 1.5 2.3 2.7 4.1 3.3.7.2 1.5.3 2.2.3.5 0 1.1-.1 1.6-.2v1.7c0 1 .8 1.8 1.8 1.8s1.8-.8 1.8-1.8v-1.5c3.1-.1 5.8-2.1 6.8-5 1-2.7.1-5.8-2.2-7.7zm-.1 7.1c-.1.3-.1.5-.3.7 0 0 0 .1-.1.1l-.3.6s0 .1-.1.1c-.1.2-.3.3-.4.5l-.1.1c-.2.2-.3.3-.5.4l-.1.1-.6.3c-.2.1-.4.2-.6.2h-.1c-.2.1-.4.1-.6.2h-.6V52c0-1-.8-1.8-1.8-1.8s-1.8.8-1.8 1.8v.6c-.1 0-.1 0-.2.1-.1 0-.1 0-.2.1-.2 0-.3.1-.5.1h-.7-.1-.8c-.2 0-.4-.1-.6-.2-1.4-.5-2.5-1.5-3-2.8 3.9-.1 7.2-2.7 8.4-6.4.4-1.3.5-2.7.4-4 1.8.8 2.9 2.5 2.9 4.4 2.1 1 3.1 3.4 2.4 5.6z"/></svg>