<svg xmlns="http://www.w3.org/2000/svg" viewBox="0 0 79 79"><path fill="#FFF" d="M26.4 40.3c-1.6 1.2-3 2.8-4 4.2-.5.8-1.4 1.3-2.4 1.3-.3 0-.5 0-.8-.1-1.2-.3-2.1-1.4-2.1-2.6-.1-2.1.1-4 .7-5.7-1.7 1.2-2.9 3.1-3.2 5.3 0 .3-.2.6-.5.7-.3.2-.6.2-.9 0-.5-.2-1.1-.4-1.7-.4-2 0-3.8 1.4-4.2 3.4h18.9c-.1-1.8-.1-4 .2-6.1z"/><path fill="#C5C6C8" d="M26.5 47.4c-.1-.3-.1-.7-.2-1H7.4c.4-1.9 2.1-3.4 4.2-3.4.6 0 1.2.1 1.7.4.3.1.6.1.9 0 .3-.2.5-.4.5-.7.3-2.2 1.5-4.1 3.2-5.3.2-.6.4-1.1.7-1.6.3-.5.5-1 .9-1.4-3.1 1-5.6 3.6-6.4 6.9-.4-.1-.9-.1-1.4-.1-3.5 0-6.3 2.8-6.3 6.3v.1c0 .5.5 1 1 1h20.4c-.2-.5-.3-.8-.3-1.2z"/><path fill="#FFF" d="M50.5 31.1c.1.2.1.5.1.7 0 1-.5 1.8-1.2 2.3.9.1 1.8.4 2.6.8 1.5-1.2 3.5-1.9 5.7-1.9 2.1 0 4.1.7 5.5 1.9.4.3.6.8.8 1.3h5.4c-.4-2.6-2.7-4.5-5.3-4.5-.8 0-1.5.2-2.2.5-.3.1-.6.1-.9 0-.3-.2-.5-.4-.5-.7-.7-4.8-4.8-8.5-9.7-8.5-2.4 0-4.7.9-6.4 2.4 3.1.9 5.6 3 6.1 5.7z"/><path fill="#C5C6C8" d="M64 29.8c-.6 0-1.2.1-1.8.2-1.3-5.2-6-9-11.5-9-3.5 0-6.6 1.5-8.8 4 .4 0 .8.1 1.2.1l1.2.3c1.7-1.5 4-2.4 6.4-2.4 4.9 0 9.1 3.7 9.7 8.5 0 .3.2.6.5.7.3.2.6.2.9 0 .7-.3 1.4-.5 2.2-.5 2.7 0 4.9 2 5.3 4.5h-5.4c.1.3.1.7 0 1 0 .2 0 .3-.1.5s-.1.4-.2.5h6.7c.5 0 1-.5 1-1v-.1c.1-4-3.3-7.3-7.3-7.3zM53.2 51.4c-.2-.2-.4-.5-.6-.7l-.3-.3c-.2-.2-.4-.5-.5-.7-.2-.3-.4-.5-.6-.8-.5 2.4-1.4 5.1-3.2 7.8-.1.2-.2.5 0 .7s.4.4.6.4h3.1c.3 0 .5-.2.6-.4.1-.2 1.1-2.3 1.6-5.3l-.7-.7zM38.9 48.4c-.1-.3-.2-.6-.3-1-.2-.8-.4-1.7-.5-2.5l-.3-2.1c0-.5-.1-.9-.1-1.3 0-.1-.1-.1-.1-.2-.1.3-.3.7-.4 1-.1.2-.2.5-.4.7 0 .1-.1.1-.1.2-.2.3-.3.6-.5.9-.1.1-.2.2-.2.4-.3.5-.7 1-1 1.4-.1.2-.3.3-.4.5-.2.2-.4.5-.6.7v.3c0 .3.1.7.1 1 .6 5.1 2.3 8.7 2.5 9 .2.3.5.6.9.6h4.4c.6 0 1-.4 1-1 0-.3-.1-.5-.3-.7-1.7-2.6-2.9-5.3-3.7-7.9z"/><g><path fill="#C5C6C8" d="M61.4 41.3c-1.2-1.2-2.8-2-4.6-2.1.4-.3 1-.6 1.8-.9.9-.3 1.9-.6 2.9-.7.2 0 .3-.1.4-.3l.1-.1c.1-.2 0-.5-.2-.7-.1-.1-.2-.1-.3-.2-1-.7-2.3-1.2-3.8-1.2s-3 .4-4.1 1.2c-.4.3-.8.6-1.1 1-.1.1-.2.2-.2.3-.1-.1-.3-.2-.4-.3-.6-.5-1.4-.8-2.2-1-.5-.1-1-.2-1.6-.2-.6 0-1.1.1-1.7.2h-.2c.1.3.2.6.3.8v.2c.1.3.2.7.3 1 .1.4.2.8.2 1.2.7 0 1.4.2 2.1.6-.8.3-1.5.7-2 1.1 0 2.3-.7 4.6-1.9 6.6.3 1.1.8 2.2 1.5 3.1.1.1.3.2.5.2.1 0 .2 0 .3-.1.3-.1.4-.4.4-.7-.4-2.9 1.6-6.2 3.2-7.4 0 .7.2 1.3.3 1.9.2.6.4 1.2.6 1.7.4.7.8 1.3 1.2 1.9.2.3.5.6.7.9.5.6 1 1.1 1.5 1.6.1.1.3.2.4.2h.2c.2-.1.4-.2.4-.4.6-2.2.3-6.1-.7-8.3 2 .7 4.7 2.9 6.2 5.1.1.2.3.3.5.3h.2c.3-.1.4-.3.5-.6.3-2.4-.4-4.4-1.7-5.9z"/><path fill="#C5C6C8" d="M44.8 38.3c0-.2-.1-.3-.1-.5-.1-.2-.1-.4-.2-.5 0-.1 0-.1-.1-.2-.1-.3-.3-.6-.5-.8-.2-.3-.4-.5-.6-.8-.9-1.1-2.2-2.1-4.1-2.7 1.3-.7 2.3-1 3.5-1 1.2 0 2.5.3 4.6.9h.3c.5 0 .9-.4.9-.9v-.3c-.3-2.2-2.7-4-5.8-4.5H40.4c-2.1.1-3.9.8-5.4 2.1-1.6-2.2-4.5-3.5-7.8-3.5-2.4 0-4.6.7-6 2-.3.2-.4.6-.3.9.1.3.4.6.7.6 2.9.4 5.5 1.3 6.8 2.3-2.3.2-4.4 1-6 2.4-.2.2-.5.4-.7.6-.1.1-.2.3-.4.4-.3.4-.6.8-.8 1.2-1.1 1.9-1.6 4.2-1.5 6.9 0 .4.3.7.7.8h.2c.3 0 .6-.1.8-.4 1.5-2.3 4-4.6 6.4-6.1.3-.2.6-.4.9-.5.3-.2.7-.3 1-.5l.6-.3-.3.6c-.1.3-.3.7-.4 1l-.3 1.2c-.6 2.5-.7 5.3-.4 7.5 0 .4.1.7.2 1 0 .2.1.4.1.5.1.2.2.4.3.5.1.1.2.1.3.2h.2c.2 0 .4-.1.5-.2 0 0 .1 0 .1-.1l.9-.9c.3-.3.6-.7.9-1 .7-.7 1.4-1.6 2-2.5.2-.2.3-.5.5-.7.2-.3.3-.6.5-.9.1-.1.1-.3.2-.4.1-.2.2-.4.3-.5.4-1 .7-2 .9-3.1.1-.3.1-.7.1-1v-.3l.3.3h.1c.3.2.6.5.9.8 0 0 .1.1.1.2 1.9 2.2 3.7 5.9 3.2 9.3-.1.4.2.8.5.9.1.1.2.1.4.1.3 0 .5-.1.7-.3.2-.2.4-.5.6-.8l.9-1.5c.6-1.3 1-2.6 1.1-4 0-.4.1-.9 0-1.3 0-.3 0-.7-.1-1 .2-.3.1-.7-.1-1.2z"/></g></svg>