<svg xmlns="http://www.w3.org/2000/svg" viewBox="0 0 79 79"><path fill="#FFC744" d="M39.5 58.5c-7.4 0-13.4-6-13.4-13.3 0-7.4 6-13.4 13.4-13.4s13.4 6 13.4 13.4c0 7.3-6 13.3-13.4 13.3zm0-23.7c-5.7 0-10.4 4.6-10.4 10.4 0 5.7 4.6 10.4 10.4 10.4 5.7 0 10.4-4.6 10.4-10.3 0-5.8-4.7-10.5-10.4-10.5z"/><polygon fill="#E3DFC6" points="38.2,22 36.1,22 32.1,26 36.7,26"/><path fill="#498D91" d="M36.7 26.5h-4.6c-.2 0-.4-.1-.5-.3-.1-.2 0-.4.1-.5l4-4c.1-.1.2-.1.4-.1h2.1c.2 0 .3.1.4.2.1.1.1.3.1.5l-1.5 4c-.1 0-.3.2-.5.2zm-3.4-1h3l1.1-3h-1.2l-2.9 3z"/><polygon fill="#FFF" points="46.9,26 42.9,22 40.8,22 42.3,26"/><path fill="#498D91" d="M46.9 26.5h-4.6c-.2 0-.4-.1-.5-.3l-1.5-4c-.1-.2 0-.3.1-.5.1-.1.2-.2.4-.2h2.1c.1 0 .3.1.4.1l4 4c.1.1.2.4.1.5-.1.2-.3.4-.5.4zm-4.2-1h3l-3-3h-1.2l1.2 3z"/><polygon fill="#E3DFC6" points="32.1,26 39.5,33.3 36.7,26"/><path fill="#498D91" d="M39.5 33.8c-.1 0-.3 0-.4-.1l-7.4-7.4c-.1-.1-.2-.4-.1-.5.1-.2.3-.3.5-.3h4.6c.2 0 .4.1.5.3l2.8 7.4c.1.2 0 .5-.2.6h-.3zm-6.2-7.3l4.9 4.9-1.9-4.9h-3z"/><g><polygon fill="#FFF" points="42.3,26 39.5,33.3 46.9,26"/><path fill="#498D91" d="M39.5 33.8c-.1 0-.2 0-.3-.1-.2-.1-.3-.4-.2-.6l2.8-7.4c.1-.2.3-.3.5-.3h4.6c.2 0 .4.1.5.3s0 .4-.1.5l-7.4 7.4c-.1.2-.3.2-.4.2zm3.2-7.3l-1.9 4.9 4.9-4.9h-3z"/></g><g><polygon fill="#FFF" points="42.3,26 40.8,22 38.2,22 36.7,26"/><path fill="#498D91" d="M42.3 26.5h-5.6c-.2 0-.3-.1-.4-.2-.1-.1-.1-.3-.1-.5l1.5-4c.1-.2.3-.3.5-.3h2.6c.2 0 .4.1.5.3l1.5 4c.1.2 0 .3-.1.5-.1.1-.2.2-.4.2zm-4.9-1h4.2l-1.1-3h-1.9l-1.2 3z"/></g><g><polygon fill="#E3DFC6" points="36.7,26 39.5,33.3 42.3,26"/><path fill="#498D91" d="M39.5 33.8c-.2 0-.4-.1-.5-.3l-2.8-7.4c-.1-.2 0-.3.1-.5.1-.1.2-.2.4-.2h5.6c.2 0 .3.1.4.2.1.1.1.3.1.5L40 33.5c-.1.2-.3.3-.5.3zm-2.1-7.3l2.1 5.5 2.1-5.5h-4.2z"/></g></svg>