<svg xmlns="http://www.w3.org/2000/svg" xmlns:xlink="http://www.w3.org/1999/xlink" viewBox="0 0 79 79"><path fill="#C6C6C6" d="M46.2 32.4c-4.5-4.5-15.6-6-15.6-6l-3.2 3.2s10.7 2.7 14.8 6.8S49 51.2 49 51.2l3.2-3.2c0 .1-1.5-11.1-6-15.6z"/><path fill="#C6C6C6" d="M48.5 53.2l-.4-1.7c0-.1-2.7-10.5-6.6-14.3-3.9-3.9-14.2-6.5-14.3-6.6l-1.7-.4 4.8-4.8.5.1c.5.1 11.5 1.6 16.2 6.3 4.7 4.7 6.2 15.7 6.3 16.2l.1.5-4.9 4.7zM29.3 29.1c3.2 1 10.3 3.3 13.6 6.6 3.3 3.3 5.7 10.4 6.6 13.6l1.6-1.6c-.3-2.1-1.9-10.9-5.6-14.6-3.7-3.7-12.4-5.3-14.6-5.6l-1.6 1.6z"/><path fill="#C6C6C6" d="M57.9 20.7c-.4-.4-1-.8-2-.8-4.2 0-12.7 8.3-14.4 10-3 3-5.5 6-7.3 8.5l-1.9-.5-3.7 3.7 3.1 1.6c-.3 1.2-.2 2.2.7 3 .4.4 1 .8 2 .8.3 0 .7-.1 1-.2l1.6 3.1 3.7-3.7-.5-2c3.7-2.6 7.5-6.3 8.5-7.3 3.1-3.1 5.8-6.3 7.7-9 1.6-2.3 3.3-5.4 1.5-7.2zM34.3 45.1c-.3 0-.5-.1-.6-.2-.1-.1-.2-.4-.2-.7l.6.3.2.6c.1 0 .1 0 0 0zm13-9.4c-2.7 2.7-5.4 5-7.6 6.7l-.2-.9-5.2 2.9 2.9-5.2-.9-.2c1.7-2.3 4-4.9 6.7-7.6 5.5-5.5 10.9-9.4 12.9-9.4.3 0 .5.1.6.2 1.2 1.1-2.9 7.2-9.2 13.5z"/><ellipse transform="rotate(-45 45.112 33.495)" fill="#C6C6C6" cx="45.1" cy="33.5" rx="16.1" ry="3.1"/><defs><ellipse id="a" transform="rotate(-45 45.112 33.495)" cx="45.1" cy="33.5" rx="16.1" ry="3.1"/></defs><clipPath id="b"><use xlink:href="#a" overflow="visible"/></clipPath><polygon clip-path="url(#b)" fill="#C6C6C6" points="57.7,20.9 57.7,20.9 32.5,46.1 32.5,20.9"/><defs><ellipse id="c" cx="45.1" cy="33.5" rx="3.1" ry="16.1"/></defs><clipPath id="d"><use xlink:href="#c" overflow="visible"/></clipPath><defs><ellipse id="e" cx="45.1" cy="33.5" rx="3.1" ry="16.1"/></defs><clipPath id="f"><use xlink:href="#e" overflow="visible"/></clipPath><polygon clip-path="url(#f)" fill="#C6C6C6" points="32.5,46.1 57.7,20.9 57.7,20.9"/><defs><ellipse id="g" cx="45.1" cy="33.5" rx="3.1" ry="16.1"/></defs><clipPath id="h"><use xlink:href="#g" overflow="visible"/></clipPath><polygon clip-path="url(#h)" fill="#C6C6C6" points="57.7,20.9 32.5,46.1 32.5,46.1"/><defs><ellipse id="i" cx="45.1" cy="33.5" rx="3.1" ry="16.1"/></defs><clipPath id="j"><use xlink:href="#i" overflow="visible"/></clipPath><defs><ellipse id="k" cx="45.1" cy="33.5" rx="3.1" ry="16.1"/></defs><clipPath id="l"><use xlink:href="#k" overflow="visible"/></clipPath><polygon clip-path="url(#l)" fill="#C6C6C6" points="32.5,46.1 57.7,20.9 57.7,20.9"/><defs><ellipse id="m" cx="45.1" cy="33.5" rx="3.1" ry="16.1"/></defs><clipPath id="n"><use xlink:href="#m" overflow="visible"/></clipPath><defs><ellipse id="o" cx="45.1" cy="33.5" rx="3.1" ry="16.1"/></defs><clipPath id="p"><use xlink:href="#o" overflow="visible"/></clipPath><polygon clip-path="url(#p)" fill="#C6C6C6" points="32.5,46.1 57.7,20.9 57.7,20.9"/><defs><ellipse id="q" cx="45.1" cy="33.5" rx="3.1" ry="16.1"/></defs><clipPath id="r"><use xlink:href="#q" overflow="visible"/></clipPath><polygon clip-path="url(#r)" fill="#C6C6C6" points="32.5,46.1 57.7,20.9 57.7,20.9"/><defs><ellipse id="s" cx="45.1" cy="33.5" rx="3.1" ry="16.1"/></defs><clipPath id="t"><use xlink:href="#s" overflow="visible"/></clipPath><polygon clip-path="url(#t)" fill="#C6C6C6" points="32.5,46.1 57.7,20.9 57.7,20.9"/><defs><ellipse id="u" cx="45.1" cy="33.5" rx="3.1" ry="16.1"/></defs><clipPath id="v"><use xlink:href="#u" overflow="visible"/></clipPath><defs><ellipse id="w" cx="45.1" cy="33.5" rx="3.1" ry="16.1"/></defs><clipPath id="x"><use xlink:href="#w" overflow="visible"/></clipPath><polygon clip-path="url(#x)" fill="#C6C6C6" points="32.5,46.1 57.7,20.9 57.7,20.9"/><defs><ellipse id="y" cx="45.1" cy="33.5" rx="3.1" ry="16.1"/></defs><clipPath id="z"><use xlink:href="#y" overflow="visible"/></clipPath><defs><ellipse id="A" cx="45.1" cy="33.5" rx="3.1" ry="16.1"/></defs><clipPath id="B"><use xlink:href="#A" overflow="visible"/></clipPath><polygon clip-path="url(#B)" fill="#C6C6C6" points="32.5,46.1 57.7,20.9 57.7,20.9"/><defs><ellipse id="C" cx="45.1" cy="33.5" rx="3.1" ry="16.1"/></defs><clipPath id="D"><use xlink:href="#C" overflow="visible"/></clipPath><polygon clip-path="url(#D)" fill="#C6C6C6" points="32.5,46.1 57.7,20.9 57.7,20.9"/><defs><ellipse id="E" cx="45.1" cy="33.5" rx="3.1" ry="16.1"/></defs><clipPath id="F"><use xlink:href="#E" overflow="visible"/></clipPath><defs><ellipse id="G" cx="45.1" cy="33.5" rx="3.1" ry="16.1"/></defs><clipPath id="H"><use xlink:href="#G" overflow="visible"/></clipPath><polygon clip-path="url(#H)" fill="#C6C6C6" points="32.5,46.1 57.7,20.9 57.7,20.9"/><defs><ellipse id="I" cx="45.1" cy="33.5" rx="3.1" ry="16.1"/></defs><clipPath id="J"><use xlink:href="#I" overflow="visible"/></clipPath><defs><ellipse id="K" cx="45.1" cy="33.5" rx="3.1" ry="16.1"/></defs><clipPath id="L"><use xlink:href="#K" overflow="visible"/></clipPath><polygon clip-path="url(#L)" fill="#C6C6C6" points="32.6,46.1 57.7,20.9 57.7,20.9"/><defs><ellipse id="M" cx="45.1" cy="33.5" rx="3.1" ry="16.1"/></defs><clipPath id="N"><use xlink:href="#M" overflow="visible"/></clipPath><polygon clip-path="url(#N)" fill="#C6C6C6" points="32.6,46.1 57.7,20.9 57.7,20.9"/><defs><ellipse id="O" cx="45.1" cy="33.5" rx="3.1" ry="16.1"/></defs><clipPath id="P"><use xlink:href="#O" overflow="visible"/></clipPath><polygon clip-path="url(#P)" fill="#C6C6C6" points="32.6,46.1 57.7,20.9 57.7,20.9"/><defs><ellipse id="Q" cx="45.1" cy="33.5" rx="3.1" ry="16.1"/></defs><clipPath id="R"><use xlink:href="#Q" overflow="visible"/></clipPath><defs><ellipse id="S" cx="45.1" cy="33.5" rx="3.1" ry="16.1"/></defs><clipPath id="T"><use xlink:href="#S" overflow="visible"/></clipPath><polygon clip-path="url(#T)" fill="#C6C6C6" points="32.6,46.1 57.7,20.9 57.7,20.9"/><defs><ellipse id="U" cx="45.1" cy="33.5" rx="3.1" ry="16.1"/></defs><clipPath id="V"><use xlink:href="#U" overflow="visible"/></clipPath><g><defs><ellipse id="W" cx="45.1" cy="33.5" rx="3.1" ry="16.1"/></defs><clipPath id="X"><use xlink:href="#W" overflow="visible"/></clipPath><polygon clip-path="url(#X)" fill="#C6C6C6" points="32.6,46.1 57.7,20.9 57.7,20.9"/></g><g><defs><ellipse id="Y" cx="45.1" cy="33.5" rx="3.1" ry="16.1"/></defs><clipPath id="Z"><use xlink:href="#Y" overflow="visible"/></clipPath><polygon clip-path="url(#Z)" fill="#C6C6C6" points="32.6,46.1 57.7,20.9 57.7,20.9"/></g><g><defs><ellipse id="aa" cx="45.1" cy="33.5" rx="3.1" ry="16.1"/></defs><clipPath id="ab"><use xlink:href="#aa" overflow="visible"/></clipPath></g><g><defs><ellipse id="ac" cx="45.1" cy="33.5" rx="3.1" ry="16.1"/></defs><clipPath id="ad"><use xlink:href="#ac" overflow="visible"/></clipPath><polygon clip-path="url(#ad)" fill="#C6C6C6" points="32.6,46.1 57.7,20.9 57.7,20.9"/></g><g><defs><ellipse id="ae" cx="45.1" cy="33.5" rx="3.1" ry="16.1"/></defs><clipPath id="af"><use xlink:href="#ae" overflow="visible"/></clipPath></g><g><defs><ellipse id="ag" cx="45.1" cy="33.5" rx="3.1" ry="16.1"/></defs><clipPath id="ah"><use xlink:href="#ag" overflow="visible"/></clipPath><polygon clip-path="url(#ah)" fill="#C6C6C6" points="32.6,46.1 57.7,20.9 57.7,20.9"/></g><g><defs><ellipse id="ai" cx="45.1" cy="33.5" rx="3.1" ry="16.1"/></defs><clipPath id="aj"><use xlink:href="#ai" overflow="visible"/></clipPath><polygon clip-path="url(#aj)" fill="#C6C6C6" points="32.6,46.1 57.7,21 57.7,21"/></g><g><defs><ellipse id="ak" cx="45.1" cy="33.5" rx="3.1" ry="16.1"/></defs><clipPath id="al"><use xlink:href="#ak" overflow="visible"/></clipPath><polygon clip-path="url(#al)" fill="#C6C6C6" points="32.6,46.1 57.7,21 57.7,21"/></g><g><defs><ellipse id="am" cx="45.1" cy="33.5" rx="3.1" ry="16.1"/></defs><clipPath id="an"><use xlink:href="#am" overflow="visible"/></clipPath></g><g><defs><ellipse id="ao" cx="45.1" cy="33.5" rx="3.1" ry="16.1"/></defs><clipPath id="ap"><use xlink:href="#ao" overflow="visible"/></clipPath><polygon clip-path="url(#ap)" fill="#C6C6C6" points="32.6,46.1 57.7,21 57.7,21"/></g><g><defs><ellipse id="aq" cx="45.1" cy="33.5" rx="3.1" ry="16.1"/></defs><clipPath id="ar"><use xlink:href="#aq" overflow="visible"/></clipPath></g><g><defs><ellipse id="as" cx="45.1" cy="33.5" rx="3.1" ry="16.1"/></defs><clipPath id="at"><use xlink:href="#as" overflow="visible"/></clipPath><polygon clip-path="url(#at)" fill="#C6C6C6" points="32.6,46.1 57.7,21 57.7,21"/></g><g><defs><ellipse id="au" cx="45.1" cy="33.5" rx="3.1" ry="16.1"/></defs><clipPath id="av"><use xlink:href="#au" overflow="visible"/></clipPath><polygon clip-path="url(#av)" fill="#C6C6C6" points="32.6,46.1 57.7,21 57.7,21"/></g><g><defs><ellipse id="aw" cx="45.1" cy="33.5" rx="3.1" ry="16.1"/></defs><clipPath id="ax"><use xlink:href="#aw" overflow="visible"/></clipPath></g><g><defs><ellipse id="ay" cx="45.1" cy="33.5" rx="3.1" ry="16.1"/></defs><clipPath id="az"><use xlink:href="#ay" overflow="visible"/></clipPath><polygon clip-path="url(#az)" fill="#C6C6C6" points="32.6,46.1 57.7,21 57.7,21"/></g><g><defs><ellipse id="aA" cx="45.1" cy="33.5" rx="3.1" ry="16.1"/></defs><clipPath id="aB"><use xlink:href="#aA" overflow="visible"/></clipPath></g><g><defs><ellipse id="aC" cx="45.1" cy="33.5" rx="3.1" ry="16.1"/></defs><clipPath id="aD"><use xlink:href="#aC" overflow="visible"/></clipPath><polygon clip-path="url(#aD)" fill="#C6C6C6" points="32.6,46.1 57.7,21 57.7,21"/></g><g><defs><ellipse id="aE" cx="45.1" cy="33.5" rx="3.1" ry="16.1"/></defs><clipPath id="aF"><use xlink:href="#aE" overflow="visible"/></clipPath><polygon clip-path="url(#aF)" fill="#C6C6C6" points="32.6,46.1 57.7,21 57.7,21"/></g><g><defs><ellipse id="aG" cx="45.1" cy="33.5" rx="3.1" ry="16.1"/></defs><clipPath id="aH"><use xlink:href="#aG" overflow="visible"/></clipPath><polygon clip-path="url(#aH)" fill="#C6C6C6" points="32.6,46.1 57.7,21 57.7,21"/></g><g><defs><ellipse id="aI" cx="45.1" cy="33.5" rx="3.1" ry="16.1"/></defs><clipPath id="aJ"><use xlink:href="#aI" overflow="visible"/></clipPath></g><g><defs><ellipse id="aK" cx="45.1" cy="33.5" rx="3.1" ry="16.1"/></defs><clipPath id="aL"><use xlink:href="#aK" overflow="visible"/></clipPath><polygon clip-path="url(#aL)" fill="#C6C6C6" points="32.6,46.1 57.7,21 57.7,21"/></g><g><defs><ellipse id="aM" cx="45.1" cy="33.5" rx="3.1" ry="16.1"/></defs><clipPath id="aN"><use xlink:href="#aM" overflow="visible"/></clipPath></g><g><defs><ellipse id="aO" cx="45.1" cy="33.5" rx="3.1" ry="16.1"/></defs><clipPath id="aP"><use xlink:href="#aO" overflow="visible"/></clipPath><polygon clip-path="url(#aP)" fill="#C6C6C6" points="32.6,46.1 57.7,21 57.7,21"/></g><g><defs><ellipse id="aQ" cx="45.1" cy="33.5" rx="3.1" ry="16.1"/></defs><clipPath id="aR"><use xlink:href="#aQ" overflow="visible"/></clipPath><polygon clip-path="url(#aR)" fill="#C6C6C6" points="32.6,46.1 57.7,21 57.7,21"/></g><g><defs><ellipse id="aS" cx="45.1" cy="33.5" rx="3.1" ry="16.1"/></defs><clipPath id="aT"><use xlink:href="#aS" overflow="visible"/></clipPath></g><g><defs><ellipse id="aU" cx="45.1" cy="33.5" rx="3.1" ry="16.1"/></defs><clipPath id="aV"><use xlink:href="#aU" overflow="visible"/></clipPath><polygon clip-path="url(#aV)" fill="#C6C6C6" points="32.6,46.1 57.7,21 57.7,21"/></g><g><defs><ellipse id="aW" cx="45.1" cy="33.5" rx="3.1" ry="16.1"/></defs><clipPath id="aX"><use xlink:href="#aW" overflow="visible"/></clipPath></g><g><defs><ellipse id="aY" cx="45.1" cy="33.5" rx="3.1" ry="16.1"/></defs><clipPath id="aZ"><use xlink:href="#aY" overflow="visible"/></clipPath><polygon clip-path="url(#aZ)" fill="#C6C6C6" points="32.6,46.1 57.7,21 57.7,21"/></g><g><defs><ellipse id="ba" cx="45.1" cy="33.5" rx="3.1" ry="16.1"/></defs><clipPath id="bb"><use xlink:href="#ba" overflow="visible"/></clipPath><polygon clip-path="url(#bb)" fill="#C6C6C6" points="32.6,46.1 57.7,21 57.7,21"/></g><g><defs><ellipse id="bc" cx="45.1" cy="33.5" rx="3.1" ry="16.1"/></defs><clipPath id="bd"><use xlink:href="#bc" overflow="visible"/></clipPath></g><g><defs><ellipse id="be" cx="45.1" cy="33.5" rx="3.1" ry="16.1"/></defs><clipPath id="bf"><use xlink:href="#be" overflow="visible"/></clipPath><polygon clip-path="url(#bf)" fill="#C6C6C6" points="32.6,46.1 57.7,21 57.7,21"/></g><g><defs><ellipse id="bg" cx="45.1" cy="33.5" rx="3.1" ry="16.1"/></defs><clipPath id="bh"><use xlink:href="#bg" overflow="visible"/></clipPath><polygon clip-path="url(#bh)" fill="#C6C6C6" points="32.6,46.1 57.7,21 57.7,21"/></g><g><defs><ellipse id="bi" cx="45.1" cy="33.5" rx="3.1" ry="16.1"/></defs><clipPath id="bj"><use xlink:href="#bi" overflow="visible"/></clipPath></g><g><defs><ellipse id="bk" cx="45.1" cy="33.5" rx="3.1" ry="16.1"/></defs><clipPath id="bl"><use xlink:href="#bk" overflow="visible"/></clipPath><polygon clip-path="url(#bl)" fill="#C6C6C6" points="32.6,46.1 57.7,21 57.7,21"/></g><g><defs><ellipse id="bm" cx="45.1" cy="33.5" rx="3.1" ry="16.1"/></defs><clipPath id="bn"><use xlink:href="#bm" overflow="visible"/></clipPath><polygon clip-path="url(#bn)" fill="#C6C6C6" points="32.6,46.1 57.7,21 57.7,21"/></g><g><defs><ellipse id="bo" cx="45.1" cy="33.5" rx="3.1" ry="16.1"/></defs><clipPath id="bp"><use xlink:href="#bo" overflow="visible"/></clipPath></g><g><defs><ellipse id="bq" cx="45.1" cy="33.5" rx="3.1" ry="16.1"/></defs><clipPath id="br"><use xlink:href="#bq" overflow="visible"/></clipPath><polygon clip-path="url(#br)" fill="#C6C6C6" points="32.6,46.1 57.7,21 57.7,21"/></g><g><defs><ellipse id="bs" cx="45.1" cy="33.5" rx="3.1" ry="16.1"/></defs><clipPath id="bt"><use xlink:href="#bs" overflow="visible"/></clipPath></g><g><defs><ellipse id="bu" transform="rotate(-45 45.112 33.495)" cx="45.1" cy="33.5" rx="16.1" ry="3.1"/></defs><clipPath id="bv"><use xlink:href="#bu" overflow="visible"/></clipPath><polygon clip-path="url(#bv)" fill="#C6C6C6" points="32.6,46.1 57.7,21 57.7,46.1"/></g><g><path fill="#C6C6C6" d="M28.1 53c-1.2 1.2-1.2 3.1 0 4.2.6.6 1.3.9 2.1.9s1.5-.3 2.1-.9c.2-.2.2-.5 0-.7s-.5-.2-.7 0c-.7.7-2.1.7-2.8 0-.4-.4-.6-.9-.6-1.4s.2-1 .6-1.4l4.7-4.7c-.4-.1-.8-.1-1.1-.3L28.1 53zM24.7 49.6c-.7.7-2.1.7-2.8 0-.8-.8-.8-2 0-2.8.2-.2.2-.5 0-.7s-.5-.2-.7 0c-1.2 1.2-1.2 3.1 0 4.2.6.6 1.3.9 2.1.9s1.5-.3 2.1-.9l4.4-4.4c-.1-.4-.2-.8-.2-1.2l-4.9 4.9zM30.4 47.1L21.5 56c-.2.2-.2.5 0 .7.1.1.2.1.4.1s.3 0 .4-.1l8.9-8.9-.2-.2c-.3-.1-.4-.3-.6-.5z"/></g></svg>