<svg xmlns="http://www.w3.org/2000/svg" viewBox="0 0 79 79"><path fill="#F2A8A5" d="M43.6 22.1c-.8-.8-2.1-.8-2.9 0l-1.2 1.1-1.1-1.1c-.8-.8-2.1-.8-2.9 0-.8.8-.8 2.1 0 2.9l1.2 1.1 2.9 2.9 2.9-2.9 1.2-1.1c.7-.8.7-2.1-.1-2.9z"/><path fill="#EC2F24" d="M39.5 30.1l-.6-.5-3.4-3.4-.6-.6c-1.1-1.1-1.1-2.9 0-4s2.9-1.1 4 0l.6.6.6-.6c1.1-1.1 2.9-1.1 4 0s1.1 2.9 0 4l-4.6 4.5zm-1.9-4l1.9 1.9 3.5-3.6c.5-.5.5-1.3 0-1.9-.5-.5-1.4-.5-1.9 0l-1.7 1.7-1.7-1.7c-.5-.5-1.4-.5-1.9 0s-.5 1.3 0 1.9l1.8 1.7z"/><path fill="#8C8B8B" d="M35.5 54.2c-1 .3-2.1.5-3.2.5-5.4 0-9.8-4.4-9.8-9.8s4.4-9.8 9.8-9.8c1.1 0 2.2.2 3.2.5.6.2 1.2.5 1.8.8.8.5 1.6 1.1 2.2 1.8l1.2 1.5c.9 1.5 1.5 3.2 1.5 5.1s-.5 3.6-1.5 5.1c.6.7 1.4 1.4 2.2 1.8 1.3-2 2.1-4.4 2.1-7s-.8-5-2.1-7c-.4-.5-.7-1-1.2-1.5-.7-.7-1.4-1.4-2.2-2-.6-.4-1.2-.7-1.8-1-1.6-.8-3.5-1.2-5.4-1.2-7 0-12.7 5.7-12.7 12.7s5.7 12.7 12.7 12.7c1.9 0 3.8-.5 5.4-1.2-.8-.5-1.6-1.3-2.2-2z"/><g><path fill="#FFC744" d="M46.7 32.2c-1.9 0-3.8.5-5.4 1.2.8.6 1.6 1.4 2.2 2.2 1-.3 2.1-.5 3.2-.5 5.4 0 9.8 4.4 9.8 9.8s-4.4 9.8-9.8 9.8c-1.1 0-2.2-.2-3.2-.5-.6-.2-1.2-.5-1.8-.8-.8-.5-1.6-1.1-2.2-1.8l-1.2-1.5c-.9-1.5-1.5-3.2-1.5-5.1s.5-3.6 1.5-5.1c-.6-.7-1.4-1.4-2.2-1.8-1.3 2-2.1 4.4-2.1 7s.8 5 2.1 7c.4.5.7 1 1.2 1.5.7.7 1.4 1.4 2.2 2 .6.4 1.2.7 1.8 1 1.6.8 3.5 1.2 5.4 1.2 7 0 12.7-5.7 12.7-12.7s-5.7-12.9-12.7-12.9z"/></g></svg>