<svg id="Layer_1" xmlns="http://www.w3.org/2000/svg" viewBox="-4285 3279 140 140"><style>.st0{fill:#FFFFFF;} .st1{fill:#8DC44A;} .st2{fill:#4A8E91;} .st3{fill:#3C5152;}</style><g id="Baby_2_"><circle class="st0" cx="-4215" cy="3349" r="66.5"/><path class="st1" d="M-4215 3419c-38.6 0-70-31.4-70-70s31.4-70 70-70 70 31.4 70 70-31.4 70-70 70zm0-132.9c-34.7 0-62.9 28.2-62.9 62.9s28.2 62.9 62.9 62.9 62.9-28.2 62.9-62.9-28.2-62.9-62.9-62.9z"/><path class="st2" d="M-4216.1 3395.2c-18 0-33.7-13.2-37.3-31-4.5-1-7.9-5-7.9-9.9 0-5.2 4-9.6 9-10 5.1-15.8 19.7-26.6 36.2-26.6 16.6 0 31.2 11 36.2 26.9 5.2.3 9.3 4.7 9.3 10 0 5-3.6 9.2-8.4 9.9-3.6 18-19 30.7-37.1 30.7zm-32.7-36.1l.3 2.4c2.4 16.3 16.3 28.5 32.4 28.5 16.2 0 29.9-11.9 32.4-28.3l.4-1.7 2.8 1.1c2.6 0 4.6-2.9 4.6-5.5s-2.1-5.1-4.6-5.1c-.3 0-.5-.2-.8-.1l-2.5.4-.6-2.5c-3.7-14.7-16.8-25.1-31.7-25.1-14.8 0-27.8 10.2-31.6 24.7l-.6 2.3-2.4-.4c-.3 0-.5-.1-.7-.1-2.5 0-4.6 2.1-4.6 4.7s2 4.7 4.5 4.7H-4248.8z"/><path class="st0" d="M-4210 3340.1c-12 0-21.3-9.8-21.3-21.9 0-10.3 8.7-18.6 18.9-18.6 8.8 0 15.5 7.2 15.5 16 0 7.3-6.2 13.2-13.2 13.8v10.7z"/><path class="st3" d="M-4210.2 3334.8c-10.3 0-17.7-6.7-17.7-15.9 0-8 6.5-14.5 14.5-14.5 6.6 0 12 5.4 12 12 0 5.5-4.5 9.9-9.9 9.9-4.5 0-8.1-3.6-8.3-8.2-.1-2.9 2.2-4.8 4.5-5.3 2.4-.5 4.6.7 5.3 2.8.3.9-.2 1.9-1.1 2.3-.9.3-1.9-.2-2.3-1.1-.2-.6-1-.6-1.3-.5-.7.1-1.7.7-1.6 1.7.1 2.7 2.2 4.8 4.8 4.8 3.5 0 6.4-2.9 6.4-6.4 0-4.7-3.8-8.4-8.4-8.4-6.1 0-11 4.9-11 11 0 7.3 5.8 12.4 14.2 12.4 1 0 1.8.8 1.8 1.8s-1 1.6-1.9 1.6z"/><circle class="st3" cx="-4229.6" cy="3351.6" r="6.6"/><circle class="st3" cx="-4203" cy="3351.6" r="6.6"/><path class="st3" d="M-4213.5 3377.5c-1.8 0-3.6-.4-5.3-1.1-.9-.4-1.3-1.4-.9-2.3.4-.9 1.4-1.3 2.3-.9 2.3 1 4.9 1.1 7.3.2s4.3-2.7 5.3-5c.4-.9 1.4-1.3 2.3-.9.9.4 1.3 1.4.9 2.3-1.4 3.2-4 5.6-7.3 6.9-1.4.5-3 .8-4.6.8z"/></g></svg>