<svg id="Layer_1" xmlns="http://www.w3.org/2000/svg" viewBox="-4285 3279 140 140"><style>.st0{fill:#FFFFFF;} .st1{fill:#BD2327;} .st2{fill:#8B8A8A;}</style><g id="Credit_card_2_"><circle class="st0" cx="-4215" cy="3349" r="66.5"/><path class="st1" d="M-4215 3419c-38.6 0-70-31.4-70-70s31.4-70 70-70 70 31.4 70 70-31.4 70-70 70zm0-132.9c-34.7 0-62.9 28.2-62.9 62.9s28.2 62.9 62.9 62.9 62.9-28.2 62.9-62.9-28.2-62.9-62.9-62.9z"/><g><path class="st1" d="M-4183.7 3321.2c1.7 0 3.2.6 4.4 1.8s1.8 2.7 1.8 4.4v47.1c0 1.7-.6 3.2-1.8 4.4-1.2 1.2-2.7 1.8-4.4 1.8h-62c-1.7 0-3.2-.6-4.4-1.8-1.2-1.2-1.8-2.7-1.8-4.4v-47.1c0-1.7.6-3.2 1.8-4.4 1.2-1.2 2.7-1.8 4.4-1.8h62zm-62 4.9c-.3 0-.6.1-.9.4-.2.2-.4.5-.4.9v8.7h64.5v-8.7c0-.3-.1-.6-.4-.9-.2-.2-.5-.4-.9-.4h-61.9zm62 49.7c.3 0 .6-.1.9-.4.2-.2.4-.5.4-.9v-23.6h-64.5v23.6c0 .3.1.6.4.9.2.2.5.4.9.4h61.9z"/><rect x="-4242" y="3365.8" class="st2" width="9.9" height="5"/><rect x="-4227.1" y="3365.8" class="st2" width="14.9" height="5"/></g></g></svg>