<svg id="Layer_1" xmlns="http://www.w3.org/2000/svg" viewBox="-227 350.9 140 140"><style>.st0{fill:#FFFFFF;} .st1{fill:#8EC44A;} .st2{fill:#396E6F;}</style><path class="st0" d="M-223.5 420.9c0-36.7 29.8-66.5 66.5-66.5s66.5 29.8 66.5 66.5-29.8 66.5-66.5 66.5-66.5-29.8-66.5-66.5"/><path class="st1" d="M-157 490.9c-38.6 0-70-31.4-70-70s31.4-70 70-70 70 31.4 70 70-31.4 70-70 70m0-132.9c-34.7 0-62.9 28.2-62.9 62.9s28.2 62.9 62.9 62.9 62.9-28.2 62.9-62.9S-122.3 358-157 358"/><path class="st2" d="M-149.1 444.9s1-.7.7-2.6c-.2-1.5 1.2-3.4-7.5-6.6-8.5-3.1-8-1.6-8-7.4 0-3.7 1.9-1.6 3.1-8.7.5-2.8.9-.9 1.9-5.4.5-2.4-.4-2.5-.3-3.6.1-1.1.2-2.1.4-4.4.2-2.8-2.4-10.3-11.8-10.3s-12.1 7.5-11.8 10.3c.2 2.3.3 3.3.4 4.4.1 1.1-.8 1.3-.3 3.6 1 4.5 1.4 2.6 1.9 5.4 1.2 7.1 3.1 4.9 3.1 8.7 0 5.8.5 4.3-8 7.4-8.7 3.2-10.7 5.1-11 6.6-.3 1.9.6 3.5.6 3.5l46.6-.9z"/><path class="st0" d="M-172.9 460.9c-2.9 0-6-.2-10.3-.6-1.3-.1-2.3-1.2-2.4-2.4-.1-1.3.8-1.7 2-2 31.1-7.1 43.9-22.6 44.6-50.6h-8.4c-1.1 0-2.1-1.4-2.4-2.4-.4-1-.1-2.5.7-3.3l20.2-18.7c.5-.5 1.1-.8 1.8-.8.6 0 1.3.2 1.8.6l20.2 18.5c.8.7 1.1 2.6.7 3.6-.4 1-1.4 2.4-2.4 2.4h-8.5c-1.2 31-22.5 55.7-52.6 56.2l-1.6-.3c-1.3.2-2.3-.2-3.4-.2"/><path class="st1" d="M-106.9 401.7l-20.2-18.5-20.2 18.5h11.1v-.4c0 33.3-13.4 49.2-46.7 56.9 8 .7 10.6.5 14.8.4 30.8-.5 50.1-25.2 50.1-57.2v.3h11.1z"/></svg>