<svg id="Layer_1" xmlns="http://www.w3.org/2000/svg" viewBox="-4285 3279 140 140"><style>.st0{fill:#FFFFFF;} .st1{fill:#8DC44A;} .st2{fill:#3C5152;} .st3{fill:#4C8F91;} .st4{fill:#E73230;}</style><g id="Custom_Goal_2_"><circle class="st0" cx="-4215" cy="3349" r="66.5"/><path class="st1" d="M-4215 3419c-38.6 0-70-31.4-70-70s31.4-70 70-70 70 31.4 70 70-31.4 70-70 70zm0-132.9c-34.7 0-62.9 28.2-62.9 62.9s28.2 62.9 62.9 62.9 62.9-28.2 62.9-62.9-28.2-62.9-62.9-62.9z"/><g><path class="st2" d="M-4215 3320.6c15.6 0 28.4 12.7 28.4 28.4s-12.7 28.4-28.4 28.4-28.4-12.7-28.4-28.4 12.8-28.4 28.4-28.4m0-7c-19.6 0-35.4 15.9-35.4 35.4s15.9 35.4 35.4 35.4 35.4-15.9 35.4-35.4-15.8-35.4-35.4-35.4z"/><path class="st3" d="M-4215 3333.9c8.3 0 15.1 6.8 15.1 15.1s-6.8 15.1-15.1 15.1-15.1-6.8-15.1-15.1 6.8-15.1 15.1-15.1m0-7.1c-12.2 0-22.2 9.9-22.2 22.2s9.9 22.2 22.2 22.2c12.2 0 22.2-9.9 22.2-22.2s-10-22.2-22.2-22.2z"/><circle class="st2" cx="-4215" cy="3349" r="8"/><path class="st2" d="M-4215 3348.1c.5 0 .9.4.9.9s-.4.9-.9.9-.9-.4-.9-.9.4-.9.9-.9m0-7.1c-4.4 0-8 3.6-8 8s3.6 8 8 8 8-3.6 8-8-3.6-8-8-8z"/><g><path class="st0" d="M-4215 3352.5c-.9 0-1.8-.4-2.5-1-.7-.7-1-1.6-1-2.5 0-.9.4-1.8 1-2.5l14.4-14.4v-9.1l.1-.6c.3-.9 1.1-1.5 2.1-1.5.6 0 1.2.3 1.7.7l1.4 1.4v-5.4l.1-.6c.3-.9 1.1-1.5 2.1-1.5.6 0 1.2.3 1.7.7l1.4 1.4v-5.4l.1-.6c.3-.9 1.1-1.5 2.1-1.5.6 0 1.2.3 1.7.7l12.4 11.9c.6.7.8 1.5.5 2.3-.3.7-.9 1.3-1.7 1.5h-5.9l1.6 1.6c.6.7.8 1.5.5 2.3-.3.7-.9 1.3-1.7 1.5h-5.9l1.6 1.6c.6.7.8 1.5.5 2.3-.3.7-.9 1.3-1.7 1.5h-.4l-10-.1-14.1 14.1c-.3.9-1.2 1.2-2.1 1.2z"/><path class="st4" d="M-4177.4 3324.3l-12.5-12c-.2-.3-.6-.2-.8.2v9.5l-4.5-4.4c-.2-.3-.6-.2-.8.2v9.5l-4.5-4.4c-.2-.3-.6-.2-.8.2v9.8l-14.9 14.9c-.7.7-.7 1.8 0 2.5.3.3.8.5 1.3.5s.9-.2 1.3-.5l14.7-14.7 10.8.1c.3-.1.5-.5.2-.7l-4.8-4.7 9.9.1c.3-.1.5-.5.2-.7l-4.8-4.7 9.9.1c.2-.1.3-.5.1-.8z"/></g></g></g></svg>