<svg id="Layer_1" xmlns="http://www.w3.org/2000/svg" xmlns:xlink="http://www.w3.org/1999/xlink" viewBox="-4285 3279 140 140"><style>.st0{fill:#FFFFFF;} .st1{fill:#019547;} .st2{fill:#4B8F92;} .st3{fill:#3D5253;} .st4{fill:#4A8E91;} .st5{fill:#3C5152;} .st6{fill:#F2F2F2;} .st7{fill:#E3DFC6;}</style><g id="Accounts_1_"><g id="XMLID_60_"><circle id="XMLID_64_" class="st0" cx="-8499.8" cy="6628" r="66.5"/><path id="XMLID_61_" class="st1" d="M-8499.8 6698c-38.6 0-70-31.4-70-70s31.4-70 70-70 70 31.4 70 70-31.4 70-70 70zm0-132.9c-34.7 0-62.9 28.2-62.9 62.9s28.2 62.9 62.9 62.9 62.9-28.2 62.9-62.9-28.2-62.9-62.9-62.9z"/></g><g id="XMLID_26_"><path id="XMLID_56_" class="st2" d="M-8474.7 6607.6c.7.7 1.4 1.7 1.9 3s.8 2.4.8 3.5v45.6c0 1.1-.4 2-1.1 2.7-.7.7-1.6 1.1-2.7 1.1h-53.2c-1.1 0-2-.4-2.7-1.1s-1.1-1.6-1.1-2.7v-63.3c0-1.1.4-2 1.1-2.7s1.6-1.1 2.7-1.1h35.4c1.1 0 2.2.3 3.5.8 1.3.5 2.3 1.2 3 1.9l12.4 12.3zm-17.6-9.7v14.9h14.9c-.3-.8-.6-1.3-.9-1.6l-12.4-12.4c-.3-.3-.8-.6-1.6-.9zm15.2 60.5v-40.5h-16.5c-1.1 0-2-.4-2.7-1.1-.7-.7-1.1-1.6-1.1-2.7v-16.5h-30.4v60.8h50.7z"/><path id="XMLID_55_" class="st3" d="M-8517.6 6624.2c0-.4.1-.7.4-.9.2-.2.5-.4.9-.4h27.8c.4 0 .7.1.9.4.2.2.4.5.4.9v2.5c0 .4-.1.7-.4.9-.2.2-.5.4-.9.4h-27.8c-.4 0-.7-.1-.9-.4s-.4-.5-.4-.9v-2.5z"/><path id="XMLID_54_" class="st3" d="M-8488.5 6633.1c.4 0 .7.1.9.4.2.2.4.5.4.9v2.5c0 .4-.1.7-.4.9-.2.2-.5.4-.9.4h-27.8c-.4 0-.7-.1-.9-.4-.2-.3-.4-.5-.4-.9v-2.5c0-.4.1-.7.4-.9.2-.2.5-.4.9-.4h27.8z"/><path id="XMLID_53_" class="st3" d="M-8488.5 6643.2c.4 0 .7.1.9.4.2.2.4.5.4.9v2.5c0 .4-.1.7-.4.9-.2.2-.5.4-.9.4h-27.8c-.4 0-.7-.1-.9-.4-.2-.2-.4-.5-.4-.9v-2.5c0-.4.1-.7.4-.9.2-.2.5-.4.9-.4h27.8z"/><g id="XMLID_27_"><path class="st0" d="M-8488.9 6667c-.6 0-1.2-.1-1.8-.4-1.1.3-2.3.5-3.6.5-7.5 0-13.7-6.1-13.7-13.6 0-7.3 5.8-13.3 13-13.6.1-.5.2-1 .5-1.5-.3-.7-.5-1.5-.5-2.3 0-2.8 2.2-5.1 5-5.1h23.1c2.8 0 5 2.3 5 5.1 0 .8-.2 1.6-.5 2.2.3.7.5 1.4.5 2.2 0 .8-.2 1.5-.5 2.2.3.7.5 1.4.5 2.2 0 .8-.2 1.5-.5 2.2.3.7.5 1.4.5 2.2 0 .8-.2 1.5-.5 2.2.3.7.5 1.4.5 2.2 0 .8-.2 1.5-.5 2.2.3.7.5 1.4.5 2.2 0 .8-.2 1.5-.5 2.2.3.7.5 1.3.5 2.1 0 2.8-2.2 4.9-5 4.9h-22v-.3z" id="XMLID_50_"/><path class="st1" d="M-8466.8 6659.3h-17.7c.5-.9.9-1.9 1.2-2.9h16.5c.8 0 1.4.6 1.4 1.4 0 .8-.6 1.5-1.4 1.5zm0-4.4h-16.2c.1-.5.1-1 .1-1.4 0-.5 0-1-.1-1.4h16.2c.8 0 1.4.6 1.4 1.4s-.6 1.4-1.4 1.4zm0-4.3h-16.5c-.3-1-.7-2-1.2-2.9h17.7c.8 0 1.4.6 1.4 1.4 0 .9-.6 1.5-1.4 1.5zm0-4.3h-18.7c-.9-1.2-2.1-2.2-3.4-2.9h22.1c.8 0 1.4.6 1.4 1.4 0 .8-.6 1.5-1.4 1.5zm0-4.4h-23.1c-.8 0-1.4-.6-1.4-1.4s.6-1.4 1.4-1.4h23.1c.8 0 1.4.6 1.4 1.4s-.6 1.4-1.4 1.4zm0-4.3h-23.1c-.8 0-1.4-.6-1.4-1.4s.6-1.4 1.4-1.4h23.1c.8 0 1.4.6 1.4 1.4s-.6 1.4-1.4 1.4zm-17.3 15.9c0 5.6-4.5 10.1-10.1 10.1s-10.1-4.5-10.1-10.1 4.5-10.1 10.1-10.1c5.5 0 10.1 4.5 10.1 10.1zm-6.6 1.1c-.1-.3-.3-.6-.6-.9-.3-.3-.5-.5-.8-.7-.3-.2-.6-.3-.9-.5-.3-.1-.6-.3-.9-.4-.3-.1-.6-.3-.8-.4-.2-.1-.4-.3-.6-.5-.1-.2-.2-.4-.2-.7 0-.2 0-.3.1-.5s.2-.3.3-.4c.1-.1.3-.2.5-.3.2-.1.4-.1.7-.1.3 0 .6 0 .9.1.3.1.5.2.7.3s.4.2.5.3c.1.1.2.1.3.1s.1 0 .2-.1c0 0 .1-.1.1-.2v-.3-.4-.4-.3s0-.1-.1-.2c0 0-.1-.1-.1-.2-.1-.1-.2-.1-.4-.2s-.4-.2-.6-.2c-.2-.1-.5-.1-.8-.2h-.2v-1.5h-1.4v1.5c-.3 0-.5.1-.8.2-.5.1-.9.3-1.2.6-.4.3-.6.6-.8 1.1-.2.4-.3.9-.3 1.5 0 .5.1.9.2 1.3.1.3.3.7.6.9.3.2.5.5.8.7.3.2.6.3.9.5s.6.3.9.4c.3.1.6.3.8.4.2.1.4.3.6.5.1.2.2.4.2.7 0 .2 0 .4-.1.6-.1.2-.2.3-.4.5l-.6.3c-.2.1-.5.1-.8.1-.4 0-.8 0-1.2-.1l-.9-.3-.6-.3c-.2-.1-.3-.1-.4-.1h-.2s-.1.1-.1.2 0 .2-.1.3v1.1s.1.3.2.3c.1.1.2.2.4.3.2.1.4.2.7.3.3.1.6.2.9.2.3.1.7.1 1.1.1h.1v1.4h1.4v-1.6h.2c.5-.2 1-.4 1.4-.7.4-.3.7-.7.9-1.2.2-.5.3-1 .3-1.6.2-.6.2-1 0-1.3zm5.2 6.1h18.7c.8 0 1.4.6 1.4 1.4 0 .8-.6 1.4-1.4 1.4h-22.1c1.3-.6 2.5-1.6 3.4-2.8z" id="XMLID_28_"/></g></g></g><g id="Add_a_Policy_2_"><defs><path id="SVGID_1_" d="M-4215 3419s59.2-34.1 59.2-91.6V3279h-118.4v48.4c0 57.5 59.2 91.6 59.2 91.6z"/></defs><use xlink:href="#SVGID_1_" overflow="visible" fill="#FFF"/><clipPath id="SVGID_2_"><use xlink:href="#SVGID_1_" overflow="visible"/></clipPath><g><path class="st4" d="M-4163.7 3286.9v40.5c0 43.9-38.6 73.6-51.3 82.2-12.6-8.6-51.3-38.4-51.3-82.2v-40.5h102.6m7.9-7.9h-118.4v48.4c0 57.5 59.2 91.6 59.2 91.6s59.2-34.1 59.2-91.6V3279z"/></g><g><path class="st5" d="M-4197.7 3360.4h-50.5c-.6 0-1-.4-1-1v-60.8c0-.6.4-1 1-1h50.5c.6 0 1 .4 1 1v60.8c0 .6-.4 1-1 1z"/><path class="st6" d="M-4208.4 3307.8h-29c-.7 0-1.3-.6-1.3-1.3v-1.9c0-.7.6-1.3 1.3-1.3h29c.7 0 1.3.6 1.3 1.3v1.9c-.1.7-.6 1.3-1.3 1.3z"/><g><path class="st0" d="M-4187.1 3326.4c.7.7 1.2 1.5 1.7 2.7.5 1.1.7 2.2.7 3.1v40.5c0 .9-.3 1.7-1 2.4s-1.5 1-2.4 1h-47.2c-.9 0-1.7-.3-2.4-1s-1-1.5-1-2.4v-56.2c0-.9.3-1.7 1-2.4s1.5-1 2.4-1h31.5c.9 0 2 .2 3.1.7 1.1.5 2 1 2.7 1.7l10.9 10.9z"/><path class="st0" d="M-4191.4 3368.9v-32.5h-13.2c-.8 0-1.6-.3-2.2-.9-.6-.6-.9-1.3-.9-2.2v-13.2h-24.4v48.8h40.7z"/><path class="st5" d="M-4189.4 3328.1c.6.6 1.1 1.4 1.5 2.4.4 1 .6 1.9.6 2.8v36.6c0 .8-.3 1.6-.9 2.2s-1.3.9-2.2.9h-42.7c-.8 0-1.6-.3-2.2-.9s-.9-1.3-.9-2.2v-50.8c0-.8.3-1.6.9-2.2s1.3-.9 2.2-.9h28.4c.8 0 1.8.2 2.8.6 1 .4 1.8.9 2.4 1.5l10.1 10zm-14.1-7.7v11.9h11.9c-.2-.6-.4-1-.7-1.3l-9.9-9.9c-.3-.3-.7-.5-1.3-.7zm12.1 48.5v-32.5h-13.2c-.8 0-1.6-.3-2.2-.9-.6-.6-.9-1.3-.9-2.2v-13.2h-24.4v48.8h40.7z"/><path class="st0" d="M-4203.5 3320.4v11.9h11.9c-.2-.6-.4-1-.7-1.3l-9.9-9.9c-.3-.3-.7-.5-1.3-.7z"/><path class="st7" d="M-4191.4 3368.9v-32.5h-13.2c-.8 0-1.6-.3-2.2-.9-.6-.6-.9-1.3-.9-2.2v-13.2h-24.4v48.8h40.7z"/><path class="st5" d="M-4223.9 3341.4c0-.3.1-.5.3-.7s.4-.3.7-.3h22.3c.3 0 .5.1.7.3.2.2.3.4.3.7v2c0 .3-.1.5-.3.7s-.4.3-.7.3h-22.3c-.3 0-.5-.1-.7-.3-.2-.2-.3-.4-.3-.7v-2zM-4200.5 3348.6c.3 0 .5.1.7.3.2.2.3.4.3.7v2c0 .3-.1.5-.3.7s-.4.3-.7.3h-22.3c-.3 0-.5-.1-.7-.3-.2-.2-.3-.4-.3-.7v-2c0-.3.1-.5.3-.7s.4-.3.7-.3h22.3zM-4200.5 3356.7c.3 0 .5.1.7.3.2.2.3.4.3.7v2c0 .3-.1.5-.3.7-.2.2-.4.3-.7.3h-22.3c-.3 0-.5-.1-.7-.3-.2-.2-.3-.4-.3-.7v-2c0-.3.1-.5.3-.7.2-.2.4-.3.7-.3h22.3z"/><g><path class="st5" d="M-4210.8 3338.2v7.5c0 8.1-7.2 13.7-9.5 15.3-2.3-1.6-9.5-7.1-9.5-15.3v-7.5h19"/><path class="st7" d="M-4220.3 3362.7c-.3 0-.7-.1-1-.3-2.4-1.6-10.3-7.7-10.3-16.7v-7.5c0-1 .8-1.8 1.8-1.8h19c1 0 1.8.8 1.8 1.8v7.5c0 9-7.9 15.1-10.3 16.7-.3.2-.6.3-1 .3zm-7.7-22.8v5.8c0 6.4 5.1 11.1 7.7 13.1 2.7-2 7.7-6.7 7.7-13.1v-5.8h-15.4z"/></g><path class="st7" d="M-4203.5 3320.4v11.9h11.9c-.2-.6-.4-1-.7-1.3l-9.9-9.9c-.3-.3-.7-.5-1.3-.7z"/></g></g></g></svg>