<svg id="Layer_1" xmlns="http://www.w3.org/2000/svg" viewBox="-4285 3279 140 140"><style>.st0{fill:#FFFFFF;} .st1{fill:#8DC44A;} .st2{fill:none;} .st3{fill:#8AC440;} .st4{fill:#D7E59B;} .st5{fill:#009247;} .st6{fill:#3D5152;} .st7{fill:#BD2327;}</style><g id="Rent_2_"><circle class="st0" cx="-4215" cy="3349" r="66.5"/><path class="st1" d="M-4215 3419c-38.6 0-70-31.4-70-70s31.4-70 70-70 70 31.4 70 70-31.4 70-70 70zm0-132.9c-34.7 0-62.9 28.2-62.9 62.9s28.2 62.9 62.9 62.9 62.9-28.2 62.9-62.9-28.2-62.9-62.9-62.9z"/><g><path class="st2" d="M-4174.4 3369.2c0 .1-.1.1-.1.2.1-.1.1-.2.1-.2zM-4175.2 3370.2l-.1.1c0-.1.1-.1.1-.1zM-4179.8 3372.6h-.2.2zM-4191.2 3372.5h-.3.3zM-4176.2 3371c-.1 0-.1.1-.2.1.1 0 .2 0 .2-.1zM-4178.5 3372.2c-.1 0-.1.1-.2.1.1 0 .2-.1.2-.1zM-4204.8 3328.6h-.1c0 .1.1 0 .1 0zM-4177.4 3371.8zM-4206.8 3328.8h.3-.3zM-4187.6 3372.2c-.1 0-.2.1-.3.1.1 0 .2 0 .3-.1zM-4190.1 3372.6s.1 0 0 0h-.2.2zM-4188.8 3372.5h-.2.2zM-4203.2 3328.8c.1 0 .2 0 .4.1-.2-.1-.3-.1-.4-.1z"/><path class="st3" d="M-4196.6 3362.6h-.3.3zM-4188 3356.2c-.1.1-.1.2-.2.3.1-.1.2-.2.2-.3zM-4193.2 3361.5h-.1.1zM-4191.5 3360.4c-.1.1-.2.1-.3.2.1 0 .2-.1.3-.2zM-4194.7 3362.1c-.1 0-.2.1-.3.1.1 0 .2 0 .3-.1zM-4190.2 3359.3c0 .1-.1.1-.1.2 0-.1.1-.2.1-.2zM-4189 3357.9l-.2.2c.1-.1.2-.1.2-.2z"/><path class="st4" d="M-4183.1 3355.9c-2.1 6.6-8 11-14.9 11.3.9 2.3 2.8 4.2 5.3 5 .4.1.8.2 1.1.3h.3c.3 0 .6.1.9.1h.3c.4 0 .7 0 1.1-.1h.2c.3 0 .6-.1.9-.2.1 0 .2-.1.3-.1.1 0 .2-.1.3-.1v-1c0-1.8 1.4-3.2 3.2-3.2 1.8 0 3.2 1.4 3.2 3.2v1.6c.3 0 .6 0 .9-.1h.2c.4-.1.7-.2 1.1-.3.1 0 .1 0 .2-.1.3-.1.7-.3 1-.4h.1c.3-.2.7-.4 1-.6.1 0 .1-.1.2-.1.3-.2.6-.5.9-.7l.1-.1c.3-.3.5-.5.7-.8 0-.1.1-.1.1-.2.2-.3.4-.6.6-1 0-.1.1-.2.1-.2.2-.4.3-.7.5-1.2 1.3-4-.6-8.2-4.1-10 0-3.4-2-6.5-5.2-7.8.4 2.1.2 4.5-.6 6.8z"/><path class="st5" d="M-4198.6 3362.8h0zM-4200.2 3362.7c-.1 0-.2 0-.4-.1.2 0 .3 0 .4.1zM-4190.3 3372.6c-.3 0-.6 0-.9-.1.3.1.6.1.9.1zM-4189 3372.5c-.3 0-.7.1-1.1.1.4 0 .8 0 1.1-.1zM-4191.5 3372.5c-.4-.1-.8-.1-1.1-.3.3.1.7.2 1.1.3zM-4187.9 3372.3c-.3.1-.6.1-.9.2.3 0 .6-.1.9-.2zM-4178.7 3372.3c-.4.1-.7.2-1.1.3.4-.1.8-.2 1.1-.3zM-4187.6 3372.2c.1 0 .2-.1.3-.1-.1 0-.2.1-.3.1zM-4177.4 3371.8c-.3.2-.7.3-1 .4.3-.1.6-.2 1-.4zM-4175.3 3370.3c-.3.3-.6.5-.9.7.3-.2.6-.5.9-.7zM-4176.4 3371.2c-.3.2-.6.4-1 .6.4-.2.7-.4 1-.6zM-4180.9 3372.7c.3 0 .6 0 .9-.1-.3 0-.6 0-.9.1zM-4174.5 3369.3c-.2.3-.5.6-.7.8.3-.2.5-.5.7-.8zM-4173.7 3368.2c-.2.3-.4.7-.6 1 .2-.3.4-.7.6-1z"/><path class="st4" d="M-4187 3348.4c-.3-1.5-1-2.9-1.9-4.1-1.1-1.5-2.5-2.8-4.2-3.7 0-5-3.1-9.7-8.2-11.3-.5-.2-1.1-.3-1.6-.4-.1 0-.2 0-.4-.1-.5-.1-1.1-.1-1.6-.1h-.1c-.5 0-1 .1-1.6.1h-.3c-.2 0-.4.1-.7.2v28.5c.4-1.4 1.6-2.4 3.1-2.4 1.6 0 2.9 1.2 3.1 2.7v4.6c.2.1.4.1.7.2.1 0 .2 0 .4.1.5.1 1.1.1 1.6.1h.2c.5 0 1 0 1.5-.1h.3c.5-.1 1-.2 1.6-.4.1 0 .2-.1.3-.1.5-.2 1-.4 1.4-.6h.1c.5-.2.9-.5 1.4-.8.1-.1.2-.1.3-.2.4-.3.8-.7 1.2-1 .1 0 .1-.1.1-.2.4-.4.7-.7 1-1.1l.2-.2c.3-.4.6-.9.9-1.4.1-.1.1-.2.2-.3.3-.5.5-1 .7-1.6.7-2.3.7-4.4.3-6.4"/><path class="st5" d="M-4206.8 3328.8c-.2 0-.4.1-.7.1.3 0 .5 0 .7-.1zM-4206.5 3328.8c.5-.1 1-.1 1.6-.1-.6 0-1.1 0-1.6.1zM-4202.8 3328.8c.5.1 1.1.2 1.6.4-.6-.2-1.1-.3-1.6-.4zM-4204.8 3328.6c.5 0 1.1 0 1.6.1-.5 0-1.1-.1-1.6-.1zM-4190.3 3359.4c-.4.4-.8.7-1.2 1 .4-.3.8-.6 1.2-1zM-4187.3 3354.6c-.2.6-.4 1.1-.7 1.6.3-.5.5-1.1.7-1.6zM-4193.3 3361.5c-.5.2-.9.4-1.4.6.5-.1.9-.3 1.4-.6zM-4189.2 3358.1c-.3.4-.6.8-1 1.1.4-.3.7-.7 1-1.1zM-4188.1 3356.5c-.3.5-.5 1-.9 1.4.3-.4.6-.9.9-1.4zM-4195 3362.2c-.5.2-1 .3-1.6.4.5-.1 1.1-.2 1.6-.4zM-4191.8 3360.6c-.4.3-.9.6-1.4.8.5-.2.9-.4 1.4-.8zM-4198.4 3362.8c.5 0 1-.1 1.5-.1-.5 0-1 .1-1.5.1zM-4198.4 3362.8zM-4198.6 3362.8c-.5 0-1.1 0-1.6-.1.6 0 1.1.1 1.6.1zM-4201.2 3362.5c.2.1.4.1.7.1-.3 0-.5-.1-.7-.1z"/><path class="st6" d="M-4252.9 3316.3h38.2c1.4 0 2.5-1.1 2.5-2.5s-1.1-2.5-2.5-2.5h-38.2c-1.4 0-2.5 1.1-2.5 2.5.1 1.4 1.2 2.5 2.5 2.5z"/><path class="st7" d="M-4214.6 3319.4h-38.1c-1.3 0-2.4 1.1-2.4 2.4v58.8c0 1.3 1.1 2.4 2.4 2.4h11.1c1.3 0 2.4-1.1 2.4-2.4v-15.2h11.1v15.2c0 1.3 1.1 2.4 2.4 2.4h11.1c1.3 0 2.4-1.1 2.4-2.4V3321.9c0-1.4-1.1-2.5-2.4-2.5zm-16.6 12.1c0-1.1.9-1.9 1.9-1.9h6.4c1.1 0 1.9.9 1.9 1.9v7.7c0 1.1-.9 1.9-1.9 1.9h-6.4c-1.1 0-1.9-.9-1.9-1.9v-7.7zm-4.9 23.5c0 1.1-.9 1.9-1.9 1.9h-6.4c-1.1 0-1.9-.9-1.9-1.9v-7.6c0-1.1.9-1.9 1.9-1.9h6.4c1.1 0 1.9.9 1.9 1.9v7.6zm0-15.9c0 1.1-.9 1.9-1.9 1.9h-6.4c-1.1 0-1.9-.9-1.9-1.9v-7.6c0-1.1.9-1.9 1.9-1.9h6.4c1.1 0 1.9.9 1.9 1.9v7.6zm15.1 15.9c0 .5-.2.9-.5 1.2-.3.4-.9.7-1.4.7h-6.4c-1.1 0-1.9-.9-1.9-1.9v-7.6c0-1.1.9-1.9 1.9-1.9h6.5c.5 0 .9.2 1.2.5.4.3.7.9.7 1.4v7.6z"/><path class="st0" d="M-4238 3329.5h-6.4c-1.1 0-1.9.9-1.9 1.9v7.6c0 1.1.9 1.9 1.9 1.9h6.4c1.1 0 1.9-.9 1.9-1.9v-7.6c0-1-.9-1.9-1.9-1.9zM-4238 3345.5h-6.4c-1.1 0-1.9.9-1.9 1.9v7.6c0 1.1.9 1.9 1.9 1.9h6.4c1.1 0 1.9-.9 1.9-1.9v-7.6c0-1-.9-1.9-1.9-1.9z"/><path class="st1" d="M-4173.1 3354.2c-.9-4.6-4.1-8.4-8.7-9.8-.7-.2-1.4-.4-2.2-.5-1.1-2.3-2.8-4.4-4.9-5.9-.9-6-5.1-11.1-11.1-13-1.6-.5-3.3-.8-5-.8-.9 0-1.8.1-2.6.2v4.6c.2-.1.4-.1.7-.1h.3c.5-.1 1-.1 1.6-.1h.1c.5 0 1.1 0 1.6.1.1 0 .2 0 .4.1.5.1 1.1.2 1.6.4 5 1.6 8.2 6.3 8.2 11.3 1.7.9 3.1 2.2 4.2 3.7.9 1.2 1.5 2.6 1.9 4.1.5 2 .4 4.1-.3 6.2-.2.6-.4 1.1-.7 1.6-.1.1-.1.2-.2.3-.3.5-.5 1-.9 1.4l-.2.2c-.3.4-.6.8-1 1.1 0 .1-.1.1-.1.2-.4.4-.8.7-1.2 1-.1.1-.2.1-.3.2-.4.3-.9.6-1.4.8h-.1c-.5.2-.9.4-1.4.6-.1 0-.2.1-.3.1-.5.2-1 .3-1.6.4h-.3c-.5.1-1 .1-1.5.1h-.1-.1c-.5 0-1.1 0-1.6-.1-.1 0-.2 0-.4-.1-.2 0-.4-.1-.7-.1v-4.1-.5c-.2-1.5-1.6-2.7-3.1-2.7s-2.7 1-3.1 2.4v23.1c.4 1.4 1.6 2.4 3.1 2.4 1.8 0 3.2-1.4 3.2-3.2v-9.2c1.5 2.7 4 4.8 7.2 5.8 1.3.4 2.6.6 3.9.6 1 0 1.9-.1 2.8-.3v3.1c0 1.8 1.4 3.2 3.2 3.2 1.8 0 3.2-1.4 3.2-3.2v-2.7c5.5-.1 10.3-3.7 12-8.9 1.7-5.2 0-10.7-4.1-14zm0 12.6c-.1.4-.3.8-.5 1.2 0 .1-.1.2-.1.2-.2.3-.4.7-.6 1 0 .1-.1.1-.1.2-.2.3-.5.6-.7.8l-.1.1c-.3.3-.6.5-.9.7-.1 0-.1.1-.2.1-.3.2-.6.4-1 .6h-.1c-.3.2-.7.3-1 .4-.1 0-.1.1-.2.1-.4.1-.7.2-1.1.3h-.2c-.3 0-.6.1-.9.1v-1.6c0-1.8-1.4-3.2-3.2-3.2-1.8 0-3.2 1.4-3.2 3.2v1c-.1 0-.2.1-.3.1-.1 0-.2.1-.3.1-.3.1-.6.1-.9.2h-.2c-.3 0-.7.1-1.1.1H-4190.3c-.3 0-.6 0-.9-.1h-.3c-.4-.1-.8-.1-1.1-.3-2.5-.8-4.4-2.7-5.3-5 6.8-.3 12.8-4.7 14.9-11.3.7-2.3.9-4.7.6-7 3.2 1.3 5.2 4.5 5.2 7.8 3.5 2 5.3 6.2 4.1 10.2z"/></g></g></svg>