<svg xmlns="http://www.w3.org/2000/svg" width="26" height="28" viewBox="0 0 26 28"><path fill="#444" d="M25.61 7.47q.624.89.28 2.015L21.593 23.64q-.297 1-1.195 1.68t-1.914.68H4.062q-1.203 0-2.32-.835T.187 23.11q-.375-1.047-.03-1.984 0-.063.046-.422t.063-.578Q.282 20 .22 19.79t-.048-.305q.03-.172.125-.328t.258-.367.258-.367q.36-.594.703-1.43t.47-1.43q.046-.156.007-.47t-.008-.437q.047-.172.266-.438t.267-.36q.328-.56.656-1.436t.39-1.406q.017-.14-.038-.5t.008-.438q.063-.203.344-.477t.344-.35q.298-.407.665-1.32t.43-1.51q.016-.124-.047-.397t-.03-.414q.03-.126.14-.282t.28-.36.267-.327q.125-.186.258-.476t.234-.547.25-.562.305-.5.414-.367.562-.18.742.086l-.016.047Q9.268 2 9.47 2h11.892q1.156 0 1.78.875t.282 2.03l-4.28 14.157q-.563 1.86-1.118 2.398t-2.008.54H2.44q-.422 0-.594.233-.172.25-.016.672Q2.205 24 4.08 24h14.422q.453 0 .875-.243t.547-.648l4.688-15.423q.11-.344.078-.89.594.233.922.67zM8.983 7.5q-.063.203.03.352T9.33 8h9.5q.203 0 .398-.148t.258-.352l.328-1q.063-.203-.03-.352T19.467 6h-9.5q-.203 0-.398.148t-.258.352zm-1.296 4q-.063.203.03.352t.314.148h9.5q.203 0 .398-.148t.258-.352l.328-1q.063-.203-.03-.352T18.17 10h-9.5q-.203 0-.398.148t-.258.352z"/></svg>