<svg id="Layer_1" xmlns="http://www.w3.org/2000/svg" viewBox="-4285 3279 140 140"><style>.st0{fill:#FFFFFF;} .st1{fill:#4A8E91;} .st2{fill:#3C5152;}</style><circle class="st0" cx="-4215" cy="3349" r="66.5"/><path class="st1" d="M-4215 3419c-38.6 0-70-31.4-70-70s31.4-70 70-70 70 31.4 70 70-31.4 70-70 70zm0-132.9c-34.7 0-62.9 28.2-62.9 62.9s28.2 62.9 62.9 62.9 62.9-28.2 62.9-62.9-28.2-62.9-62.9-62.9z"/><path class="st2" d="M-4183.2 3348h-29.8v-2.2c0-.8-.6-1.8-1.5-1.8h-.4c-.8 0-1.1.9-1.1 1.8v2.2h-30.2c-1 0-1.8.5-1.8 1.5v10.5c0 1 1 1.8 2 1.8s2-.8 2-1.8v-9h28v9.2c0 .8.2 1.8 1.1 1.8h.4c.8 0 1.5-.9 1.5-1.8v-9.2h28v9c0 1 1 1.8 2 1.8s2-.8 2-1.8v-10.5c0-1-1.2-1.5-2.2-1.5z"/><circle class="st1" cx="-4246.2" cy="3373.9" r="11.4"/><circle class="st1" cx="-4214.7" cy="3373.9" r="11.4"/><circle class="st1" cx="-4183.2" cy="3373.9" r="11.4"/><path class="st2" d="M-4211 3334.2v4.8h-5v-4.5c-4-.2-7.7-1.3-10.5-4l3.8-3.9c2 1.9 4.7 2.6 7.6 2.6 3.7 0 5.6-1.3 5.6-3.8 0-1.1-.3-2-1-2.6-.6-.6-1.4-.9-2.9-1.1l-3.9-.5c-2.8-.4-4.8-1.2-6.2-2.6-1.5-1.5-1.8-3.5-1.8-6.1 0-4.8 3.2-8.4 9.2-9.2v-4.4h5v4.3c2 .3 5.2 1.4 7.5 3.5l-4.3 3.8c-2-1.9-4.6-2.1-6.7-2.1-3.3 0-5 1.8-5 3.9 0 .8.2 1.6.9 2.2.6.6 1.6 1 3 1.2l3.8.5c2.9.4 4.8 1.2 6.1 2.4 1.7 1.6 3.1 3.8 3.1 6.5 0 5.1-5.3 8.2-8.3 9.1z"/></svg>