<svg xmlns="http://www.w3.org/2000/svg" width="24" height="28" viewBox="0 0 24 28"><path fill="#444" d="M12 2q3.266 0 6.023 1.61t4.367 4.366T24 14t-1.61 6.022-4.367 4.367T12 25.997t-6.023-1.61-4.367-4.366T0 14t1.61-6.024T5.977 3.61 12 2zm2 19.484v-2.97q0-.218-.14-.366T13.514 18h-3q-.203 0-.36.156t-.155.36v2.968q0 .203.156.36t.36.155h3q.202 0 .343-.15t.14-.366zm-.03-5.375l.28-9.704q0-.187-.156-.28Q13.938 6 13.72 6H10.28q-.22 0-.375.125-.156.094-.156.28l.267 9.704q0 .155.156.272t.375.117h2.89q.22 0 .368-.118t.164-.273z"/></svg>