<svg id="Layer_1" xmlns="http://www.w3.org/2000/svg" viewBox="-4285 3279 140 140"><style>.st0{fill:#FFFFFF;} .st1{fill:#BD2327;} .st2{fill:#8B8A8A;}</style><g id="Personal_2_"><circle class="st0" cx="-4215" cy="3349" r="66.5"/><path class="st1" d="M-4215 3419c-38.6 0-70-31.4-70-70s31.4-70 70-70 70 31.4 70 70-31.4 70-70 70zm0-132.9c-34.7 0-62.9 28.2-62.9 62.9s28.2 62.9 62.9 62.9 62.9-28.2 62.9-62.9-28.2-62.9-62.9-62.9z"/><path class="st2" d="M-4214.3 3348.4c-4.6 0-8.5-1.6-11.8-4.9s-4.9-7.2-4.9-11.8c0-4.6 1.6-8.6 4.9-11.9s7.2-5 11.8-5 8.5 1.7 11.8 5 4.9 7.3 4.9 11.9c0 4.6-1.6 8.5-4.9 11.8s-7.2 4.9-11.8 4.9z"/><path class="st1" d="M-4214.3 3353.4c7.1 0 14.5 1.5 22.1 4.6 7.7 3.1 11.5 7.1 11.5 12.1v8.5h-67.3v-8.5c0-5 3.8-9 11.5-12.1 7.7-3.1 15.1-4.6 22.2-4.6z"/></g></svg>