<svg id="Layer_1" xmlns="http://www.w3.org/2000/svg" viewBox="-4285 3279 140 140"><style>.st0{fill:#FFFFFF;} .st1{fill:#BD2327;} .st2{fill:none;} .st3{fill:#FFFFFF;stroke:#8B8A8A;stroke-width:2;stroke-linecap:round;stroke-linejoin:round;stroke-miterlimit:10;}</style><g id="HELOC_2_"><circle class="st0" cx="-4215" cy="3349" r="66.5"/><path class="st1" d="M-4215 3419c-38.6 0-70-31.4-70-70s31.4-70 70-70 70 31.4 70 70-31.4 70-70 70zm0-132.9c-34.7 0-62.9 28.2-62.9 62.9s28.2 62.9 62.9 62.9 62.9-28.2 62.9-62.9-28.2-62.9-62.9-62.9z"/><g><path class="st2" d="M-4180.4 3345.7c-.1 0-.1 0-.2-.1 0 .1.1.1.2.1zM-4178.6 3345.7c-.1 0-.1 0-.2.1 0-.1.1-.1.2-.1zM-4179.6 3345.8zM-4177.9 3345.4c-.1 0-.1.1-.2.1 0-.1.1-.1.2-.1z"/><path class="st3" d="M-4244.7 3351.6v25.5c0 1.3 1.1 2.4 2.4 2.4h52.1c1.3 0 2.4-1.1 2.4-2.4V3349c0-.8-.4-1.5-1.1-2l-26.1-17.3c-.4-.3-.9-.4-1.3-.4-.5 0-.9.1-1.3.4l-6.4 4.2-6.2 4.1-13.4 8.9c-.7.4-1.1 1.2-1.1 2v2.7"/><path class="st1" d="M-4177.7 3339.7l-10.3-6.9v-14.3c0-1.9-1.5-3.4-3.4-3.4h-5.6c-1.9 0-3.4 1.5-3.4 3.4v6.2l-14.1-9.3c-.6-.4-1.2-.6-1.9-.6-.6 0-1.3.2-1.9.6l-10.3 6.8-5.1 3.4-21.3 14.2c-.6.4-1.1 1-1.3 1.7-.3 1-.2 2 .4 2.9.6 1 1.7 1.5 2.8 1.5.6 0 1.3-.2 1.9-.6l.3-.2 20.3-13.5 5.3-3.5 8.9-5.9 34.8 23.1c.3.2.5.3.8.4.1 0 .1 0 .2.1.3.1.5.1.8.1.2 0 .5 0 .7-.1.1 0 .1 0 .2-.1.2 0 .3-.1.5-.2.1 0 .2-.1.2-.1.2-.1.3-.2.4-.3.1 0 .1-.1.2-.1.2-.2.4-.4.5-.6 1.3-1.6.9-3.7-.6-4.7z"/><path class="st0" d="M-4214.4 3315.3c-1.1-.7-2.6-.7-3.7 0 .6-.4 1.2-.6 1.9-.6.6 0 1.3.2 1.8.6zM-4177.5 3345.1c-.1.1-.3.2-.4.3.1-.1.3-.2.4-.3zM-4178.1 3345.5c-.2.1-.3.1-.5.2.1-.1.3-.1.5-.2zM-4179.6 3345.8c-.3 0-.5 0-.8-.1.2.1.5.1.8.1zM-4178.8 3345.7c-.2.1-.5.1-.7.1.2 0 .4 0 .7-.1zM-4180.6 3345.6c-.3-.1-.6-.2-.8-.4.2.2.5.3.8.4z"/><path class="st1" d="M-4214 3369.2v4.1h-3.6v-3.9c-3.1-.2-5.5-1.1-7.7-3.2l3.1-3.1c1.6 1.6 3.7 2.1 5.9 2.1 2.8 0 4.3-1.1 4.3-3.1 0-.9-.2-1.6-.8-2.1-.5-.5-1-.7-2.2-.9l-3-.4c-2.1-.3-3.6-1-4.8-2.1-1.2-1.2-1.8-2.8-1.8-4.9 0-3.9 2.5-6.8 6.7-7.4v-3.5h3.6v3.5c2.5.3 4.4 1.1 6.2 2.8l-3 3c-1.6-1.5-3.4-1.7-5-1.7-2.5 0-3.8 1.4-3.8 3.1 0 .6.2 1.3.7 1.8.5.5 1.3.8 2.3 1l2.9.4c2.2.3 3.7.9 4.7 1.9 1.3 1.3 1.9 3.1 1.9 5.3.2 4-2.6 6.6-6.6 7.3z"/></g></g></svg>