<?xml version="1.0" encoding="utf-8"?>
<!-- Generator: Adobe Illustrator 19.0.0, SVG Export Plug-In . SVG Version: 6.00 Build 0)  -->
<svg version="1.1" id="Layer_1" xmlns="http://www.w3.org/2000/svg" xmlns:xlink="http://www.w3.org/1999/xlink" x="0px" y="0px"
	 viewBox="0 0 117.3 108" style="enable-background:new 0 0 117.3 108;" xml:space="preserve">
<style type="text/css">
	.st0{fill:#396E70;}
	.st1{fill:#3D5253;}
	.st2{opacity:0.3;fill:#FFFFFF;}
</style>
<g>
	<path class="st0" d="M32.5,53c-3.5-8-5.2-16-5.2-26H9v5.9c0,3.7,2.3,7.8,6.8,11.8S25.9,52,32.5,53L32.5,53z M108,34v-7H90.3
		c0,10-1.7,18.1-5.2,25.7c6.6-1.4,12.1-3.7,16.6-7.6c4.4-3.9,6.7-8.1,6.7-11.1H108z M117,25v7.9c0,3.3-0.8,6.7-2.8,10.1
		s-4.5,6.4-7.8,9.1s-7.3,5-12.1,6.9c-4.8,1.9-9.8,2.9-15.1,3.1c-2,2.5-4.2,4.8-6.7,6.7c-1.8,1.6-3,3.3-3.7,5.1c-0.7,1.8-1,3.9-1,6.3
		c0,2.5,0.7,4.7,2.1,6.4c1.4,1.7,3.7,2.6,6.9,2.6c3.5,0,6.5,1.1,9.2,3.2c2.7,2.1,4,4.8,4,8.1v4.5c0,0.7-0.1,1.6-0.5,2
		c-0.4,0.4-0.8,1-1.5,1H29.5c-0.7,0-1.3-0.6-1.8-1c-0.4-0.4-0.8-1.4-0.8-2v-4.5c0-3.2,1.5-5.9,4.3-8.1c2.7-2.1,5.9-3.2,9.5-3.2
		c3.1,0,5.5-0.9,6.9-2.6c1.4-1.7,2.2-3.9,2.2-6.4c0-2.4-0.3-4.5-1-6.3c-0.7-1.8-1.9-3.5-3.7-5.1c-2.5-1.9-4.7-4.2-6.7-6.7
		C33.1,61.9,28,60.8,23.2,59c-4.8-1.9-8.9-4.1-12.2-6.9S5,46.3,3,43c-1.9-3.4-3-6.7-3-10.1v-9c0-1.9,0.8-3,2.1-4.4S5.1,18,7,18h20
		v-7.6c0-3.1,1.2-5.3,3.4-7.5s5-2.9,8.1-2.9h40.5c3.1,0,5.6,0.7,7.8,2.9c2.2,2.2,3.1,4.4,3.1,7.5V18h20.6c1.9,0,3.5,0.8,4.8,2.1
		c1.3,1.3,2,2.9,2,4.9H117z"/>
	<path id="XMLID_2_" class="st1" d="M88.3,108h-59c-1.1,0-2.3-1.5-2.3-2.6V101h63v4.4C90,106.5,89.4,108,88.3,108z"/>
	<path id="XMLID_1_" class="st2" d="M70,0c0,0,7,0,11.5,0c0.9,14,0.6,22,0,30.1s-3.2,19.7-9.4,30.7c-6,10.3-7.1,19.4-6.3,22.7
		c0.8,3.2,2.8,6.9,12.2,8.6c9.5,2.8,9.2,16,9.2,16H73.8c0,0,3.2-8.8-2.4-13.9c-13.6-9.3-11-23.4-3.5-43.5S70,0,70,0z"/>
</g>
</svg>
