<svg id="Layer_1" xmlns="http://www.w3.org/2000/svg" viewBox="-4285 3279 140 140"><style>.st0{fill:#FFFFFF;} .st1{fill:#F48D83;}</style><g id="_x32__-_final_3_"><circle class="st0" cx="-4215" cy="3349" r="66.5"/><path class="st1" d="M-4215 3419c-38.6 0-70-31.4-70-70s31.4-70 70-70 70 31.4 70 70-31.4 70-70 70zm0-132.9c-34.7 0-62.9 28.2-62.9 62.9s28.2 62.9 62.9 62.9 62.9-28.2 62.9-62.9-28.2-62.9-62.9-62.9z"/><path class="st1" d="M-4215.8 3314.4c2 0 3.6.7 5 2.1 1.4 1.4 2.1 3.1 2.1 5v21.3h21.3c2 0 3.6.7 5 2.1 1.4 1.4 2.1 3.1 2.1 5 0 2-.7 3.6-2.1 5-1.4 1.4-3.1 2.1-5 2.1h-21.3v21.3c0 2-.7 3.6-2.1 5-1.4 1.4-3.1 2.1-5 2.1s-3.6-.7-5-2.1-2.1-3.1-2.1-5V3357h-21.3c-2 0-3.6-.7-5-2.1-1.4-1.4-2.1-3.1-2.1-5 0-2 .7-3.6 2.1-5 1.4-1.4 3.1-2.1 5-2.1h21.3v-21.3c0-2 .7-3.6 2.1-5 1.3-1.4 3-2.1 5-2.1z"/></g></svg>