<?xml version="1.0" encoding="utf-8"?>
<!-- Generator: Adobe Illustrator 19.0.0, SVG Export Plug-In . SVG Version: 6.00 Build 0)  -->
<svg version="1.1" id="Layer_1" xmlns="http://www.w3.org/2000/svg" xmlns:xlink="http://www.w3.org/1999/xlink" x="0px" y="0px"
	 viewBox="-227 350.9 140 140" style="enable-background:new -227 350.9 140 140;" xml:space="preserve">
<style type="text/css">
	.st0{fill:#FFC745;}
	.st1{fill:#D79F29;}
	.st2{fill:#FFFFFF;}
	.st3{fill:#D79F29;stroke:#D79F29;stroke-linecap:round;stroke-linejoin:round;stroke-miterlimit:10;}
	.st4{fill:#E1614A;}
</style>
<g id="FAQs">
	<circle class="st0" cx="-4442" cy="3699.9" r="66.5"/>
	<path class="st1" d="M-4442,3769.9c-38.6,0-70-31.4-70-70s31.4-70,70-70s70,31.4,70,70S-4403.4,3769.9-4442,3769.9z M-4442,3637
		c-34.7,0-62.9,28.2-62.9,62.9s28.2,62.9,62.9,62.9s62.9-28.2,62.9-62.9S-4407.3,3637-4442,3637z"/>
	<g>
		<rect x="-4476.5" y="3655.7" class="st2" width="49" height="66.5"/>
		<polygon class="st2" points="-4424,3666 -4424,3725.7 -4466,3725.7 -4466,3732.7 -4417,3732.7 -4417,3666.2 		"/>
		<polygon class="st2" points="-4406.5,3676.7 -4413.5,3676.5 -4413.5,3736.2 -4455.5,3736.2 -4455.5,3743.2 -4406.5,3743.2 		"/>
		<path class="st3" d="M-4442.7,3672.6c-2.5-1.8-5.6-2.7-9.3-2.7c-2.8,0-5.2,0.6-7.2,1.9c-3.1,2-4.7,5.3-4.9,10.1h7.2
			c0-1.4,0.4-2.7,1.2-4c0.8-1.3,2.2-1.9,4.1-1.9s3.3,0.5,4,1.6c0.7,1,1.1,2.2,1.1,3.5c0,1.1-0.5,2.1-1.2,3c-0.4,0.5-0.8,1-1.4,1.5
			c0,0-3.9,2.5-5.6,4.5c-1,1.2-1.1,2.9-1.2,5.4c0,0.2,0.1,0.6,0.7,0.6h5.6c0.6,0,0.7-0.4,0.7-0.6c0-0.9,0.1-1.4,0.3-1.9
			c0.3-1,1.2-1.9,2.1-2.6l2-1.4c1.8-1.4,3.2-2.6,3.8-3.5c1.1-1.5,1.8-3.3,1.8-5.5C-4439,3677.1-4440.2,3674.4-4442.7,3672.6
			L-4442.7,3672.6z M-4452.1,3700.4c-2.5-0.1-4.5,1.6-4.6,4.4c-0.1,2.7,1.9,4.5,4.3,4.6c2.6,0.1,4.6-1.6,4.6-4.3
			C-4447.7,3702.3-4449.6,3700.4-4452.1,3700.4z"/>
	</g>
</g>
<g>
	<path class="st4" d="M-157,366c30.3,0,54.9,24.6,54.9,54.9s-24.6,54.9-54.9,54.9s-54.9-24.6-54.9-54.9S-187.3,366-157,366
		 M-157,352c-38,0-68.9,30.8-68.9,68.9s30.8,68.9,68.9,68.9s68.9-30.8,68.9-68.9S-119,352-157,352L-157,352z"/>
</g>
<path class="st4" d="M-127.7,413.3h-21.7v-21.7c0-4.2-3.4-7.6-7.6-7.6c-4.2,0-7.6,3.4-7.6,7.6v21.7h-21.7c-4.2,0-7.6,3.4-7.6,7.6
	c0,4.2,3.4,7.6,7.6,7.6h21.7v21.7c0,4.2,3.4,7.6,7.6,7.6c4.2,0,7.6-3.4,7.6-7.6v-21.7h21.7c4.2,0,7.6-3.4,7.6-7.6
	C-120.1,416.7-123.5,413.3-127.7,413.3z"/>
</svg>
