<svg id="Layer_1" xmlns="http://www.w3.org/2000/svg" viewBox="-4285 3279 140 140"><style>.st0{fill:#FFFFFF;} .st1{fill:#BD2327;} .st2{fill:#8B8A8A;} .st3{fill:#F2F2F2;} .st4{fill:#BD2327;stroke:#FFFFFF;stroke-width:2;stroke-miterlimit:10;}</style><g id="_x32__-_final_2_"><circle class="st0" cx="-4215" cy="3349" r="66.5"/><path class="st1" d="M-4215 3419c-38.6 0-70-31.4-70-70s31.4-70 70-70 70 31.4 70 70-31.4 70-70 70zm0-132.9c-34.7 0-62.9 28.2-62.9 62.9s28.2 62.9 62.9 62.9 62.9-28.2 62.9-62.9-28.2-62.9-62.9-62.9z"/><g><circle class="st2" cx="-4215.8" cy="3349" r="35.4"/><path class="st3" d="M-4212.7 3366.4v5.8h-5.1v-5.5c-4.4-.3-7.9-1.5-10.9-4.6l4.4-4.5c2.2 2.2 5.2 3 8.4 3 4 0 6.2-1.5 6.2-4.4 0-1.2-.3-2.3-1.1-3-.7-.6-1.5-1-3.1-1.2l-4.2-.6c-3-.4-5.2-1.4-6.8-2.9-1.7-1.7-2.5-4-2.5-7 0-5.5 3.6-9.6 9.5-10.6v-5h5.1v5c3.6.4 6.3 1.6 8.8 4l-4.3 4.3c-2.2-2.1-4.9-2.4-7.2-2.4-3.6 0-5.4 2-5.4 4.5 0 .9.3 1.8 1 2.5.7.6 1.8 1.2 3.2 1.4l4.1.6c3.2.4 5.2 1.3 6.7 2.7 1.9 1.8 2.7 4.4 2.7 7.5.2 5.7-3.8 9.4-9.5 10.4z"/><circle class="st4" cx="-4180.4" cy="3366.7" r="17.7"/><path class="st0" d="M-4171.4 3364.2c.4 0 .7.1.9.4s.4.5.4.9v2.5c0 .4-.1.7-.4.9-.2.2-.5.4-.9.4h-17.2c-.4 0-.7-.1-.9-.4s-.4-.5-.4-.9v-2.5c0-.4.1-.7.4-.9.2-.2.5-.4.9-.4h17.2z"/></g></g></svg>