<svg id="Layer_1" xmlns="http://www.w3.org/2000/svg" viewBox="-4285 3279 140 140"><style>.st0{fill:#FFFFFF;} .st1{fill:#BD2327;} .st2{fill:#8B8A8A;}</style><g id="Line_Of_Credit"><circle class="st0" cx="-4215" cy="3349" r="66.5"/><path class="st1" d="M-4215 3419c-38.6 0-70-31.4-70-70s31.4-70 70-70 70 31.4 70 70-31.4 70-70 70zm0-132.9c-34.7 0-62.9 28.2-62.9 62.9s28.2 62.9 62.9 62.9 62.9-28.2 62.9-62.9-28.2-62.9-62.9-62.9z"/><g id="_x32_4"><path class="st2" d="M-4172 3321.9v41.7c0 1.2-.9 2.1-2.1 2.1-1.2 0-2.1-.9-2.1-2.1V3324h-70.4c-1.2 0-2.1-.9-2.1-2.1 0-1.2.9-2.1 2.1-2.1h72.5c1.1 0 2.1.9 2.1 2.1z"/><path class="st2" d="M-4180.2 3325.4h-72.5c-1.2 0-2.1.9-2.1 2.1s.9 2.1 2.1 2.1h70.4v39.6c0 1.2.9 2.1 2.1 2.1 1.2 0 2.1-.9 2.1-2.1v-41.7c0-1.2-.9-2.1-2.1-2.1z"/><path class="st1" d="M-4183.9 3333.7v41.7c0 1.5-1.2 2.8-2.8 2.8h-72.5c-1.5 0-2.8-1.2-2.8-2.8v-41.7c0-1.5 1.3-2.8 2.8-2.8h72.5c1.6.1 2.8 1.3 2.8 2.8z"/><rect x="-4256.3" y="3336.5" class="st0" width="66.9" height="36.1"/><path class="st1" d="M-4254.1 3366.1c-.2-.2-.3-.4-.3-.6v-21.7c0-.2.1-.5.3-.6.2-.2.4-.2.7-.2h.5c1.8 0 3.3-1.5 3.3-3.3v-.2c0-.2.1-.5.2-.6.2-.2.4-.3.6-.3h51.8c.2 0 .5.1.6.3.2.2.2.4.2.6v.2c0 1.9 1.5 3.4 3.3 3.4h.4c.2 0 .5 0 .7.2.2.2.3.4.3.6v21.7c0 .2-.1.5-.3.6-.2.2-.4.2-.7.2-.2 0-.3-.1-.5-.1-1.8 0-3.3 1.5-3.3 3.3v.2c0 .2-.1.5-.2.6-.2.2-.4.3-.6.3h-51.8c-.2 0-.5-.1-.6-.3-.2-.2-.2-.4-.2-.6v-.2c0-1.9-1.5-3.4-3.3-3.4h-.4c-.2.1-.5 0-.7-.1z"/><path class="st0" d="M-4235 3354.6c0 6.7 5.4 12.1 12.1 12.1 6.7 0 12.1-5.4 12.1-12.1 0-6.7-5.4-12.1-12.1-12.1-6.7 0-12.1 5.4-12.1 12.1z"/><path class="st1" d="M-4223.5 3359.1c-1.5 0-2.8-.5-3.8-1l-.7 2.7c.9.5 2.3.9 3.9 1v2.2h2.3v-2.4c2.6-.4 4-2.2 4-4.2 0-2.1-1.1-3.3-3.8-4.3-2-.7-2.8-1.2-2.8-1.9 0-.6.5-1.3 2-1.3 1.6 0 2.7.5 3.3.8l.7-2.6c-.8-.4-1.8-.7-3.3-.8v-2h-2.2v2.2c-2.4.5-3.9 2-3.9 4.1 0 2.2 1.7 3.4 4.1 4.2 1.7.6 2.4 1.1 2.4 2 0 .7-.9 1.3-2.2 1.3z"/></g></g></svg>