<svg xmlns="http://www.w3.org/2000/svg" width="36" height="28" viewBox="0 0 36 28"><path fill="#444" d="M35.75 12.578q.25.125.25.422t-.25.422l-5 3q-.125.078-.25.078-.14 0-.25-.063Q30 16.28 30 16v-2H16.594q.578.905 1.297 2.577.25.578.384.86t.375.765.42.734.423.53.492.407.516.125H22v-1.5q0-.22.142-.36t.36-.14h5q.218 0 .358.14t.14.36v5q0 .22-.14.36t-.36.14h-5q-.218 0-.358-.14t-.14-.36v-1.5h-1.5q-.5 0-.954-.156t-.797-.367-.702-.633-.578-.72-.523-.89-.445-.898-.438-.945q-.36-.83-.578-1.274t-.562-1.016-.695-.836-.728-.266H7.877q-.344 1.313-1.422 2.156t-2.453.844q-1.656 0-2.828-1.172T.002 12.998t1.172-2.828 2.828-1.172q1.375 0 2.453.844t1.422 2.156h1.625q.375 0 .727-.266t.694-.836.562-1.016.578-1.273q.297-.64.438-.945t.445-.898.523-.89.578-.72.703-.633.798-.366.953-.156h1.673q.328-.89 1.094-1.445T21 1.998q1.25 0 2.126.875T24 4.998t-.874 2.125T21 7.998q-.968 0-1.733-.555t-1.094-1.445H16.5q-.265 0-.515.125t-.492.406-.422.53-.42.734-.376.766-.383.86q-.718 1.67-1.296 2.577H30v-2q0-.28.25-.438t.5.015z"/></svg>