<svg id="Layer_1" xmlns="http://www.w3.org/2000/svg" viewBox="-4285 3279 140 140"><style>.st0{fill:#FFC745;stroke:#FFC745;stroke-miterlimit:10;} .st1{fill:#FFFFFF;} .st2{fill:#D79F29;stroke:#D79F29;stroke-miterlimit:10;}</style><g id="My_Profile"><ellipse class="st0" cx="-4215" cy="3349" rx="66" ry="66.3"/><path class="st1" d="M-4169.9 3400.2s1.8-1.3 1.2-4.7c-.4-2.7-4.2-6.3-20.1-12.2-15.6-5.8-14.7-3-14.7-13.6 0-6.9 3.5-2.9 5.7-16 .9-5.1 1.6-1.7 3.4-10 1-4.3-.7-4.7-.5-6.7.2-2.1.4-3.9.8-8.1.4-5.2-4.4-19-21.7-19-17.3 0-22.1 13.8-21.7 19 .4 4.2.6 6.1.8 8.1.2 2.1-1.5 2.4-.5 6.7 1.9 8.2 2.6 4.8 3.4 10 2.2 13.1 5.7 9.1 5.7 16 0 10.6 1 7.8-14.7 13.6-15.9 5.8-19.6 9.5-20.1 12.2-.6 3.4 1.2 6.4 1.2 6.4l45.7 14.2 46.1-15.9z"/><path class="st2" d="M-4215 3418.9c-38.3 0-69.5-31.3-69.5-69.9 0-38.5 31.2-69.9 69.5-69.9s69.5 31.3 69.5 69.9c0 38.5-31.2 69.9-69.5 69.9zm0-132.7c-34.4 0-62.5 28.2-62.5 62.8s28 62.8 62.5 62.8 62.5-28.2 62.5-62.8-28.1-62.8-62.5-62.8z"/></g></svg>