<svg id="Layer_1" xmlns="http://www.w3.org/2000/svg" viewBox="-4285 3279 140 140"><style>.st0{fill:#FFFFFF;} .st1{fill:#E79446;} .st2{fill:#4C8E90;} .st3{fill:#3C5152;}</style><g id="Can_I_Buy_x3F__1_"><circle class="st0" cx="-4215" cy="3349" r="66.5"/><path class="st1" d="M-4215 3419c-38.6 0-70-31.4-70-70s31.4-70 70-70 70 31.4 70 70-31.4 70-70 70zm0-132.9c-34.7 0-62.9 28.2-62.9 62.9s28.2 62.9 62.9 62.9 62.9-28.2 62.9-62.9-28.2-62.9-62.9-62.9z"/><g><path class="st2" d="M-4196.3 3325.9l2.7 45.1h-54.4l2.7-45.1c.1-.5.3-.9.7-1.3.4-.4.8-.5 1.4-.5h8.2v4.1c0 1.1.4 2.1 1.2 2.9s1.8 1.2 2.9 1.2 2.1-.4 2.9-1.2 1.2-1.8 1.2-2.9v-4.1h12.2v4.1c0 1.1.4 2.1 1.2 2.9.8.8 1.8 1.2 2.9 1.2 1.1 0 2.1-.4 2.9-1.2.8-.8 1.2-1.8 1.2-2.9v-4.1h8.2c.5 0 1 .2 1.4.5.2.4.4.8.5 1.3z"/><path class="st3" d="M-4208.6 3320v8.2c0 .6-.2 1-.6 1.4-.4.4-.9.6-1.4.6-.6 0-1-.2-1.4-.6-.4-.4-.6-.9-.6-1.4v-8.2c0-2.3-.8-4.2-2.4-5.8-1.6-1.6-3.5-2.4-5.8-2.4s-4.2.8-5.8 2.4c-1.6 1.6-2.4 3.5-2.4 5.8v8.2c0 .6-.2 1-.6 1.4-.4.4-.9.6-1.4.6s-1-.2-1.4-.6c-.4-.4-.6-.9-.6-1.4v-8.2c0-3.4 1.2-6.3 3.6-8.6 2.4-2.4 5.3-3.6 8.6-3.6 3.4 0 6.3 1.2 8.6 3.6 2.4 2.4 3.6 5.3 3.6 8.6z"/><path class="st0" d="M-4197.5 3388c-4 0-7.8-1-11.2-3-3.4-2-6.1-4.7-8.1-8.1-2-3.4-3-7.2-3-11.2s1-7.8 3-11.2c2-3.4 4.7-6.1 8.1-8.1 3.4-2 7.2-3 11.2-3 4 0 7.8 1 11.2 3 3.4 2 6.1 4.7 8.1 8.1 2 3.4 3 7.2 3 11.2s-1 7.8-3 11.2c-2 3.4-4.7 6.1-8.1 8.1-3.4 2-7.2 3-11.2 3z"/><path class="st1" d="M-4194.4 3377.3v-4.7c0-.2-.1-.4-.2-.6s-.3-.2-.6-.2h-4.7c-.2 0-.4.1-.6.2s-.2.3-.2.6v4.7c0 .2.1.4.2.6.1.1.3.2.6.2h4.7c.2 0 .4-.1.6-.2.1-.2.2-.4.2-.6zm6.2-16.3c0-1.4-.4-2.7-1.3-4-.9-1.2-2-2.2-3.4-2.8-1.3-.7-2.7-1-4.1-1-3.9 0-6.9 1.7-9 5.2-.2.4-.2.7.2 1l3.2 2.4c.1.1.3.1.5.1.3 0 .5-.1.6-.3.9-1.1 1.6-1.8 2.1-2.2.6-.4 1.2-.6 2.1-.6.8 0 1.5.2 2.1.6.6.4.9.9.9 1.4 0 .6-.2 1.1-.5 1.5-.3.4-.9.7-1.7 1.1-1 .5-2 1.2-2.8 2.1-.9.9-1.3 2-1.3 3v.9c0 .2.1.4.2.6s.3.2.6.2h4.7c.2 0 .4-.1.6-.2s.2-.3.2-.6.2-.7.5-1.2.8-.9 1.3-1.2c.5-.3.9-.5 1.2-.7.3-.2.6-.5 1.1-.9.5-.4.8-.8 1.1-1.2.3-.4.5-.9.7-1.5.1-.3.2-1 .2-1.7zm9.3 4.7c0 3.4-.8 6.5-2.5 9.4-1.7 2.9-3.9 5.1-6.8 6.8-2.9 1.7-6 2.5-9.4 2.5s-6.5-.8-9.4-2.5-5.1-3.9-6.8-6.8c-1.7-2.9-2.5-6-2.5-9.4s.8-6.5 2.5-9.4c1.7-2.9 3.9-5.1 6.8-6.8s6-2.5 9.4-2.5c3.4 0 6.5.8 9.4 2.5 2.9 1.7 5.1 3.9 6.8 6.8 1.7 2.9 2.5 6 2.5 9.4z"/></g></g></svg>