<svg id="Layer_1" xmlns="http://www.w3.org/2000/svg" viewBox="-4285 3279 140 140"><style>.st0{fill:#FFC745;} .st1{fill:#D79F29;} .st2{fill:#FFFFFF;} .st3{fill:#D79F29;stroke:#D79F29;stroke-linecap:round;stroke-linejoin:round;stroke-miterlimit:10;}</style><g id="FAQs"><circle class="st0" cx="-4215" cy="3349" r="66.5"/><path class="st1" d="M-4215 3419c-38.6 0-70-31.4-70-70s31.4-70 70-70 70 31.4 70 70-31.4 70-70 70zm0-132.9c-34.7 0-62.9 28.2-62.9 62.9s28.2 62.9 62.9 62.9 62.9-28.2 62.9-62.9-28.2-62.9-62.9-62.9z"/><g><rect x="-4249.5" y="3304.8" class="st2" width="49" height="66.5"/><polygon class="st2" points="-4197,3315.1 -4197,3374.8 -4239,3374.8 -4239,3381.8 -4190,3381.8 -4190,3315.3"/><polygon class="st2" points="-4179.5,3325.8 -4186.5,3325.6 -4186.5,3385.3 -4228.5,3385.3 -4228.5,3392.3 -4179.5,3392.3"/><path class="st3" d="M-4215.7 3321.7c-2.5-1.8-5.6-2.7-9.3-2.7-2.8 0-5.2.6-7.2 1.9-3.1 2-4.7 5.3-4.9 10.1h7.2c0-1.4.4-2.7 1.2-4 .8-1.3 2.2-1.9 4.1-1.9 1.9 0 3.3.5 4 1.6.7 1 1.1 2.2 1.1 3.5 0 1.1-.5 2.1-1.2 3-.4.5-.8 1-1.4 1.5 0 0-3.9 2.5-5.6 4.5-1 1.2-1.1 2.9-1.2 5.4 0 .2.1.6.7.6h5.6c.6 0 .7-.4.7-.6 0-.9.1-1.4.3-1.9.3-1 1.2-1.9 2.1-2.6l2-1.4c1.8-1.4 3.2-2.6 3.8-3.5 1.1-1.5 1.8-3.3 1.8-5.5-.1-3.5-1.3-6.2-3.8-8zm-9.4 27.8c-2.5-.1-4.5 1.6-4.6 4.4-.1 2.7 1.9 4.5 4.3 4.6 2.6.1 4.6-1.6 4.6-4.3.1-2.8-1.8-4.7-4.3-4.7z"/></g></g></svg>