<svg id="Layer_1" xmlns="http://www.w3.org/2000/svg" viewBox="-4285 3279 140 140"><style>.st0{fill:#FFFFFF;} .st1{fill:#8DC44A;} .st2{fill:#3C5152;} .st3{fill:#4C8E90;} .st4{fill:#C2C0AD;}</style><g id="_x31__1_"><circle class="st0" cx="-4215" cy="3349" r="66.5"/><path class="st1" d="M-4215 3419c-38.6 0-70-31.4-70-70s31.4-70 70-70 70 31.4 70 70-31.4 70-70 70zm0-132.9c-34.7 0-62.9 28.2-62.9 62.9s28.2 62.9 62.9 62.9 62.9-28.2 62.9-62.9-28.2-62.9-62.9-62.9z"/><path class="st2" d="M-4225.4 3385.2c0 1.5-.5 2.8-1.6 3.8-1.1 1.1-2.4 1.6-3.8 1.6s-2.8-.5-3.8-1.6-1.6-2.4-1.6-3.8c0-1.5.5-2.8 1.6-3.8 1.1-1.1 2.4-1.6 3.8-1.6s2.8.5 3.8 1.6c1.1 1 1.6 2.3 1.6 3.8zm38.2 0c0 1.5-.5 2.8-1.6 3.8-1.1 1.1-2.4 1.6-3.8 1.6s-2.8-.5-3.8-1.6-1.6-2.4-1.6-3.8c0-1.5.5-2.8 1.6-3.8 1.1-1.1 2.4-1.6 3.8-1.6s2.8.5 3.8 1.6c1 1 1.6 2.3 1.6 3.8z"/><path class="st3" d="M-4181.8 3338.8v21.8c0 .7-.2 1.3-.7 1.8-.5.5-1 .8-1.7.9l-44.5 5.2c.4 1.7.6 2.7.6 3 0 .5-.3 1.4-1 2.7h39.2c.7 0 1.4.3 1.9.8s.8 1.2.8 1.9-.3 1.4-.8 1.9-1.2.8-1.9.8h-43.6c-.7 0-1.4-.3-1.9-.8s-.8-1.2-.8-1.9c0-.3.1-.8.3-1.3.2-.6.5-1.1.7-1.5.2-.4.5-1 .9-1.7s.6-1.1.7-1.3l-7.5-35.1h-8.7c-.7 0-1.4-.3-1.9-.8s-.8-1.2-.8-1.9.3-1.4.8-1.9 1.2-.8 1.9-.8h10.9c.5 0 .9.1 1.2.3.4.2.6.4.8.7.2.3.4.6.6 1s.3.8.3 1.1c.1.3.1.7.2 1.3.1.5.2.9.2 1.1h51.2c.7 0 1.4.3 1.9.8.5.6.7 1.2.7 1.9z"/><g><path class="st4" d="M-4205.3 3324.7h10.2v19.8c0 .5-.2.9-.5 1.3-.4.4-.8.5-1.3.5h-25.3c-.5 0-.9-.2-1.3-.5-.4-.4-.5-.8-.5-1.3v-30.1c0-.5.2-.9.5-1.3s.8-.5 1.3-.5h15v10.2c0 .5.2.9.5 1.3.5.4.9.6 1.4.6zm3 13.8v-1.2c0-.2-.1-.3-.2-.4-.1-.1-.3-.2-.4-.2h-13.2c-.2 0-.3.1-.4.2-.1.1-.2.3-.2.4v1.2c0 .2.1.3.2.4.1.1.3.2.4.2h13.2c.2 0 .3-.1.4-.2s.2-.2.2-.4zm0-4.8v-1.2c0-.2-.1-.3-.2-.4-.1-.1-.3-.2-.4-.2h-13.2c-.2 0-.3.1-.4.2-.1.1-.2.3-.2.4v1.2c0 .2.1.3.2.4.1.1.3.2.4.2h13.2c.2 0 .3-.1.4-.2s.2-.2.2-.4zm0-4.8v-1.2c0-.2-.1-.3-.2-.4-.1-.1-.3-.2-.4-.2h-13.2c-.2 0-.3.1-.4.2-.1.1-.2.3-.2.4v1.2c0 .2.1.3.2.4.1.1.3.2.4.2h13.2c.2 0 .3-.1.4-.2s.2-.2.2-.4zm6-7.3c.2.2.4.4.5.7h-8.9v-8.9c.3.2.5.4.7.5l7.7 7.7z"/><path class="st0" d="M-4207.1 3312.7v10.2c0 .5.2.9.5 1.3.4.4.8.5 1.3.5h10.2v19.8c0 .5-.2.9-.5 1.3-.4.4-.8.5-1.3.5h-25.3c-.5 0-.9-.2-1.3-.5-.4-.4-.5-.8-.5-1.3v-30.1c0-.5.2-.9.5-1.3s.8-.5 1.3-.5h15.1m-9 16.9h13.2c.2 0 .3-.1.4-.2s.2-.3.2-.4v-1.2c0-.2-.1-.3-.2-.4-.1-.1-.3-.2-.4-.2h-13.2c-.2 0-.3.1-.4.2-.1.1-.2.3-.2.4v1.2c0 .2.1.3.2.4.1.2.2.2.4.2m0 4.8h13.2c.2 0 .3-.1.4-.2s.2-.3.2-.4v-1.2c0-.2-.1-.3-.2-.4-.1-.1-.3-.2-.4-.2h-13.2c-.2 0-.3.1-.4.2-.1.1-.2.3-.2.4v1.2c0 .2.1.3.2.4.1.2.2.2.4.2m0 4.8h13.2c.2 0 .3-.1.4-.2s.2-.3.2-.4v-1.2c0-.2-.1-.3-.2-.4s-.3-.2-.4-.2h-13.2c-.2 0-.3.1-.4.2-.1.1-.2.3-.2.4v1.2c0 .2.1.3.2.4.1.2.2.2.4.2m11.4-25.7c.3.2.5.4.7.5l7.7 7.7c.2.2.4.4.5.7h-8.9v-8.9m-17.4-4.3c-1.4 0-2.8.6-3.8 1.6s-1.6 2.4-1.6 3.8v30.1c0 1.4.6 2.8 1.6 3.8s2.4 1.6 3.8 1.6h25.3c1.4 0 2.8-.6 3.8-1.6s1.6-2.4 1.6-3.8v-22.1l-13.3-13.3h-17.4z"/></g></g></svg>