<?xml version="1.0" encoding="utf-8"?>
<!-- Generator: Adobe Illustrator 20.0.0, SVG Export Plug-In . SVG Version: 6.00 Build 0)  -->
<svg version="1.1" id="Layer_1" xmlns="http://www.w3.org/2000/svg" xmlns:xlink="http://www.w3.org/1999/xlink" x="0px" y="0px"
	 viewBox="0 0 36 37" style="enable-background:new 0 0 36 37;" xml:space="preserve">
<style type="text/css">
	.st0{fill:#FFFFFF;}
	.st1{fill:#E5E0C7;}
	.st2{fill:#AAA99B;}
</style>
<g>
	<g>
		<circle class="st0" cx="18" cy="18.6" r="17.1"/>
		<path class="st1" d="M18,36.6c-9.9,0-18-8.1-18-18c0-9.9,8.1-18,18-18c9.9,0,18,8.1,18,18C36,28.5,27.9,36.6,18,36.6z M18,2.4
			C9,2.4,1.8,9.7,1.8,18.6S9,34.8,18,34.8c8.9,0,16.2-7.3,16.2-16.2S26.9,2.4,18,2.4z"/>
	</g>
	<path class="st2" d="M14.4,18.3l5.2-5.2c0.1-0.1,0.2-0.1,0.3-0.1s0.2,0,0.3,0.1l1.2,1.2c0.1,0.1,0.1,0.2,0.1,0.3
		c0,0.1,0,0.2-0.1,0.3l-3.7,3.7l3.7,3.7c0.1,0.1,0.1,0.2,0.1,0.3s0,0.2-0.1,0.3l-1.2,1.2c-0.1,0.1-0.2,0.1-0.3,0.1s-0.2,0-0.3-0.1
		l-5.2-5.2c-0.1-0.1-0.1-0.2-0.1-0.3C14.3,18.5,14.4,18.4,14.4,18.3z"/>
</g>
</svg>
