<svg xmlns="http://www.w3.org/2000/svg" width="26" height="28" viewBox="0 0 26 28"><path fill="#444" d="M6 23q0-.406-.297-.703T5 22t-.703.297T4 23t.297.703T5 24t.703-.297T6 23zm10.063-6.562L5.407 27.094q-.578.578-1.406.578-.81 0-1.42-.578L.922 25.407Q.33 24.845.33 24q0-.827.593-1.42l10.64-10.642q.61 1.53 1.79 2.71t2.71 1.79zM25.97 9.64q0 .61-.36 1.657-.734 2.094-2.57 3.398T19 16q-2.89 0-4.944-2.055T12 9t2.056-4.945T19 2q.907 0 1.9.258t1.68.727q.25.172.25.438t-.25.438L18 6.503v3.5l3.017 1.672q.078-.047 1.234-.758T24.37 9.65t1.102-.555q.234 0 .367.156t.133.392z"/></svg>