<?xml version="1.0" encoding="utf-8"?>
<!-- Generator: Adobe Illustrator 19.0.0, SVG Export Plug-In . SVG Version: 6.00 Build 0)  -->
<svg version="1.1" id="Layer_1" xmlns="http://www.w3.org/2000/svg" xmlns:xlink="http://www.w3.org/1999/xlink" x="0px" y="0px"
	 viewBox="0 0 21.4 26.8" style="enable-background:new 0 0 21.4 26.8;" xml:space="preserve">
<style type="text/css">
	.st0{fill-rule:evenodd;clip-rule:evenodd;fill:#BE2428;}
	.st1{fill:#E16251;}
</style>
<g id="XMLID_2_">
	<polygon id="XMLID_59_" class="st0" points="9.5,12.3 2.5,24.1 6.2,23.4 7.4,27 14.4,15.2 	"/>
	<polygon id="XMLID_58_" class="st0" points="11.9,12.3 18.9,24.1 15.2,23.4 14,27 7,15.2 	"/>
	<polygon id="XMLID_57_" class="st1" points="10.7,0.2 12.2,1.6 14,0.8 15,2.5 17,2.3 17.4,4.2 19.4,4.7 19.2,6.6 20.9,7.6 
		20.1,9.5 21.4,10.9 20.1,12.4 20.9,14.3 19.2,15.3 19.4,17.2 17.4,17.7 17,19.6 15,19.4 14,21.1 12.2,20.3 10.7,21.6 9.2,20.3 
		7.4,21.1 6.4,19.4 4.4,19.6 4,17.7 2,17.2 2.2,15.3 0.5,14.3 1.3,12.4 0,10.9 1.3,9.5 0.5,7.6 2.2,6.6 2,4.7 4,4.2 4.4,2.3 
		6.4,2.5 7.4,0.8 9.2,1.6 	"/>
</g>
</svg>
