<svg xmlns="http://www.w3.org/2000/svg" width="24" height="28" viewBox="0 0 24 28"><path fill="#444" d="M20.5 13.953q0-2.516-1.36-4.61L7.36 21.11Q9.5 22.5 12 22.5q1.735 0 3.306-.68t2.71-1.82 1.814-2.726.672-3.32zM4.89 18.625L16.69 6.845Q14.578 5.42 12 5.42q-2.312 0-4.266 1.14T4.64 9.673t-1.14 4.28q0 2.532 1.39 4.673zM24 13.953q0 2.453-.953 4.688t-2.555 3.845-3.828 2.562T12 26t-4.664-.953-3.828-2.562T.953 18.64 0 13.954t.953-4.68 2.555-3.836 3.828-2.562T12 1.922t4.664.953 3.828 2.562 2.555 3.836.953 4.68z"/></svg>