<svg id="Layer_1" xmlns="http://www.w3.org/2000/svg" xmlns:xlink="http://www.w3.org/1999/xlink" viewBox="-4285 3279 140 140"><style>.st0{fill:#FFFFFF;} .st1{fill:#8DC44A;} .st2{fill:#3C5152;} .st3{fill:#8C8B8B;} .st4{clip-path:url(#SVGID_2_);} .st5{fill:#BE2126;}</style><g id="Car_2_"><circle class="st0" cx="-4215" cy="3349" r="66.5"/><path class="st1" d="M-4215 3419c-38.6 0-70-31.4-70-70s31.4-70 70-70 70 31.4 70 70-31.4 70-70 70zm0-132.9c-34.7 0-62.9 28.2-62.9 62.9s28.2 62.9 62.9 62.9 62.9-28.2 62.9-62.9-28.2-62.9-62.9-62.9z"/><path class="st2" d="M-4237.5 3362.8c.2-.4.4-.9.5-1.3.1-.4.3-.9.3-1.4v-.3c.1-.5.1-1 .1-1.5 0-5.7-4.6-10.3-10.3-10.3s-10.3 4.6-10.3 10.3c0 .6.1 1.2.2 1.8v.1c.1.6.3 1.1.5 1.7 1.4 4 5.2 6.8 9.7 6.8 4 0 7.5-2.3 9.2-5.7 0-.1 0-.2.1-.2zm-13.4.9c-.4-.3-.7-.6-1-.9l-.3-.3c-.2-.2-.3-.4-.4-.6-.1-.2-.2-.4-.4-.7-.1-.1-.1-.2-.2-.4-.1-.3-.2-.7-.3-1v-.3c-.1-.4-.1-.8-.1-1.2 0-3.7 3-6.8 6.8-6.8s6.8 3 6.8 6.8c0 .4-.1.8-.1 1.2 0 .1 0 .2-.1.3-.1.3-.2.6-.3.8-.1.2-.1.3-.2.5s-.2.5-.4.7c-.1.2-.2.4-.4.5-.1.1-.1.2-.2.2-.5.6-1.2 1.2-1.9 1.6-1 .5-2.1.9-3.3.9-1.5.1-2.9-.5-4-1.3z"/><path class="st3" d="M-4246.8 3355c-1.8 0-3.2 1.5-3.2 3.2 0 1.8 1.5 3.2 3.2 3.2s3.2-1.5 3.2-3.2c0-1.7-1.4-3.2-3.2-3.2z"/><defs><path id="SVGID_1_" d="M-4195.4 3338.5c-6 0-15.5-8.8-15.6-8.8-.3-.2-.6-.3-1-.2-.3.1-.5.5-.5.8v1.1c0 3.4 0 6.9 1 8.9h-1.1c-10.6 0-17.6-.6-17.6-9.2 0-.5-.4-.9-.9-.9-1.9 0-3.1 1.2-4.3 2.5-1.5 1.6-3.3 3.4-7.2 3.4-1.1 0-2.9.1-4.8.1-2.7.1-5.8.2-8.6.2-.5 0-.9.4-.9.9 0 6.6-7.7 7.4-8 7.4-.5 0-.8.4-.8.9 0 6.4 2.2 10.6 5.2 13.4v-.7c0-7.7 6.2-13.9 13.9-13.9s13.9 6.2 13.9 13.9c0 2.1-.5 4.1-1.3 5.9h35.6c-.8-1.8-1.3-3.8-1.3-5.9 0-7.7 6.2-13.9 13.9-13.9s13.9 6.2 13.9 13.9c0 2-.4 3.9-1.2 5.7 4.1-.6 9-2.4 9-8.6-.4-16.1-26.2-16.9-31.3-16.9z"/></defs><use xlink:href="#SVGID_1_" overflow="visible" fill="#EA3226"/><clipPath id="SVGID_2_"><use xlink:href="#SVGID_1_" overflow="visible"/></clipPath><rect x="-4269.7" y="3358.3" class="st4 st5" width="105.2" height="13.5"/><g><path class="st2" d="M-4176.9 3362.8c.2-.4.4-.9.6-1.3.1-.4.3-.9.3-1.4v-.3c.1-.5.1-1 .1-1.5 0-5.7-4.6-10.3-10.3-10.3s-10.3 4.6-10.3 10.3c0 .5 0 1 .1 1.5v.3c.1.5.2.9.3 1.4.1.5.3.9.5 1.3 0 0 0 .1.1.1 1.7 3.4 5.2 5.7 9.2 5.7s7.5-2.3 9.2-5.7c.2 0 .2-.1.2-.1zm-12.5 1.4c-.7-.4-1.4-.9-1.9-1.6-.1-.1-.1-.2-.2-.2-.1-.2-.3-.4-.4-.5-.1-.2-.3-.4-.4-.7-.1-.2-.1-.3-.2-.5l-.3-.9c0-.1-.1-.2-.1-.3-.1-.4-.1-.8-.1-1.2 0-3.7 3-6.8 6.8-6.8s6.8 3 6.8 6.8c0 .4-.1.8-.1 1.2 0 .1 0 .2-.1.3-.1.3-.2.6-.3.8-.1.2-.1.3-.2.5s-.2.5-.4.7c-.1.2-.2.4-.4.5-.1.1-.1.2-.2.2-.5.6-1.2 1.2-1.9 1.6-1 .5-2.1.9-3.3.9s-2.2-.3-3.1-.8z"/></g><g><path class="st3" d="M-4186.1 3355c-1.8 0-3.2 1.5-3.2 3.2 0 1.8 1.5 3.2 3.2 3.2 1.8 0 3.2-1.5 3.2-3.2 0-1.7-1.5-3.2-3.2-3.2z"/></g></g></svg>