<?xml version="1.0" encoding="utf-8"?>
<!-- Generator: Adobe Illustrator 19.0.0, SVG Export Plug-In . SVG Version: 6.00 Build 0)  -->
<svg version="1.1" id="Layer_1" xmlns="http://www.w3.org/2000/svg" xmlns:xlink="http://www.w3.org/1999/xlink" x="0px" y="0px"
	 viewBox="0 0 21.4 26.8" style="enable-background:new 0 0 21.4 26.8;" xml:space="preserve">
<style type="text/css">
	.st0{fill-rule:evenodd;clip-rule:evenodd;fill:#64953F;}
	.st1{fill:#8EC44B;}
</style>
<g id="XMLID_5_">
	<polygon id="XMLID_3_" class="st0" points="9.5,12 2.5,23.9 6.2,23.2 7.4,26.8 14.4,14.9 	"/>
	<polygon id="XMLID_2_" class="st0" points="11.9,12 18.9,23.9 15.2,23.2 14,26.8 7,14.9 	"/>
	<polygon id="XMLID_1_" class="st1" points="10.7,0 12.2,1.3 14,0.5 15,2.2 17,2 17.4,4 19.4,4.4 19.2,6.4 20.9,7.4 20.1,9.2 
		21.4,10.7 20.1,12.2 20.9,14 19.2,15 19.4,17 17.4,17.4 17,19.4 15,19.2 14,20.9 12.2,20.1 10.7,21.4 9.2,20.1 7.4,20.9 6.4,19.2 
		4.4,19.4 4,17.4 2,17 2.2,15 0.5,14 1.3,12.2 0,10.7 1.3,9.2 0.5,7.4 2.2,6.4 2,4.4 4,4 4.4,2 6.4,2.2 7.4,0.5 9.2,1.3 	"/>
</g>
</svg>
