<svg id="Layer_1" xmlns="http://www.w3.org/2000/svg" viewBox="-4285 3279 140 140"><style>.st0{fill:#FFFFFF;} .st1{fill:#E79446;} .st2{fill:#3C5152;} .st3{fill:#4A8E91;}</style><g id="_x31__8_"><circle class="st0" cx="-4215" cy="3349" r="66.5"/><path class="st1" d="M-4215 3419c-38.6 0-70-31.4-70-70s31.4-70 70-70 70 31.4 70 70-31.4 70-70 70zm0-132.9c-34.7 0-62.9 28.2-62.9 62.9s28.2 62.9 62.9 62.9 62.9-28.2 62.9-62.9-28.2-62.9-62.9-62.9z"/><g><path class="st2" d="M-4198.1 3343.5c0-6.9-2.4-12.8-7.3-17.7s-10.8-7.3-17.7-7.3c-6.9 0-12.8 2.4-17.7 7.3s-7.3 10.8-7.3 17.7 2.4 12.8 7.3 17.7c4.9 4.9 10.8 7.3 17.7 7.3 6.9 0 12.8-2.5 17.7-7.3 4.8-4.9 7.3-10.8 7.3-17.7zm16.3 35.9c0 1.5-.5 2.8-1.6 3.9s-2.4 1.6-3.9 1.6c-1.6 0-2.8-.5-3.9-1.6l-14.8-14.8c-5.1 3.6-10.9 5.3-17.2 5.3-4.1 0-8-.8-11.8-2.4s-7-3.8-9.7-6.5-4.9-6-6.5-9.7c-1.6-3.8-2.4-7.7-2.4-11.8 0-4.1.8-8 2.4-11.8 1.6-3.8 3.8-7 6.5-9.7s6-4.9 9.7-6.5 7.7-2.4 11.8-2.4 8 .8 11.8 2.4 7 3.8 9.7 6.5 4.9 6 6.5 9.7c1.6 3.8 2.4 7.7 2.4 11.8 0 6.3-1.8 12.1-5.3 17.2l14.8 14.8c1 1.1 1.6 2.4 1.5 4z"/><path class="st3" d="M-4220 3358.8v5.2h-5v-5c-5-.2-7.3-1.3-10.1-4.1l4.1-3.9c2.1 2 4.8 2.6 7.9 2.6 3.7 0 5.8-1.4 5.8-3.9 0-1.1-.3-2-1-2.6-.6-.6-1.4-.9-2.9-1.1l-3.9-.5c-2.8-.4-4.8-1.2-6.3-2.6-1.6-1.5-2.3-3.5-2.3-6.1 0-4.9 2.9-8.5 8.9-9.3v-3.5h5v3.5c3 .3 5.8 1.4 8.1 3.5l-4.1 3.8c-2.1-1.9-4.5-2.1-6.7-2.1-3.4 0-5 1.8-5 3.9 0 .8.3 1.6 1 2.2.6.6 1.7 1.1 3 1.2l3.8.5c3 .4 4.8 1.2 6.2 2.4 1.7 1.6 2.6 3.9 2.6 6.6-.2 5.2-5.1 8.4-9.1 9.3z"/></g></g></svg>