<svg id="Layer_1" xmlns="http://www.w3.org/2000/svg" viewBox="-4285 3279 140 140"><style>.st0{fill:#FFFFFF;} .st1{fill:#8DC44A;} .st2{fill:#E3DFC6;} .st3{fill:#8CC24A;} .st4{fill:#39B24A;}</style><g id="Relocation_2_"><circle class="st0" cx="-4215" cy="3349" r="66.5"/><path class="st1" d="M-4215 3419c-38.6 0-70-31.4-70-70s31.4-70 70-70 70 31.4 70 70-31.4 70-70 70zm0-132.9c-34.7 0-62.9 28.2-62.9 62.9s28.2 62.9 62.9 62.9 62.9-28.2 62.9-62.9-28.2-62.9-62.9-62.9z"/><polygon class="st2" points="-4226.6,3371.8 -4249,3382.2 -4249,3338.8 -4226.6,3328.4"/><path class="st2" d="M-4249 3384c-.3 0-.7-.1-1-.3-.5-.3-.8-.9-.8-1.5v-43.4c0-.7.4-1.3 1-1.6l22.3-10.4c.6-.3 1.2-.2 1.7.1.5.3.8.9.8 1.5v43.4c0 .7-.4 1.3-1 1.6l-22.3 10.4c-.1.1-.4.2-.7.2zm1.8-44.1v39.5l18.8-8.7v-39.5l-18.8 8.7z"/><polygon class="st2" points="-4182.6,3371.8 -4204.9,3382.2 -4204.9,3338.8 -4182.6,3328.4"/><path class="st2" d="M-4204.9 3384c-.3 0-.7-.1-1-.3-.5-.3-.8-.9-.8-1.5v-43.4c0-.7.4-1.3 1-1.6l22.3-10.4c.6-.3 1.2-.2 1.7.1.5.3.8.9.8 1.5v43.4c0 .7-.4 1.3-1 1.6l-22.3 10.4c-.2.1-.4.2-.7.2zm1.8-44.1v39.5l18.8-8.7v-39.5l-18.8 8.7z"/><polygon class="st0" points="-4226.6,3371.8 -4204.3,3382.2 -4204.3,3338.8 -4226.6,3328.4"/><path class="st2" d="M-4204.3 3384c-.3 0-.5-.1-.7-.2l-22.3-10.4c-.6-.3-1-.9-1-1.6v-43.4c0-.6.3-1.2.8-1.5.5-.3 1.2-.4 1.7-.1l22.3 10.4c.6.3 1 .9 1 1.6v43.4c0 .6-.3 1.2-.8 1.5-.4.2-.7.3-1 .3zm-20.6-13.3l18.8 8.7v-39.5l-18.8-8.7v39.5z"/><g><path class="st3" d="M-4203.7 3327.1c0-7.3-5.9-13.2-13.2-13.2s-13.2 5.9-13.2 13.2c0 5.3 3.1 9.8 7.6 11.9l5.6 15.7 5.6-15.7c4.5-2.1 7.6-6.7 7.6-11.9zm-13.1-5.7c3.1 0 5.6 2.5 5.6 5.6 0 3.1-2.5 5.6-5.6 5.6-3.1 0-5.6-2.5-5.6-5.6-.1-3 2.5-5.6 5.6-5.6z"/><path class="st4" d="M-4216.8 3356.4c-.7 0-1.4-.5-1.7-1.2l-5.4-15c-4.8-2.6-7.9-7.7-7.9-13.2 0-8.2 6.7-14.9 14.9-14.9s14.9 6.7 14.9 14.9c0 5.5-3.1 10.6-7.9 13.2l-5.4 15c-.1.8-.8 1.2-1.5 1.2zm0-40.7c-6.3 0-11.4 5.1-11.4 11.4 0 4.4 2.6 8.4 6.6 10.3.4.2.8.6.9 1l3.9 11 3.9-11c.2-.4.5-.8.9-1 4-1.9 6.6-5.9 6.6-10.3 0-6.3-5.2-11.4-11.4-11.4zm0 18.8c-4.1 0-7.4-3.3-7.4-7.4 0-4.1 3.3-7.4 7.4-7.4 4.1 0 7.4 3.3 7.4 7.4 0 4.1-3.4 7.4-7.4 7.4zm0-11.3c-2.1 0-3.9 1.7-3.9 3.9 0 2.1 1.7 3.9 3.9 3.9s3.9-1.7 3.9-3.9c-.1-2.2-1.8-3.9-3.9-3.9z"/></g><g><path class="st3" d="M-4226 3369l-2.4-2.6 1.3-1.2 2.4 2.6-1.3 1.2zm4-.7l-.9-1.5 3.1-1.8.9 1.5-3.1 1.8zm6.1-3.5l-.9-1.5 3.1-1.8.9 1.5-3.1 1.8zm-14.9-1l-2.4-2.6 1.3-1.2 2.4 2.6-1.3 1.2zm35.4-.3l-3-1.8.9-1.5 3 1.8-.9 1.5zm-14.4-2.3l-.9-1.5 3.1-1.8.9 1.5-3.1 1.8zm8.3-1.4l-3-1.8.9-1.5 3 1.8-.9 1.5zm-34.1-1.2l-2.4-2.6 1.3-1.2 2.4 2.6-1.3 1.2z"/></g><g><ellipse transform="rotate(60.654 -4239.957 3352.173)" class="st4" cx="-4240.1" cy="3352.3" rx="1.8" ry="2.5"/></g><g><ellipse transform="rotate(60.638 -4191.16 3365.08)" class="st4" cx="-4190.9" cy="3364.9" rx="1.8" ry="2.5"/></g></g></svg>