<?xml version="1.0" encoding="utf-8"?>
<!-- Generator: Adobe Illustrator 19.0.0, SVG Export Plug-In . SVG Version: 6.00 Build 0)  -->
<svg version="1.1" id="Layer_1" xmlns="http://www.w3.org/2000/svg" xmlns:xlink="http://www.w3.org/1999/xlink" x="0px" y="0px"
	 viewBox="0 0 74.1 43" style="enable-background:new 0 0 74.1 43;" xml:space="preserve">
<style type="text/css">
	.st0{fill-rule:evenodd;clip-rule:evenodd;fill:#8EC44B;}
	.st1{fill-rule:evenodd;clip-rule:evenodd;fill:#E16251;}
	.st2{fill-rule:evenodd;clip-rule:evenodd;fill:#FFC845;}
	.st3{fill-rule:evenodd;clip-rule:evenodd;fill:#4B8F92;}
	.st4{fill:#FFC845;}
	.st5{fill:#E89648;}
	.st6{fill-rule:evenodd;clip-rule:evenodd;fill:#E89648;}
	.st7{opacity:0.5;fill:#FFFFFF;}
</style>
<g id="trophy_with_confetti">
	<g>
		<polygon id="XMLID_40_" class="st0" points="9.5,19.5 10.8,22.1 13.8,22.6 11.7,24.7 12.2,27.6 9.5,26.2 6.9,27.6 7.4,24.7 
			5.2,22.6 8.2,22.1 		"/>
		<polygon id="XMLID_39_" class="st0" points="17.4,36.8 18.2,38.5 20.1,38.8 18.7,40.1 19.1,41.9 17.4,41 15.8,41.9 16.1,40.1 
			14.8,38.8 16.6,38.5 		"/>
		<polygon id="XMLID_38_" class="st1" points="7.4,31 8,32.4 9.5,32.6 8.5,33.7 8.7,35.1 7.4,34.4 6,35.1 6.3,33.7 5.2,32.6 
			6.7,32.4 		"/>
		<circle id="XMLID_37_" class="st1" cx="5.9" cy="17.9" r="1.9"/>
		<circle id="XMLID_36_" class="st2" cx="10.5" cy="29.5" r="1"/>
		<circle id="XMLID_35_" class="st2" cx="10.9" cy="36" r="1"/>
		<circle id="XMLID_34_" class="st3" cx="1.5" cy="25.1" r="1.5"/>
		<polygon id="XMLID_33_" class="st3" points="16,31 16.3,31.8 17.2,31.9 16.6,32.5 16.7,33.3 16,32.9 15.2,33.3 15.4,32.5 
			14.8,31.9 15.6,31.8 		"/>
		<polygon id="XMLID_32_" class="st2" points="7.4,8.7 8,9.9 9.2,10 8.3,10.9 8.5,12.2 7.4,11.6 6.2,12.2 6.4,10.9 5.5,10 6.8,9.9 
					"/>
		<circle id="XMLID_31_" class="st3" cx="3.1" cy="13.6" r="0.8"/>
	</g>
	<g>
		<polygon id="XMLID_30_" class="st0" points="62.5,24.4 63.8,27.1 66.8,27.5 64.7,29.6 65.2,32.6 62.5,31.2 59.9,32.6 60.4,29.6 
			58.2,27.5 61.2,27.1 		"/>
		<circle id="XMLID_29_" class="st3" cx="72.6" cy="18.9" r="1.5"/>
		<polygon id="XMLID_28_" class="st1" points="65.8,19.5 66.4,20.8 67.9,21 66.9,22.1 67.1,23.6 65.8,22.9 64.4,23.6 64.7,22.1 
			63.6,21 65.1,20.8 		"/>
		<circle id="XMLID_27_" class="st2" cx="66.7" cy="16.4" r="1"/>
		<circle id="XMLID_26_" class="st1" cx="59.9" cy="38.3" r="1.9"/>
		<circle id="XMLID_25_" class="st3" cx="55.3" cy="41.2" r="0.8"/>
		<circle id="XMLID_24_" class="st2" cx="70.4" cy="31.1" r="1"/>
		<circle id="XMLID_23_" class="st3" cx="63.7" cy="35.1" r="0.8"/>
		<polygon id="XMLID_22_" class="st2" points="70.7,24 71.3,25.2 72.6,25.4 71.7,26.3 71.9,27.6 70.7,26.9 69.6,27.6 69.8,26.3 
			68.9,25.4 70.2,25.2 		"/>
		<polygon id="XMLID_21_" class="st0" points="65.9,8.7 66.7,10.4 68.5,10.6 67.2,11.9 67.5,13.8 65.9,12.9 64.2,13.8 64.5,11.9 
			63.2,10.6 65,10.4 		"/>
	</g>
	<g>
		<path class="st4" d="M27,21c-1.4-3-2.1-6-2.1-10H18v2.5c0,1.4,0.8,2.9,2.5,4.4C22.3,19.5,24.4,21,27,21L27,21z M57,13v-2h-7.2
			c0,4-0.7,7.2-2.1,10.2c2.6-0.5,4.8-1.9,6.5-3.4S56.9,15,57,13L57,13z M60,10v3.5c0,1.3-0.2,2.6-0.9,4c-0.8,1.3-1.7,2.5-3,3.6
			s-2.8,2-4.7,2.7s-3.9,1.1-6,1.2c-0.8,1-1.6,1.9-2.6,2.6c-0.7,0.6-1.2,1.3-1.4,2s-0.4,1.5-0.4,2.5c0,1,0.3,1.8,0.8,2.5
			c0.6,0.7,1.5,1,2.7,1c1.4,0,2.7,0.4,3.8,1.3c1.1,0.8,1.7,1.9,1.7,3.2v1.8c0,0.3-0.2,0.6-0.4,0.7c-0.2,0.2-0.5,0.3-0.7,0.3H25.9
			c-0.3,0-0.4-0.2-0.6-0.3c-0.2-0.2-0.2-0.5-0.2-0.7v-1.8c0-1.3,0.5-2.3,1.6-3.2c1.1-0.8,2.3-1.3,3.7-1.3c1.2,0,2.1-0.3,2.7-1
			c0.6-0.7,0.8-1.5,0.8-2.5c0-0.9-0.1-1.8-0.4-2.5c-0.3-0.7-0.8-1.4-1.5-2c-1-0.8-1.9-1.6-2.6-2.6c-2.1-0.1-4.1-0.5-6-1.2
			c-1.9-0.7-3.5-1.6-4.8-2.7c-1.3-1.1-2.5-2.3-3.2-3.6c-0.8-1.3-1.3-2.7-1.3-4V10c0-0.7,0.4-1.5,0.9-2C15.5,7.4,16.2,7,17,7H25V4.6
			c0-1.2,0.4-2.4,1.3-3.2C27.2,0.5,28.2,0,29.4,0h16c1.2,0,2.4,0.5,3.2,1.4c0.9,0.9,1.4,2,1.4,3.2V7h7.8c0.7,0,1.4,0.4,1.9,0.9
			c0.5,0.5,0.8,1.1,0.8,2.1H60z"/>
		<path id="XMLID_3_" class="st5" d="M48.3,43H27c-1.1,0-2-1.1-2-2.2V40h25v1.1C50,42,49.2,43,48.3,43z"/>
		<path id="XMLID_2_" class="st5" d="M51,3.1C51,4.7,49.7,6,48.1,6H26.9C25.3,6,24,4.7,24,3.1V2.9C24,1.3,25.3,0,26.9,0h21.2
			C49.7,0,51,1.3,51,2.9V3.1z"/>
		<polygon id="XMLID_20_" class="st6" points="37.3,9 39.4,13.4 44.3,14.1 40.8,17.5 41.6,22.3 37.3,20 32.9,22.3 33.8,17.5 
			30.3,14.1 35.1,13.4 		"/>
		<path id="XMLID_1_" class="st7" d="M41.8,0c0,0,2.8,0,4.6,0c0.4,6,0.3,9,0,12.1c-0.3,3.2-1.3,7.9-3.7,12.2c-2.4,4.1-2.8,7.7-2.5,9
			s1.1,2.7,4.8,3.4c3.8,1.1,3.6,6.3,3.6,6.3h-5.3c0,0,1.3-3.4-1-5.4C37,33.9,38,28.1,41,20.2C44,12.3,41.8,0,41.8,0z"/>
	</g>
</g>
</svg>
