<svg id="Layer_1" data-name="Layer 1" xmlns="http://www.w3.org/2000/svg" viewBox="0 0 60 60"><defs><style>.cls-1{fill:#aaa99b;}</style></defs><title>Artboard 1</title><path class="cls-1" d="M43.76,38.45a2,2,0,0,0-.62-1.5l-4.59-4.58a2,2,0,0,0-1.5-.62,2.1,2.1,0,0,0-1.59.7l.42.41.47.47a5.16,5.16,0,0,1,.33.42,1.78,1.78,0,0,1,.29.56,2.22,2.22,0,0,1,.08.61,2,2,0,0,1-.62,1.5,2.05,2.05,0,0,1-1.5.62,2.25,2.25,0,0,1-.61-.08,1.77,1.77,0,0,1-.56-.29q-.29-.21-.42-.33l-.47-.47-.41-.42a2.13,2.13,0,0,0-.73,1.61,2,2,0,0,0,.62,1.5l4.54,4.56a2,2,0,0,0,1.5.59,2.13,2.13,0,0,0,1.5-.57l3.24-3.21A2,2,0,0,0,43.76,38.45ZM28.26,22.93a2,2,0,0,0-.62-1.5L23.1,16.88a2,2,0,0,0-1.5-.62,2.13,2.13,0,0,0-1.5.59l-3.24,3.21a2,2,0,0,0-.62,1.48,2,2,0,0,0,.62,1.5l4.59,4.58a2,2,0,0,0,1.5.59,2.14,2.14,0,0,0,1.59-.68l-.42-.41-.47-.47a5.18,5.18,0,0,1-.33-.42,1.77,1.77,0,0,1-.29-.56,2.22,2.22,0,0,1-.08-.61A2.11,2.11,0,0,1,25.06,23a2.24,2.24,0,0,1,.61.08,1.77,1.77,0,0,1,.56.29q.29.21.42.33l.47.47.41.42A2.13,2.13,0,0,0,28.26,22.93ZM48,38.45a6,6,0,0,1-1.87,4.47l-3.24,3.21a6.37,6.37,0,0,1-9,0l-4.54-4.56a6.07,6.07,0,0,1-1.83-4.47,6.19,6.19,0,0,1,1.94-4.6l-1.94-1.94a6.4,6.4,0,0,1-9.09.09L13.85,26A6.11,6.11,0,0,1,12,21.55a6,6,0,0,1,1.87-4.47l3.24-3.21A6.1,6.1,0,0,1,21.6,12a6,6,0,0,1,4.5,1.87l4.54,4.56a6.07,6.07,0,0,1,1.83,4.47,6.19,6.19,0,0,1-1.94,4.6l1.94,1.94a6.4,6.4,0,0,1,9.09-.09L46.15,34A6.11,6.11,0,0,1,48,38.45Z"/></svg>