<svg id="Layer_1" xmlns="http://www.w3.org/2000/svg" xmlns:xlink="http://www.w3.org/1999/xlink" viewBox="-4285 3279 140 140"><style>.st0{fill:#FFFFFF;} .st1{fill:#019547;} .st2{fill:#4B8F92;} .st3{fill:#3D5253;} .st4{fill:#4A8E91;} .st5{fill:#E3DFC6;} .st6{fill:#3D5152;}</style><g id="Accounts_1_"><g id="XMLID_60_"><circle id="XMLID_64_" class="st0" cx="-8499.8" cy="6628" r="66.5"/><path id="XMLID_61_" class="st1" d="M-8499.8 6698c-38.6 0-70-31.4-70-70s31.4-70 70-70 70 31.4 70 70-31.4 70-70 70zm0-132.9c-34.7 0-62.9 28.2-62.9 62.9s28.2 62.9 62.9 62.9 62.9-28.2 62.9-62.9-28.2-62.9-62.9-62.9z"/></g><g id="XMLID_26_"><path id="XMLID_56_" class="st2" d="M-8474.7 6607.6c.7.7 1.4 1.7 1.9 3s.8 2.4.8 3.5v45.6c0 1.1-.4 2-1.1 2.7-.7.7-1.6 1.1-2.7 1.1h-53.2c-1.1 0-2-.4-2.7-1.1s-1.1-1.6-1.1-2.7v-63.3c0-1.1.4-2 1.1-2.7s1.6-1.1 2.7-1.1h35.4c1.1 0 2.2.3 3.5.8 1.3.5 2.3 1.2 3 1.9l12.4 12.3zm-17.6-9.7v14.9h14.9c-.3-.8-.6-1.3-.9-1.6l-12.4-12.4c-.3-.3-.8-.6-1.6-.9zm15.2 60.5v-40.5h-16.5c-1.1 0-2-.4-2.7-1.1-.7-.7-1.1-1.6-1.1-2.7v-16.5h-30.4v60.8h50.7z"/><path id="XMLID_55_" class="st3" d="M-8517.6 6624.2c0-.4.1-.7.4-.9.2-.2.5-.4.9-.4h27.8c.4 0 .7.1.9.4.2.2.4.5.4.9v2.5c0 .4-.1.7-.4.9-.2.2-.5.4-.9.4h-27.8c-.4 0-.7-.1-.9-.4s-.4-.5-.4-.9v-2.5z"/><path id="XMLID_54_" class="st3" d="M-8488.5 6633.1c.4 0 .7.1.9.4.2.2.4.5.4.9v2.5c0 .4-.1.7-.4.9-.2.2-.5.4-.9.4h-27.8c-.4 0-.7-.1-.9-.4-.2-.3-.4-.5-.4-.9v-2.5c0-.4.1-.7.4-.9.2-.2.5-.4.9-.4h27.8z"/><path id="XMLID_53_" class="st3" d="M-8488.5 6643.2c.4 0 .7.1.9.4.2.2.4.5.4.9v2.5c0 .4-.1.7-.4.9-.2.2-.5.4-.9.4h-27.8c-.4 0-.7-.1-.9-.4-.2-.2-.4-.5-.4-.9v-2.5c0-.4.1-.7.4-.9.2-.2.5-.4.9-.4h27.8z"/><g id="XMLID_27_"><path class="st0" d="M-8488.9 6667c-.6 0-1.2-.1-1.8-.4-1.1.3-2.3.5-3.6.5-7.5 0-13.7-6.1-13.7-13.6 0-7.3 5.8-13.3 13-13.6.1-.5.2-1 .5-1.5-.3-.7-.5-1.5-.5-2.3 0-2.8 2.2-5.1 5-5.1h23.1c2.8 0 5 2.3 5 5.1 0 .8-.2 1.6-.5 2.2.3.7.5 1.4.5 2.2 0 .8-.2 1.5-.5 2.2.3.7.5 1.4.5 2.2 0 .8-.2 1.5-.5 2.2.3.7.5 1.4.5 2.2 0 .8-.2 1.5-.5 2.2.3.7.5 1.4.5 2.2 0 .8-.2 1.5-.5 2.2.3.7.5 1.4.5 2.2 0 .8-.2 1.5-.5 2.2.3.7.5 1.3.5 2.1 0 2.8-2.2 4.9-5 4.9h-22v-.3z" id="XMLID_50_"/><path class="st1" d="M-8466.8 6659.3h-17.7c.5-.9.9-1.9 1.2-2.9h16.5c.8 0 1.4.6 1.4 1.4 0 .8-.6 1.5-1.4 1.5zm0-4.4h-16.2c.1-.5.1-1 .1-1.4 0-.5 0-1-.1-1.4h16.2c.8 0 1.4.6 1.4 1.4s-.6 1.4-1.4 1.4zm0-4.3h-16.5c-.3-1-.7-2-1.2-2.9h17.7c.8 0 1.4.6 1.4 1.4 0 .9-.6 1.5-1.4 1.5zm0-4.3h-18.7c-.9-1.2-2.1-2.2-3.4-2.9h22.1c.8 0 1.4.6 1.4 1.4 0 .8-.6 1.5-1.4 1.5zm0-4.4h-23.1c-.8 0-1.4-.6-1.4-1.4s.6-1.4 1.4-1.4h23.1c.8 0 1.4.6 1.4 1.4s-.6 1.4-1.4 1.4zm0-4.3h-23.1c-.8 0-1.4-.6-1.4-1.4s.6-1.4 1.4-1.4h23.1c.8 0 1.4.6 1.4 1.4s-.6 1.4-1.4 1.4zm-17.3 15.9c0 5.6-4.5 10.1-10.1 10.1s-10.1-4.5-10.1-10.1 4.5-10.1 10.1-10.1c5.5 0 10.1 4.5 10.1 10.1zm-6.6 1.1c-.1-.3-.3-.6-.6-.9-.3-.3-.5-.5-.8-.7-.3-.2-.6-.3-.9-.5-.3-.1-.6-.3-.9-.4-.3-.1-.6-.3-.8-.4-.2-.1-.4-.3-.6-.5-.1-.2-.2-.4-.2-.7 0-.2 0-.3.1-.5s.2-.3.3-.4c.1-.1.3-.2.5-.3.2-.1.4-.1.7-.1.3 0 .6 0 .9.1.3.1.5.2.7.3s.4.2.5.3c.1.1.2.1.3.1s.1 0 .2-.1c0 0 .1-.1.1-.2v-.3-.4-.4-.3s0-.1-.1-.2c0 0-.1-.1-.1-.2-.1-.1-.2-.1-.4-.2s-.4-.2-.6-.2c-.2-.1-.5-.1-.8-.2h-.2v-1.5h-1.4v1.5c-.3 0-.5.1-.8.2-.5.1-.9.3-1.2.6-.4.3-.6.6-.8 1.1-.2.4-.3.9-.3 1.5 0 .5.1.9.2 1.3.1.3.3.7.6.9.3.2.5.5.8.7.3.2.6.3.9.5s.6.3.9.4c.3.1.6.3.8.4.2.1.4.3.6.5.1.2.2.4.2.7 0 .2 0 .4-.1.6-.1.2-.2.3-.4.5l-.6.3c-.2.1-.5.1-.8.1-.4 0-.8 0-1.2-.1l-.9-.3-.6-.3c-.2-.1-.3-.1-.4-.1h-.2s-.1.1-.1.2 0 .2-.1.3v1.1s.1.3.2.3c.1.1.2.2.4.3.2.1.4.2.7.3.3.1.6.2.9.2.3.1.7.1 1.1.1h.1v1.4h1.4v-1.6h.2c.5-.2 1-.4 1.4-.7.4-.3.7-.7.9-1.2.2-.5.3-1 .3-1.6.2-.6.2-1 0-1.3zm5.2 6.1h18.7c.8 0 1.4.6 1.4 1.4 0 .8-.6 1.4-1.4 1.4h-22.1c1.3-.6 2.5-1.6 3.4-2.8z" id="XMLID_28_"/></g></g></g><g id="Protection_6"><defs><path id="SVGID_1_" d="M-4215 3419s59.2-34.1 59.2-91.6V3279h-118.4v48.4c0 57.5 59.2 91.6 59.2 91.6z"/></defs><use xlink:href="#SVGID_1_" overflow="visible" fill="#FFF"/><clipPath id="SVGID_2_"><use xlink:href="#SVGID_1_" overflow="visible"/></clipPath><path class="st4" d="M-4163.7 3286.9v40.5c0 43.9-38.7 73.7-51.3 82.2-12.6-8.5-51.3-38.2-51.3-82.2v-40.5h102.6m7.9-7.9h-118.4v48.4c0 57.5 59.2 91.6 59.2 91.6s59.2-34.1 59.2-91.6V3279z"/><path class="st5" d="M-4214.6 3380.1c-23.6 0-42.8-19.2-42.8-42.8 0-23.6 19.2-42.8 42.8-42.8 23.6 0 42.8 19.2 42.8 42.8-.1 23.7-19.2 42.8-42.8 42.8zm-.5-71.4c-15.6 0-28.2 12.7-28.2 28.2s12.7 28.2 28.2 28.2c15.6 0 28.2-12.7 28.2-28.2s-12.7-28.2-28.2-28.2z"/><path class="st6" d="M-4214.6 3297.5c22 0 39.9 17.9 39.9 39.9s-17.9 39.9-39.9 39.9-39.9-17.9-39.9-39.9 17.9-39.9 39.9-39.9m-.5 70.5c17.2 0 31.1-14 31.1-31.1 0-17.2-14-31.1-31.1-31.1-17.2 0-31.1 14-31.1 31.1 0 17.2 13.9 31.1 31.1 31.1m.5-76.3c-25.2 0-45.6 20.5-45.6 45.6 0 25.2 20.5 45.6 45.6 45.6 25.2 0 45.6-20.5 45.6-45.6s-20.5-45.6-45.6-45.6zm-.5 70.6c-14 0-25.4-11.4-25.4-25.4s11.4-25.4 25.4-25.4c14 0 25.4 11.4 25.4 25.4s-11.4 25.4-25.4 25.4z"/><rect x="-4187.5" y="3328.8" class="st6" width="16.4" height="17.2"/><rect x="-4223.6" y="3293.5" class="st6" width="17.2" height="14.8"/><g><rect x="-4223.6" y="3364.8" class="st6" width="17.2" height="16.5"/></g><g><path class="st6" d="M-4228.9 3336.8c0-9.6 5.4-16.3 14.7-16.3 3.8 0 7.1 1.3 9.3 3.3l-3 5.2c-1.7-1.6-3.5-2.5-6.3-2.5-4.6 0-7.9 3.9-7.9 8.9v.7c1.5-2.1 4.6-4.1 8.1-4.1 5.7 0 10.8 3.5 10.8 10.3 0 6.2-4.9 10.8-12.1 10.8-9.6 0-13.6-7.4-13.6-16.3zm18.9 5.7c0-3.3-2.8-4.7-5.8-4.7-2.4 0-4.7 1.1-6.2 3 .3 3 2 6.4 6.4 6.4 3.6-.1 5.6-2.6 5.6-4.7z"/></g><g><rect x="-4257" y="3328.8" class="st6" width="15.2" height="17.2"/></g></g></svg>