<svg id="Layer_1" xmlns="http://www.w3.org/2000/svg" viewBox="-4285.2 3278.7 140 140"><style>.st0{fill:#FFFFFF;} .st1{fill:#019547;} .st2{fill:#3D5253;} .st3{fill:#E83330;}</style><g id="XMLID_26_"><g id="XMLID_30_"><circle id="XMLID_34_" class="st0" cx="-4215.2" cy="3348.7" r="66.5"/><path id="XMLID_31_" class="st1" d="M-4215.2 3418.7c-38.6 0-70-31.4-70-70s31.4-70 70-70 70 31.4 70 70-31.4 70-70 70zm0-132.9c-34.7 0-62.9 28.2-62.9 62.9s28.2 62.9 62.9 62.9 62.9-28.2 62.9-62.9-28.2-62.9-62.9-62.9z"/></g><path id="XMLID_10_" class="st2" d="M-4199.2 3367.1c-1.1 2.1-2.5 3.9-4.3 5.4-1.8 1.4-4.5 2.5-6.9 3.2-.3.1 3.4.1-1.6.2v10.1h-4v-9.2h-.9c-1.9 0-3.9-.1-5.5-.4-1.6-.3-3.2-.7-4.4-1.1-1.2-.4-2.3-.9-3.2-1.3-.8-.5-1.5-.9-1.8-1.2-.4-.4-.6-.9-.8-1.6-.1-.7-.2-1.7-.2-2.9 0-.9 0-1.6.1-2.2.1-.6.1-1.1.3-1.4.1-.4.3-.6.5-.8.2-.1.5-.2.7-.2.4 0 .9.2 1.7.7s1.6 1 2.7 1.5c1.1.6 2.4 1.1 4 1.5 1.5.5 3.3.7 5.4.7 1.3 0 2.5-.2 3.6-.5s2-.8 2.7-1.4c.7-.6 1.3-1.3 1.7-2.2.4-.9.6-1.8.6-2.9 0-1.2-.3-2.3-1-3.2-.7-.9-1.5-1.7-2.6-2.3-1.1-.7-2.3-1.3-3.7-1.9-1.4-.6-2.8-1.2-4.2-1.9-1.5-.7-2.9-1.4-4.2-2.3-1.4-.8-2.6-1.9-3.7-3-1.1-1.2-1.9-2.6-2.6-4.2-.7-1.6-1-3.6-1-5.8 0-2.6.5-4.9 1.4-6.8 1-2 2.3-3.6 3.9-4.9 1.6-1.3 4.2-2.3 6.5-2.9 1.1-.3.2-.6 4.2-.7v-8.1h4v8.1c5 0 1.1 0 1.4.1 1.3.2 2.8.5 3.9.8 1.1.3 2.2.7 3.1 1.1.9.4 1.5.8 1.8 1 .3.3.5.5.6.7.1.2.2.5.3.8.1.3.1.7.1 1.2v1.8c0 .8 0 1.5-.1 2.1 0 .6-.1 1-.2 1.4-.1.4-.2.6-.4.8-.2.2-.4.2-.7.2-.3 0-.8-.2-1.5-.6-.7-.4-1.5-.8-2.5-1.3s-2.1-.9-3.4-1.3c-1.3-.4-2.7-.6-4.2-.6-1.2 0-2.2.1-3.1.4-.9.3-1.6.7-2.2 1.2-.6.5-1 1.1-1.3 1.9-.3.7-.4 1.5-.4 2.3 0 1.2.3 2.2 1 3.1.6.9 1.5 1.7 2.6 2.3 1.1.7 2.3 1.3 3.7 1.9 1.4.6 2.8 1.2 4.3 1.9s2.9 1.4 4.3 2.3 2.6 1.9 3.7 3c1.1 1.2 2 2.6 2.6 4.2.7 1.6 1 3.5 1 5.7-.2 2.9-.7 5.4-1.8 7.5z"/><path id="XMLID_28_" class="st1" d="M-4234.9 3328.8c-.2.5-.6.7-1.1.7h-8.3v20.8c0 .3-.1.6-.3.8s-.5.3-.8.3h-7.1c-.3 0-.6-.1-.8-.3-.2-.2-.3-.5-.3-.8v-20.8h-8.3c-.5 0-.9-.2-1.1-.7-.2-.5-.1-.9.2-1.3l12.9-14.2c.2-.2.5-.4.8-.4.3 0 .6.1.9.4l13.1 14.2c.4.4.4.8.2 1.3z"/><path id="XMLID_27_" class="st3" d="M-4167.3 3369.7c.2.5.1.9-.2 1.3l-12.9 14.2c-.2.2-.5.4-.8.4-.3 0-.6-.1-.9-.4l-13.1-14.2c-.3-.4-.4-.8-.2-1.3s.6-.7 1.1-.7h8.3v-20.8c0-.3.1-.6.3-.8.2-.2.5-.3.8-.3h7.1c.3 0 .6.1.8.3.2.2.3.5.3.8v20.8h8.3c.6 0 .9.3 1.1.7z"/></g></svg>