<svg id="Layer_1" xmlns="http://www.w3.org/2000/svg" viewBox="-4285 3279 140 140"><style>.st0{fill:#FFFFFF;} .st1{fill:#8DC44A;} .st2{fill:#4A8C90;} .st3{fill:#3D5152;} .st4{fill:#E3DFC6;}</style><g id="Downsizing_2_"><circle class="st0" cx="-4215" cy="3349" r="66.5"/><path class="st1" d="M-4215 3419c-38.6 0-70-31.4-70-70s31.4-70 70-70 70 31.4 70 70-31.4 70-70 70zm0-132.9c-34.7 0-62.9 28.2-62.9 62.9s28.2 62.9 62.9 62.9 62.9-28.2 62.9-62.9-28.2-62.9-62.9-62.9z"/><path class="st2" d="M-4254.7 3350v18.7c0 1 .8 1.7 1.7 1.7h12.7c1 0 1.7-.8 1.7-1.7v-14.3h9.2v14.3c0 1 .8 1.7 1.7 1.7h12.7c1 0 1.7-.8 1.7-1.7v-20.5c0-.6-.3-1.1-.8-1.5l-19-12.6c-.3-.2-.6-.3-1-.3-.3 0-.7.1-1 .3l-4.7 3.1-4.6 3-9.8 6.5c-.5.3-.8.9-.8 1.5v1.8"/><path class="st3" d="M-4179.3 3359l-34.1-22.7V3325.9c0-1.4-1.1-2.5-2.5-2.5h-4.1c-1.4 0-2.5 1.1-2.5 2.5v4.5l-10.3-6.8c-.4-.3-.9-.4-1.4-.4-.5 0-.9.1-1.4.4l-7.5 5-3.7 2.5-15.6 10.3c-.5.3-.8.8-1 1.3-.2.7-.2 1.5.3 2.1.5.7 1.3 1.1 2 1.1.5 0 .9-.1 1.4-.4l.2-.1 14.8-9.9 3.9-2.6 6.5-4.3 52 34.6.6.3h.2c.2.1.4.1.6.1.2 0 .4 0 .5-.1h.1c.1 0 .2-.1.4-.1.1 0 .1-.1.2-.1.1-.1.2-.1.3-.2l.1-.1.4-.4c1.1-1.3.8-2.9-.4-3.6z"/><path class="st4" d="M-4215.2 3309.9c-.8-.7-.8-.8-.8-1.1 0-.3 0-.4.8-1.1.3-.3.7-.6 1-.9.9-1 .8-2.5-.2-3.4-1-.9-2.5-.8-3.4.2l-.6.6c-.9.8-2.4 2.1-2.4 4.6 0 2.5 1.5 3.8 2.4 4.6.8.7.8.8.8 1.1 0 .3 0 .4-.8 1.1-.3.3-.7.6-1 .9-.5.5-.6 1.3-.6 1.9.1.5.3 1.1.7 1.4.5.4 1 .6 1.6.6.7 0 1.3-.3 1.8-.8l.6-.6.6-.6c.8-.8 1.8-2.1 1.8-4.1.1-2.2-1.4-3.6-2.3-4.4z"/><path class="st3" d="M-4194.9 3360.8v8.7c0 .4.4.8.8.8h17.6c.4 0 .8-.4.8-.8v-11.9c0-.3-.1-.5-.4-.7l-8.8-5.9c-.1-.1-.3-.1-.4-.1-.2 0-.3 0-.4.1l-2.2 1.4-2.1 1.4-4.5 3c-.2.2-.4.4-.4.7v3.3"/><path class="st3" d="M-4179.9 3351.7l-4.7-3.2c-.2-.1-.4-.2-.6-.2s-.4.1-.6.2l-12.4 8.2c-.2.1-.4.4-.4.6-.1.3-.1.7.1 1 .2.3.6.5.9.5h24.9l.2-.1.2-.1.2-.2c.3-.5.2-1.2-.3-1.6"/></g></svg>