<svg id="Layer_1" xmlns="http://www.w3.org/2000/svg" viewBox="-4285 3279 140 140"><style>.st0{fill:#FFFFFF;} .st1{fill:#E79446;} .st2{fill:#4A8E91;} .st3{fill:#3C5152;}</style><g id="_x31__21_"><circle class="st0" cx="-4215" cy="3349" r="66.5"/><path class="st1" d="M-4215 3419c-38.6 0-70-31.4-70-70s31.4-70 70-70 70 31.4 70 70-31.4 70-70 70zm0-132.9c-34.7 0-62.9 28.2-62.9 62.9s28.2 62.9 62.9 62.9 62.9-28.2 62.9-62.9-28.2-62.9-62.9-62.9z"/><g><path class="st2" d="M-4235 3357.5v4.5h-5v-4.3c-4-.2-7.6-1.3-10.4-4.1l4-3.9c2.1 2 4.8 2.6 7.8 2.6 3.7 0 5.7-1.4 5.7-3.9 0-1.1-.3-2-1-2.6-.6-.6-1.4-.9-2.9-1.1l-3.9-.5c-2.8-.4-4.8-1.2-6.3-2.6-1.6-1.5-2.1-3.5-2.1-6.1 0-4.9 3.1-8.5 9.1-9.3v-4.2h5v4.2c2 .3 5.6 1.4 7.8 3.5l-4.2 3.8c-2.1-1.9-4.6-2.1-6.8-2.1-3.4 0-5.1 1.8-5.1 3.9 0 .8.3 1.6.9 2.2.6.6 1.7 1.1 3 1.2l3.8.5c3 .4 4.8 1.2 6.2 2.4 1.7 1.6 2.9 3.9 2.9 6.6.1 5.2-3.5 8.4-8.5 9.3z"/><path class="st3" d="M-4222.6 3373.8c0-.6-.2-1.2-.7-1.6-.5-.5-1-.7-1.6-.7s-1.2.2-1.6.7c-.5.5-.7 1-.7 1.6 0 .6.2 1.2.7 1.6.5.5 1 .7 1.6.7s1.2-.2 1.6-.7c.5-.5.7-1 .7-1.6zm23.4-14.8l-24.7 24.5c-.9.9-2 1.2-3.3 1.2-1.3 0-2.4-.5-3.3-1.4l-3.8-3.9c-.9-.9-1.4-2-1.4-3.3 0-1.3.5-2.4 1.4-3.3l24.7-24.7c.9 2.4 2.3 4.7 4.2 6.5 1.7 1.8 3.8 2.4 6.2 4.4zm23-16.2c0 .9-.3 2.2-.8 3.8-1.1 3.2-3.1 5.9-6 7.9s-6 3-9.4 3c-4.5 0-8.3-1.6-11.5-4.8-3.2-3.2-4.8-7-4.8-11.5s1.6-8.3 4.8-11.5c3.2-3.2 7-4.8 11.5-4.8 1.4 0 2.9.2 4.4.6 1.5.4 2.8 1 3.9 1.7.4.3.6.6.6 1s.2.8-.2 1l-10.3 6.1v8.1l6.6 3.9c.1-.1.9-.7 2.7-1.8 1.8-1.1 3.3-2.1 4.8-2.9s2.3-1.3 2.5-1.3c.4 0 .6.1.8.4.3.4.4.7.4 1.1z"/></g></g></svg>