<svg id="Layer_1" xmlns="http://www.w3.org/2000/svg" viewBox="-4285 3279 140 140"><style>.st0{fill:#FFFFFF;} .st1{fill:#8DC44A;} .st2{fill:#3C5152;} .st3{fill:#4C8E90;} .st4{fill:#009348;}</style><g id="_x31__3_"><circle class="st0" cx="-4215" cy="3349" r="66.5"/><path class="st1" d="M-4215 3419c-38.6 0-70-31.4-70-70s31.4-70 70-70 70 31.4 70 70-31.4 70-70 70zm0-132.9c-34.7 0-62.9 28.2-62.9 62.9s28.2 62.9 62.9 62.9 62.9-28.2 62.9-62.9-28.2-62.9-62.9-62.9z"/><path class="st2" d="M-4225.4 3385.2c0 1.5-.5 2.8-1.6 3.8-1.1 1.1-2.4 1.6-3.8 1.6s-2.8-.5-3.8-1.6-1.6-2.4-1.6-3.8c0-1.5.5-2.8 1.6-3.8 1.1-1.1 2.4-1.6 3.8-1.6s2.8.5 3.8 1.6c1.1 1 1.6 2.3 1.6 3.8zm38.2 0c0 1.5-.5 2.8-1.6 3.8-1.1 1.1-2.4 1.6-3.8 1.6-1.5 0-2.8-.5-3.8-1.6s-1.6-2.4-1.6-3.8c0-1.5.5-2.8 1.6-3.8 1.1-1.1 2.4-1.6 3.8-1.6 1.5 0 2.8.5 3.8 1.6 1 1 1.6 2.3 1.6 3.8z"/><path class="st3" d="M-4181.8 3338.8v21.8c0 .7-.2 1.3-.7 1.8-.5.5-1 .8-1.7.9l-44.5 5.2c.4 1.7.6 2.7.6 3 0 .5-.3 1.4-1 2.7h39.2c.7 0 1.4.3 1.9.8s.8 1.2.8 1.9-.3 1.4-.8 1.9-1.2.8-1.9.8h-43.6c-.7 0-1.4-.3-1.9-.8s-.8-1.2-.8-1.9c0-.3.1-.8.3-1.3.2-.6.5-1.1.7-1.5.2-.4.5-1 .9-1.7s.6-1.1.7-1.3l-7.5-35.1h-8.7c-.7 0-1.4-.3-1.9-.8s-.8-1.2-.8-1.9.3-1.4.8-1.9 1.2-.8 1.9-.8h10.9c.5 0 .9.1 1.2.3.4.2.6.4.8.7.2.3.4.6.6 1s.3.8.3 1.1c.1.3.1.7.2 1.3.1.5.2.9.2 1.1h51.2c.7 0 1.4.3 1.9.8.5.6.7 1.2.7 1.9z"/><path class="st0" d="M-4210.1 3350c-3.8 0-7.4-1-10.7-2.9-3.2-1.9-5.8-4.5-7.7-7.8-1.9-3.3-2.9-6.9-2.9-10.7s1-7.4 2.9-10.7c1.9-3.2 4.5-5.8 7.7-7.7 3.3-1.9 6.8-2.9 10.7-2.9 3.8 0 7.4 1 10.7 2.9 3.2 1.9 5.8 4.5 7.7 7.7 1.9 3.3 2.9 6.8 2.9 10.7 0 3.8-1 7.4-2.9 10.7-1.9 3.2-4.5 5.9-7.7 7.8-3.3 1.9-6.9 2.9-10.7 2.9z"/><g><circle class="st4" cx="-4210.1" cy="3328.6" r="17.7"/><path class="st0" d="M-4210.1 3348.1c-10.7 0-19.5-8.7-19.5-19.5 0-10.7 8.7-19.5 19.5-19.5s19.5 8.7 19.5 19.5-8.8 19.5-19.5 19.5zm0-35.4c-8.8 0-15.9 7.2-15.9 15.9 0 8.8 7.2 15.9 15.9 15.9s15.9-7.2 15.9-15.9c0-8.8-7.1-15.9-15.9-15.9z"/><path class="st0" d="M-4208 3338.3v3.2h-2.9v-3.1c-2.5-.1-4.4-.8-6.1-2.6l2.5-2.5c1.2 1.2 2.9 1.7 4.7 1.7 2.2 0 3.5-.9 3.5-2.4 0-.7-.2-1.3-.6-1.7-.4-.4-.8-.6-1.7-.7l-2.4-.3c-1.7-.2-2.9-.8-3.8-1.6-.9-.9-1.4-2.2-1.4-3.9 0-3.1 2-5.4 5.3-5.9v-2.8h2.9v2.8c2 .2 3.5.9 4.9 2.2l-2.4 2.4c-1.2-1.2-2.7-1.4-4-1.4-2 0-3 1.1-3 2.5 0 .5.2 1 .6 1.4.4.4 1 .7 1.8.8l2.3.3c1.8.2 2.9.7 3.7 1.5 1 1 1.5 2.4 1.5 4.2 0 3.3-2.3 5.3-5.4 5.9z"/></g></g></svg>