<svg id="Layer_1" xmlns="http://www.w3.org/2000/svg" xmlns:xlink="http://www.w3.org/1999/xlink" viewBox="-4285 3279 140 140"><style>.st0{fill:#FFFFFF;} .st1{fill:#BD2327;} .st2{clip-path:url(#SVGID_2_);fill:#FFFFFF;} .st3{clip-path:url(#SVGID_2_);fill:#FFFFFB;} .st4{clip-path:url(#SVGID_2_);fill:#FBFCFA;} .st5{clip-path:url(#SVGID_2_);fill:#FBFBF8;} .st6{clip-path:url(#SVGID_2_);fill:#FBFBF7;} .st7{clip-path:url(#SVGID_2_);fill:#FBF8F4;} .st8{clip-path:url(#SVGID_2_);fill:#F8F8F3;} .st9{clip-path:url(#SVGID_2_);fill:#F8F7F2;} .st10{clip-path:url(#SVGID_2_);fill:#F8F7F1;} .st11{clip-path:url(#SVGID_2_);fill:#F7F6F0;} .st12{clip-path:url(#SVGID_2_);fill:#F7F5EF;} .st13{clip-path:url(#SVGID_2_);fill:#F7F5EE;} .st14{clip-path:url(#SVGID_2_);fill:#F6F3EC;} .st15{clip-path:url(#SVGID_2_);fill:#F6F3EB;} .st16{clip-path:url(#SVGID_2_);fill:#F4F2EA;} .st17{clip-path:url(#SVGID_2_);fill:#F5F2E9;} .st18{clip-path:url(#SVGID_2_);fill:#F2F0E8;} .st19{clip-path:url(#SVGID_2_);fill:#F3F0E7;} .st20{clip-path:url(#SVGID_2_);fill:#F2F0E6;} .st21{clip-path:url(#SVGID_2_);fill:#F1EFE5;} .st22{clip-path:url(#SVGID_2_);fill:#F1EFE4;} .st23{clip-path:url(#SVGID_2_);fill:#F2EEE2;} .st24{clip-path:url(#SVGID_2_);fill:#EFECE1;} .st25{clip-path:url(#SVGID_2_);fill:#EFEDE0;} .st26{clip-path:url(#SVGID_2_);fill:#EFEBDE;} .st27{clip-path:url(#SVGID_2_);fill:#EEEBDD;} .st28{clip-path:url(#SVGID_2_);fill:#EDE9DC;} .st29{clip-path:url(#SVGID_2_);fill:#EDE9DB;} .st30{clip-path:url(#SVGID_2_);fill:#ECE9DA;} .st31{clip-path:url(#SVGID_2_);fill:#EBE8D9;} .st32{clip-path:url(#SVGID_2_);fill:#EAE7D7;} .st33{clip-path:url(#SVGID_2_);fill:#E9E7D6;} .st34{clip-path:url(#SVGID_2_);fill:#E9E7D5;} .st35{clip-path:url(#SVGID_2_);fill:#E8E6D3;} .st36{clip-path:url(#SVGID_2_);fill:#E8E5D2;} .st37{clip-path:url(#SVGID_2_);fill:#E8E5D1;} .st38{clip-path:url(#SVGID_2_);fill:#E8E4D0;} .st39{clip-path:url(#SVGID_2_);fill:#E8E4CF;} .st40{clip-path:url(#SVGID_2_);fill:#E7E3CF;} .st41{clip-path:url(#SVGID_2_);fill:#E7E3CD;} .st42{clip-path:url(#SVGID_2_);fill:#E6E2CD;} .st43{clip-path:url(#SVGID_2_);fill:#E6E2CC;} .st44{clip-path:url(#SVGID_2_);fill:#E5E2CA;} .st45{clip-path:url(#SVGID_2_);fill:#E5E1CA;} .st46{clip-path:url(#SVGID_2_);fill:#E4E1C9;} .st47{clip-path:url(#SVGID_2_);fill:#E4E0C8;} .st48{clip-path:url(#SVGID_2_);fill:#E3DFC8;} .st49{clip-path:url(#SVGID_2_);fill:#E2DEC5;} .st50{clip-path:url(#SVGID_2_);fill:#8B8A8A;} .st51{clip-path:url(#SVGID_4_);fill:#FFFFFF;} .st52{clip-path:url(#SVGID_4_);fill:#FFFFFB;} .st53{clip-path:url(#SVGID_4_);fill:#FBFCFA;} .st54{clip-path:url(#SVGID_4_);fill:#FBFBF8;} .st55{clip-path:url(#SVGID_4_);fill:#FBFBF7;} .st56{clip-path:url(#SVGID_4_);fill:#FBF8F4;} .st57{clip-path:url(#SVGID_4_);fill:#F8F8F3;} .st58{clip-path:url(#SVGID_4_);fill:#F8F7F2;} .st59{clip-path:url(#SVGID_4_);fill:#F8F7F1;} .st60{clip-path:url(#SVGID_4_);fill:#F7F6F0;} .st61{clip-path:url(#SVGID_4_);fill:#F7F5EF;} .st62{clip-path:url(#SVGID_4_);fill:#F7F5EE;} .st63{clip-path:url(#SVGID_4_);fill:#F6F3EC;} .st64{clip-path:url(#SVGID_4_);fill:#F6F3EB;} .st65{clip-path:url(#SVGID_4_);fill:#F4F2EA;} .st66{clip-path:url(#SVGID_4_);fill:#F5F2E9;} .st67{clip-path:url(#SVGID_4_);fill:#F2F0E8;} .st68{clip-path:url(#SVGID_4_);fill:#F3F0E7;} .st69{clip-path:url(#SVGID_4_);fill:#F2F0E6;} .st70{clip-path:url(#SVGID_4_);fill:#F1EFE5;} .st71{clip-path:url(#SVGID_4_);fill:#F1EFE4;} .st72{clip-path:url(#SVGID_4_);fill:#F2EEE2;} .st73{clip-path:url(#SVGID_4_);fill:#EFECE1;} .st74{clip-path:url(#SVGID_4_);fill:#EFEDE0;} .st75{clip-path:url(#SVGID_4_);fill:#EFEBDE;} .st76{clip-path:url(#SVGID_4_);fill:#EEEBDD;} .st77{clip-path:url(#SVGID_4_);fill:#EDE9DC;} .st78{clip-path:url(#SVGID_4_);fill:#EDE9DB;} .st79{clip-path:url(#SVGID_4_);fill:#ECE9DA;} .st80{clip-path:url(#SVGID_4_);fill:#EBE8D9;} .st81{clip-path:url(#SVGID_4_);fill:#EAE7D7;} .st82{clip-path:url(#SVGID_4_);fill:#E9E7D6;} .st83{clip-path:url(#SVGID_4_);fill:#E9E7D5;} .st84{clip-path:url(#SVGID_4_);fill:#E8E6D3;} .st85{clip-path:url(#SVGID_4_);fill:#E8E5D2;} .st86{clip-path:url(#SVGID_4_);fill:#E8E5D1;} .st87{clip-path:url(#SVGID_4_);fill:#E8E4D0;} .st88{clip-path:url(#SVGID_4_);fill:#E8E4CF;} .st89{clip-path:url(#SVGID_4_);fill:#E7E3CF;} .st90{clip-path:url(#SVGID_4_);fill:#E7E3CD;} .st91{clip-path:url(#SVGID_4_);fill:#E6E2CD;} .st92{clip-path:url(#SVGID_4_);fill:#E6E2CC;} .st93{clip-path:url(#SVGID_4_);fill:#E5E2CA;} .st94{clip-path:url(#SVGID_4_);fill:#E5E1CA;} .st95{clip-path:url(#SVGID_4_);fill:#E4E1C9;} .st96{clip-path:url(#SVGID_4_);fill:#E4E0C8;} .st97{clip-path:url(#SVGID_4_);fill:#E3DFC8;} .st98{clip-path:url(#SVGID_4_);fill:#E2DEC5;} .st99{clip-path:url(#SVGID_4_);fill:#8B8A8A;} .st100{fill:#8B8A8A;}</style><g id="Education_2_"><circle class="st0" cx="-4215" cy="3349" r="66.5"/><path class="st1" d="M-4215 3419c-38.6 0-70-31.4-70-70s31.4-70 70-70 70 31.4 70 70-31.4 70-70 70zm0-132.9c-34.7 0-62.9 28.2-62.9 62.9s28.2 62.9 62.9 62.9 62.9-28.2 62.9-62.9-28.2-62.9-62.9-62.9z"/><g><defs><path id="SVGID_1_" d="M-4206.1 3345c6-5.5 12.4-10.7 19.1-15.4 0-2.2-1.1-4.5-3-6.4s-4.3-3-6.4-3c-4.8 6.7-9.9 13-15.4 19.1l5.7 5.7z"/></defs><clipPath id="SVGID_2_"><use xlink:href="#SVGID_1_" overflow="visible"/></clipPath><defs><path id="SVGID_3_" d="M-4225.7 3353c-6 5.5-12.4 10.7-19.1 15.4 0 2.2 1.1 4.5 3 6.4s4.3 3 6.4 3c4.8-6.7 9.9-13 15.4-19.1l-5.7-5.7z"/></defs><clipPath id="SVGID_4_"><use xlink:href="#SVGID_3_" overflow="visible"/></clipPath><path class="st1" d="M-4213 3360.7c.3.3.7.3 1 0l7.8-7.8c.3-.3.3-.7 0-1l-1.4-1.4-3.1-3.1-5.6-5.6-3.1-3.1-1.4-1.4c-.3-.3-.7-.3-1 0l-7.8 7.8c-.3.3-.3.7 0 1l1.4 1.4 3.1 3.1 5.6 5.6 3.1 3.1 1.4 1.4z"/><g><path class="st1" d="M-4195.4 3368.7l-9.8-9.8-4.3 4.3c-.8.8-1.9 1.3-3 1.3-.5 0-1-.1-1.5-.3-.6.6-1.1 1.2-1.7 1.9l11.5 11.5c.3.3.7.3 1 0 .2-.2.3-.5.2-.7l-.3-7.5 7.2.6c.3.1.6-.1.8-.4.2-.3.1-.6-.1-.9z"/></g><g><path class="st100" d="M-4219.9 3358.8c-5.5 6-10.7 12.4-15.4 19.1-2.2 0-4.5-1.1-6.4-3s-3-4.3-3-6.4c6.7-4.8 13-9.9 19.1-15.4l-3.1-3.1c-6.1 5.6-12.6 10.8-19.3 15.6l-.8.5-.1.9c-.6 3.8 1 7.9 4.2 11.1 3.2 3.2 7.3 4.7 11.1 4.2l.9-.1.5-.8c4.8-6.8 10-13.2 15.6-19.3l-3.3-3.3z"/></g><g><path class="st100" d="M-4186.9 3320c-3.2-3.2-7.3-4.7-11.1-4.2l-.9.1-.5.8c-4.8 6.8-10 13.2-15.6 19.3l3.1 3.1c5.5-6 10.7-12.4 15.4-19.1 2.2 0 4.5 1.1 6.4 3s3 4.3 3 6.4c-6.7 4.8-13 9.9-19.1 15.4l3.1 3.1c6.1-5.6 12.6-10.8 19.3-15.6l.8-.5.1-.9c.7-3.6-.9-7.7-4-10.9z"/></g></g></g></svg>