<svg id="Layer_1" xmlns="http://www.w3.org/2000/svg" viewBox="-4285 3279 140 140"><style>.st0{fill:#FFFFFF;} .st1{fill:#8DC44A;} .st2{fill:#F2A8A5;} .st3{fill:#EC2F24;} .st4{fill:#8C8B8B;} .st5{fill:#FFC744;}</style><g id="Wedding_2_"><circle class="st0" cx="-4215" cy="3349" r="66.5"/><path class="st1" d="M-4215 3419c-38.6 0-70-31.4-70-70s31.4-70 70-70 70 31.4 70 70-31.4 70-70 70zm0-132.9c-34.7 0-62.9 28.2-62.9 62.9s28.2 62.9 62.9 62.9 62.9-28.2 62.9-62.9-28.2-62.9-62.9-62.9z"/><g><path class="st2" d="M-4207.8 3318.1c-1.4-1.4-3.7-1.4-5.2 0l-2 2-2-2c-1.4-1.4-3.7-1.4-5.2 0-1.4 1.4-1.4 3.7 0 5.2l2 2 5.2 5.2 5.2-5.2 2-2c1.4-1.5 1.4-3.8 0-5.2z"/><path class="st3" d="M-4215 3332.3l-1-.9-6.1-6.1-1.1-1.1c-1.9-1.9-1.9-5.1 0-7 1.9-1.9 5.2-1.9 7 0l1.1 1.1 1.1-1.1c1.9-1.9 5.2-1.9 7 0 1.9 1.9 1.9 5.1 0 7l-8 8.1zm-3.3-7l3.3 3.3 6.3-6.3c.9-.9.9-2.4 0-3.3-.9-.9-2.4-.9-3.3 0l-3 3-3-3c-.9-.9-2.4-.9-3.3 0-.9.9-.9 2.4 0 3.3l3 3z"/><path class="st4" d="M-4222.1 3375c-1.8.6-3.7 1-5.7 1-9.6 0-17.4-7.8-17.4-17.4 0-9.6 7.8-17.4 17.4-17.4 2 0 3.9.3 5.7 1 1.1.4 2.2.9 3.2 1.5 1.5.9 2.8 1.9 3.9 3.2.8.8 1.5 1.7 2.1 2.7 1.6 2.7 2.6 5.8 2.6 9.1s-1 6.4-2.6 9.1c1.1 1.3 2.4 2.4 3.9 3.2 2.3-3.5 3.7-7.8 3.7-12.3 0-4.5-1.4-8.8-3.7-12.3-.6-.9-1.3-1.8-2.1-2.7-1.2-1.3-2.5-2.5-3.9-3.5-1-.7-2.1-1.3-3.2-1.8-2.9-1.4-6.2-2.2-9.6-2.2-12.4 0-22.5 10.1-22.5 22.5s10.1 22.5 22.5 22.5c3.4 0 6.7-.8 9.6-2.2-1.4-1.3-2.8-2.6-3.9-4z"/><g><path class="st5" d="M-4202.2 3336c-3.4 0-6.7.8-9.6 2.2 1.4 1.1 2.8 2.4 3.9 3.8 1.8-.6 3.7-1 5.7-1 9.6 0 17.4 7.8 17.4 17.4 0 9.6-7.8 17.4-17.4 17.4-2 0-3.9-.3-5.7-1-1.1-.4-2.2-.9-3.2-1.5-1.5-.9-2.8-1.9-3.9-3.2-.8-.8-1.5-1.7-2.1-2.7-1.6-2.7-2.6-5.8-2.6-9.1s1-6.4 2.6-9.1c-1.1-1.3-2.4-2.4-3.9-3.2-2.3 3.5-3.7 7.8-3.7 12.3 0 4.5 1.4 8.8 3.7 12.3.6.9 1.3 1.8 2.1 2.7 1.2 1.3 2.5 2.5 3.9 3.5 1 .7 2.1 1.3 3.2 1.8 2.9 1.4 6.2 2.2 9.6 2.2 12.4 0 22.5-10.1 22.5-22.5 0-12.2-10.1-22.3-22.5-22.3z"/></g></g></g></svg>