<svg id="Layer_1" xmlns="http://www.w3.org/2000/svg" viewBox="-4285.2 3278.7 140 140"><style>.st0{fill:#FFFFFF;} .st1{fill:#019547;} .st2{fill:#4B8F92;} .st3{fill:#3D5253;}</style><g id="Line_Of_Credit_2_"><g id="XMLID_34_"><circle id="XMLID_38_" class="st0" cx="-4215.3" cy="3349.4" r="66.5"/><path id="XMLID_35_" class="st1" d="M-4215.3 3419.4c-38.6 0-70-31.4-70-70s31.4-70 70-70 70 31.4 70 70-31.4 70-70 70zm0-132.9c-34.7 0-62.9 28.2-62.9 62.9s28.2 62.9 62.9 62.9 62.9-28.2 62.9-62.9c.1-34.7-28.2-62.9-62.9-62.9z"/></g><g id="_x32_4_1_"><path id="XMLID_9_" class="st2" d="M-4173 3322.3v41.7c0 1.2-.3 2.1-1.5 2.1s-1.5-.9-1.5-2.1v-40h-70.8c-1.2 0-2.1-.3-2.1-1.5s.9-1.5 2.1-1.5h72.5c1.1 0 1.3.2 1.3 1.3z"/><path id="XMLID_8_" class="st2" d="M-4180.4 3326h-72.5c-1.2 0-2.1 1.3-2.1 2.5s.9 2.5 2.1 2.5h71.9v38.5c0 1.2.3 2.1 1.5 2.1s1.5-.9 1.5-2.1v-41.7c0-1.1-1.3-1.8-2.4-1.8z"/><g id="XMLID_26_"><path id="XMLID_7_" class="st1" d="M-4183 3334.1v41.7c0 1.5-2.4 2.2-3.9 2.2h-72.5c-1.5 0-2.6-.6-2.6-2.2v-41.7c0-1.5 1.1-3.1 2.6-3.1h72.5c1.5 0 3.9 1.6 3.9 3.1z"/><rect id="XMLID_5_" x="-4257" y="3338" class="st0" width="67" height="35"/><path id="XMLID_4_" class="st1" d="M-4254.5 3366.5c-.2-.2-.5-.4-.5-.6v-21.7c0-.2.3-.5.5-.6.2-.2.5-.2.8-.2h.5c1.8 0 3.4-1.5 3.4-3.3v-.2c0-.2.1.1.2-.1.2-.2.4.3.6.3h51.8c.2 0 .5-.5.6-.3.2.2.2.1.2.4 0 1.9 1.5 3.3 3.3 3.3.1 0 .3-.1.4-.1.2 0 .3 0 .5.2s.1.4.1.6v21.7c0 .2.1.5-.1.6-.2.2-.3.2-.6.2-.2 0-.3-.1-.4-.1-1.8 0-3.3 1.5-3.3 3.3v.2c0 .2-.1.4-.2.6-.2.2-.4.2-.6.2h-51.8c-.2 0-.5-.1-.6-.2-.2-.2-.2-.4-.2-.6v-.2c0-1.9-1.5-3.4-3.3-3.4h-.5c-.3.2-.6.1-.8 0z"/><path id="XMLID_28_" class="st0" d="M-4235.2 3355c0 6.7 5.4 12.1 12.1 12.1 6.7 0 12.1-5.4 12.1-12.1 0-6.7-5.4-12.1-12.1-12.1-6.7 0-12.1 5.4-12.1 12.1z"/><path id="XMLID_3_" class="st3" d="M-4223.8 3359.5c-1.5 0-2.8-.5-3.8-1v2.7c.9.5 2.6.9 4.6 1v1.9h1v-2.1c2-.4 4-2.2 4-4.2 0-2.1-1.1-3.3-3.8-4.3-2-.7-2.8-1.2-2.8-1.9 0-.6.5-1.3 2-1.3 1.6 0 2.7.5 3.3.8l.7-2.6c-.8-.4-1.3-.7-3.3-.8v-.7h-1v.8c-4 .5-4.5 2-4.5 4.1 0 2.2 1.4 3.4 3.8 4.2 1.7.6 2.3 1.1 2.3 2-.1.9-1.1 1.4-2.5 1.4z"/></g></g></g></svg>