<svg id="Layer_1" xmlns="http://www.w3.org/2000/svg" viewBox="-4284.3 3279.5 140 140"><style>.st0{fill:#FFFFFF;} .st1{fill:#019547;} .st2{fill:#3D5253;}</style><g id="XMLID_26_"><g id="XMLID_33_"><circle id="XMLID_37_" class="st0" cx="-4214.3" cy="3349.5" r="66.5"/><path id="XMLID_34_" class="st1" d="M-4214.3 3419.5c-38.6 0-70-31.4-70-70s31.4-70 70-70 70 31.4 70 70-31.4 70-70 70zm0-132.9c-34.7 0-62.9 28.2-62.9 62.9s28.2 62.9 62.9 62.9 62.9-28.2 62.9-62.9-28.2-62.9-62.9-62.9z"/></g><polygon id="XMLID_2_" class="st2" points="-4173,3371 -4173,3377 -4249,3377 -4249,3321 -4243,3321 -4243,3371"/><g id="XMLID_27_"><rect id="XMLID_31_" x="-4243.7" y="3353.3" transform="rotate(-45 -4228.416 3356.066)" class="st1" width="30.7" height="5.7"/><rect id="XMLID_30_" x="-4215.1" y="3335.9" transform="rotate(-45 -4196.753 3338.67)" class="st1" width="36.8" height="5.6"/><rect id="XMLID_29_" x="-4221.7" y="3345.8" transform="rotate(45 -4213.796 3348.72)" class="st1" width="15.7" height="5.8"/><polygon id="XMLID_1_" class="st1" points="-4198.9,3322 -4179,3322 -4179,3340.9"/></g></g></svg>