<svg id="Layer_1" xmlns="http://www.w3.org/2000/svg" viewBox="-4285 3279 140 140"><style>.st0{fill:#FFFFFF;} .st1{fill:#E79446;} .st2{fill:#4A8E91;} .st3{fill:#3C5152;} .st4{fill:#006838;}</style><g id="Scenario_Planner_1_"><circle class="st0" cx="-4215" cy="3349" r="66.5"/><path class="st1" d="M-4215 3419c-38.6 0-70-31.4-70-70s31.4-70 70-70 70 31.4 70 70-31.4 70-70 70zm0-132.9c-34.7 0-62.9 28.2-62.9 62.9s28.2 62.9 62.9 62.9 62.9-28.2 62.9-62.9-28.2-62.9-62.9-62.9z"/><g><path class="st2" d="M-4210.6 3333.3c0 1.7 1.4 3.2 3.2 3.2h10.5c1.7 0 3.2-1.4 3.2-3.2v-1.1h12.6v-8.4h-12.6v-1.1c0-1.7-1.4-3.2-3.2-3.2h-10.5c-1.7 0-3.2 1.4-3.2 3.2v1.1h-37.9v8.4h37.9v1.1z"/><rect x="-4206.4" y="3323.9" class="st0" width="8.4" height="8.4"/><path class="st3" d="M-4235.8 3354.4c0 1.7 1.4 3.2 3.2 3.2h10.5c1.7 0 3.2-1.4 3.2-3.2v-1.1h37.9v-8.4h-37.9v-1.1c0-1.7-1.4-3.2-3.2-3.2h-10.5c-1.7 0-3.2 1.4-3.2 3.2v1.1h-12.6v8.4h12.6v1.1z"/><rect x="-4231.6" y="3344.9" class="st0" width="8.4" height="8.4"/><path class="st4" d="M-4210.6 3374.4v1.1c0 1.7 1.4 3.2 3.2 3.2h10.5c1.7 0 3.2-1.4 3.2-3.2v-1.1h12.6v-8.4h-12.6v-1.1c0-1.7-1.4-3.2-3.2-3.2h-10.5c-1.7 0-3.2 1.4-3.2 3.2v1.1h-37.9v8.4h37.9z"/><rect x="-4206.4" y="3365.9" class="st0" width="8.4" height="8.4"/></g></g></svg>