<svg id="Layer_1" xmlns="http://www.w3.org/2000/svg" viewBox="-4285 3279 140 140"><style>.st0{fill:#FFFFFF;} .st1{fill:#8DC44A;} .st2{fill:#FFC744;} .st3{fill:#E3DFC6;} .st4{fill:#498D91;}</style><g id="RIng_2_"><circle class="st0" cx="-4215" cy="3349" r="66.5"/><path class="st1" d="M-4215 3419c-38.6 0-70-31.4-70-70s31.4-70 70-70 70 31.4 70 70-31.4 70-70 70zm0-132.9c-34.7 0-62.9 28.2-62.9 62.9s28.2 62.9 62.9 62.9 62.9-28.2 62.9-62.9-28.2-62.9-62.9-62.9z"/><path class="st2" d="M-4215 3382.7c-13 0-23.7-10.6-23.7-23.7 0-13 10.6-23.7 23.7-23.7s23.7 10.6 23.7 23.7-10.7 23.7-23.7 23.7zm0-42c-10.1 0-18.3 8.2-18.3 18.3 0 10.1 8.2 18.3 18.3 18.3s18.3-8.2 18.3-18.3c0-10-8.2-18.3-18.3-18.3z"/><polygon class="st3" points="-4217.3,3317.9 -4221,3317.9 -4228.1,3325 -4220,3325"/><path class="st4" d="M-4220 3325.9h-8.1c-.4 0-.7-.2-.8-.5-.1-.3-.1-.7.2-1l7.1-7.1c.2-.2.4-.3.6-.3h3.7c.3 0 .6.1.7.4.2.2.2.5.1.8l-2.7 7.1c-.1.4-.4.6-.8.6zm-5.9-1.8h5.3l2-5.3h-2.1l-5.2 5.3z"/><polygon class="st0" points="-4201.9,3325 -4209,3317.9 -4212.7,3317.9 -4210,3325"/><path class="st4" d="M-4201.9 3325.9h-8.1c-.4 0-.7-.2-.8-.6l-2.7-7.1c-.1-.3-.1-.6.1-.8.2-.2.4-.4.7-.4h3.7c.2 0 .5.1.6.3l7.1 7.1c.3.3.3.6.2 1-.1.3-.5.5-.8.5zm-7.5-1.8h5.3l-5.3-5.3h-2.1l2.1 5.3z"/><polygon class="st3" points="-4228.1,3325 -4215,3338.1 -4220,3325"/><path class="st4" d="M-4215 3339c-.2 0-.5-.1-.6-.3l-13.1-13.1c-.3-.3-.3-.6-.2-1 .1-.3.5-.5.8-.5h8.1c.4 0 .7.2.8.6l5 13.1c.1.4 0 .8-.3 1.1-.2 0-.3.1-.5.1zm-10.9-13.1l8.6 8.6-3.3-8.6h-5.3z"/><g><polygon class="st0" points="-4210,3325 -4215,3338.1 -4201.9,3325"/><path class="st4" d="M-4215 3339c-.2 0-.3 0-.5-.1-.4-.2-.5-.7-.3-1.1l5-13.1c.1-.3.5-.6.8-.6h8.1c.4 0 .7.2.8.5.1.3.1.7-.2 1l-13.1 13.1c-.1.2-.4.3-.6.3zm5.6-13.1l-3.3 8.6 8.6-8.6h-5.3z"/></g><g><polygon class="st0" points="-4210,3325 -4212.7,3317.9 -4217.3,3317.9 -4220,3325"/><path class="st4" d="M-4210 3325.9h-10c-.3 0-.6-.1-.7-.4-.2-.2-.2-.5-.1-.8l2.7-7.1c.1-.3.5-.6.8-.6h4.6c.4 0 .7.2.8.6l2.7 7.1c.1.3.1.6-.1.8-.1.2-.4.4-.7.4zm-8.7-1.8h7.4l-2-5.3h-3.4l-2 5.3z"/></g><g><polygon class="st3" points="-4220,3325 -4215,3338.1 -4210,3325"/><path class="st4" d="M-4215 3339c-.4 0-.7-.2-.8-.6l-5-13.1c-.1-.3-.1-.6.1-.8.2-.2.4-.4.7-.4h10c.3 0 .6.1.7.4.2.2.2.5.1.8l-5 13.1c-.1.3-.4.6-.8.6zm-3.7-13.1l3.7 9.7 3.7-9.7h-7.4z"/></g></g></svg>