<svg id="Layer_1" xmlns="http://www.w3.org/2000/svg" viewBox="-4286 3279 140 140"><style>.st0{fill:#FFFFFF;} .st1{fill:#019547;} .st2{fill:#4B8F92;} .st3{fill:#059347;}</style><g id="Income_1_"><g id="XMLID_40_"><circle id="XMLID_45_" class="st0" cx="-4216" cy="3349" r="66.5"/><path id="XMLID_41_" class="st1" d="M-4216 3419c-38.6 0-70-31.4-70-70s31.4-70 70-70 70 31.4 70 70-31.4 70-70 70zm0-132.9c-34.7 0-62.9 28.2-62.9 62.9s28.2 62.9 62.9 62.9 62.9-28.2 62.9-62.9-28.2-62.9-62.9-62.9z"/></g><g id="XMLID_26_"><path id="XMLID_36_" class="st2" d="M-4190.9 3328.6c.7.7 1.4 1.7 1.9 3s.8 2.4.8 3.5v45.6c0 1.1-.4 2-1.1 2.7s-1.6 1.1-2.7 1.1h-53.2c-1.1 0-2-.4-2.7-1.1-.7-.7-1.1-1.6-1.1-2.7v-63.3c0-1.1.4-2 1.1-2.7s1.6-1.1 2.7-1.1h35.4c1.1 0 2.2.3 3.5.8 1.3.5 2.3 1.2 3 1.9l12.4 12.3zm-17.6-9.7v14.9h14.9c-.3-.8-.6-1.3-.9-1.6l-12.4-12.4c-.3-.3-.8-.6-1.6-.9zm15.2 60.5v-40.5h-16.5c-1.1 0-2-.4-2.7-1.1-.7-.7-1.1-1.6-1.1-2.7v-16.5h-30.4v60.8h50.7z"/><g id="XMLID_28_"><g id="XMLID_31_"><circle id="XMLID_35_" class="st3" cx="-4191.5" cy="3366.7" r="17.7"/><path id="XMLID_32_" class="st0" d="M-4191.5 3386.2c-10.7 0-19.5-8.7-19.5-19.5 0-10.7 8.7-19.5 19.5-19.5 10.7 0 19.5 8.7 19.5 19.5s-8.8 19.5-19.5 19.5zm0-35.4c-8.8 0-15.9 7.2-15.9 15.9 0 8.8 7.2 15.9 15.9 15.9 8.8 0 15.9-7.2 15.9-15.9 0-8.8-7.1-15.9-15.9-15.9z"/></g><path id="XMLID_30_" class="st0" d="M-4182.6 3364.2c.4 0 .7.1.9.4.2.2.4.5.4.9v2.5c0 .4-.1.7-.4.9-.2.2-.5.4-.9.4h-17.2c-.4 0-.7-.1-.9-.4-.2-.2-.4-.5-.4-.9v-2.5c0-.4.1-.7.4-.9.2-.2.5-.4.9-.4h17.2z"/><path id="XMLID_29_" class="st0" d="M-4193.7 3358.1c0-.4.1-.7.4-.9.2-.2.5-.4.9-.4h2.5c.4 0 .7.1.9.4.2.2.4.5.4.9v17.2c0 .4-.1.7-.4.9-.2.2-.5.4-.9.4h-2.5c-.4 0-.7-.1-.9-.4-.2-.2-.4-.5-.4-.9v-17.2z"/></g><path id="XMLID_27_" class="st3" d="M-4224.2 3367.6v4.4h-3.9v-4.2c-3.4-.2-6-1.2-8.4-3.5l3.4-3.4c1.7 1.7 4 2.3 6.5 2.3 3.1 0 4.7-1.2 4.7-3.4 0-1-.3-1.8-.8-2.3-.5-.5-1.1-.8-2.4-1l-3.2-.5c-2.3-.3-4-1.1-5.2-2.2-1.3-1.3-1.9-3-1.9-5.3 0-4.2 2.7-7.4 7.3-8.1v-3.8h3.9v3.8c2.7.3 4.9 1.2 6.7 3.1l-3.3 3.3c-1.7-1.6-3.7-1.9-5.5-1.9-2.8 0-4.1 1.6-4.1 3.4 0 .7.2 1.4.8 1.9.5.5 1.4.9 2.5 1.1l3.2.5c2.4.3 4 1 5.1 2.1 1.4 1.4 2.1 3.4 2.1 5.7-.1 4.5-3.2 7.2-7.5 8z"/></g></g></svg>