<svg id="Layer_1" xmlns="http://www.w3.org/2000/svg" viewBox="-4285 3279 140 140"><style>.st0{fill:#FFFFFF;} .st1{fill:#8DC44A;} .st2{fill:none;} .st3{fill:#8BC53F;} .st4{fill:#009345;} .st5{fill:#006838;} .st6{fill:#498D91;} .st7{fill:#3C5152;} .st8{fill:#E4E0C7;}</style><g id="House_2_"><circle class="st0" cx="-4215" cy="3349" r="66.5"/><path class="st1" d="M-4215 3419c-38.6 0-70-31.4-70-70s31.4-70 70-70 70 31.4 70 70-31.4 70-70 70zm0-132.9c-34.7 0-62.9 28.2-62.9 62.9s28.2 62.9 62.9 62.9 62.9-28.2 62.9-62.9-28.2-62.9-62.9-62.9z"/><g><path class="st2" d="M-4228.4 3326.8c.1 0 .2 0 .4-.1-.2 0-.3 0-.4.1zM-4251.3 3370.5h-.2.2zM-4242.3 3370.5h-.2.2zM-4253.8 3369.7c-.1 0-.1 0 0 0-.1 0-.1 0 0 0zM-4252.6 3370.2c-.1 0-.1-.1-.2-.1.1.1.1.1.2.1zM-4239.8 3370.4h-.3c.1.1.2 0 .3 0zM-4241.2 3370.6h.2c-.1-.1-.2-.1-.2 0 0-.1 0 0 0 0zM-4256.8 3367.3c0-.1-.1-.1-.1-.2 0 .1.1.1.1.2zM-4219.7 3328.7c.1.1.2.1.3.2-.1-.1-.2-.1-.3-.2zM-4254.9 3369.1c-.1 0-.1-.1-.2-.1.1 0 .1 0 .2.1zM-4256 3368.2l-.1-.1.1.1zM-4243.3 3370.3c-.1 0-.2-.1-.3-.1 0 0 .1 0 .3.1zM-4222.9 3327.1c.1 0 .2.1.3.1-.1 0-.2 0-.3-.1zM-4172.4 3356.3h-.2.2zM-4171.1 3356.3h-.1.1zM-4171.8 3356.4zM-4218.2 3329.9l.1.1-.1-.1zM-4170.5 3356.1c-.1 0-.1.1-.2.1.1-.1.1-.1.2-.1zM-4224.8 3326.7h.3-.3zM-4226.4 3326.6s-.1 0 0 0h.1-.1zM-4216 3332.9c.1.1.1.2.2.3-.1-.1-.2-.2-.2-.3zM-4221.2 3327.8c.1 0 .1.1 0 0 .1.1.1 0 0 0zM-4217 3331.3l.2.2-.2-.2z"/><path class="st3" d="M-4236.2 3360.2c-.1 0-.2-.1-.3-.1.1 0 .2 0 .3.1zM-4238 3359.5h-.1c.1-.1.1 0 .1 0zM-4243.1 3354.4c-.1-.1-.1-.2-.2-.3.1.1.1.2.2.3zM-4234.4 3360.6h-.3.3zM-4239.5 3358.6c-.1-.1-.2-.1-.3-.2.2.1.3.1.3.2zM-4241 3357.3c-.1-.1-.1-.1-.1-.2 0 .1.1.2.1.2zM-4242.1 3356l-.2-.2c.1.1.1.2.2.2z"/><path class="st4" d="M-4248.2 3353.9c-.7-2.3-.9-4.7-.6-7-3.2 1.3-5.2 4.5-5.2 7.8-3.6 1.9-5.4 6.1-4.1 10 .1.4.3.8.5 1.2 0 .1.1.2.1.2.2.3.4.7.6 1 0 .1.1.1.1.2.2.3.5.6.7.8l.1.1c.3.3.6.5.9.7.1 0 .1.1.2.1.3.2.6.4 1 .6h.1c.3.2.7.3 1 .4.1 0 .1.1.2.1.4.1.7.2 1.1.3h.2c.3 0 .6.1.9.1v-1.6c0-1.8 1.4-3.2 3.2-3.2 1.8 0 3.2 1.4 3.2 3.2v1c.1 0 .2.1.3.1.1 0 .2.1.3.1.3.1.6.1.9.2h.2c.3 0 .7.1 1.1.1h.3c.3 0 .6 0 .9-.1h.3c.4-.1.8-.1 1.1-.3 2.5-.8 4.4-2.7 5.3-5-6.9-.1-12.8-4.6-14.9-11.1zM-4230.7 3360.5c-.1 0-.2 0-.4.1.1 0 .3-.1.4-.1zM-4232.7 3360.7h-.1.1z"/><path class="st4" d="M-4242.5 3370.4c-.3 0-.6-.1-.9-.2.3.1.6.2.9.2zM-4255.1 3368.9c-.3-.2-.6-.5-.9-.7.3.3.6.5.9.7zM-4256.1 3368.1c-.3-.3-.5-.5-.7-.8.2.3.5.5.7.8zM-4244 3370.1c.1 0 .2.1.3.1-.1-.1-.2-.1-.3-.1zM-4251.3 3370.5c.3 0 .6.1.9.1-.3 0-.6 0-.9-.1zM-4256.9 3367.1c-.2-.3-.4-.7-.6-1 .1.4.4.7.6 1zM-4253.9 3369.7c-.3-.2-.7-.4-1-.6.3.2.6.4 1 .6zM-4238.6 3370.2c-.4.1-.8.2-1.1.3.3-.1.7-.2 1.1-.3zM-4251.5 3370.5c-.4-.1-.7-.2-1.1-.3.4.1.7.2 1.1.3zM-4252.8 3370.1c-.3-.1-.7-.3-1-.4.3.2.6.3 1 .4zM-4240.1 3370.5c-.3 0-.6.1-.9.1.3-.1.6-.1.9-.1zM-4241.3 3370.5c-.4 0-.7 0-1.1-.1.4.1.8.1 1.1.1z"/><path class="st3" d="M-4244.2 3346.3z"/><path class="st4" d="M-4216.9 3331.5c.3.4.6.9.9 1.4-.3-.5-.6-1-.9-1.4zM-4219.4 3328.9c.4.3.9.7 1.2 1-.4-.3-.8-.7-1.2-1zM-4218 3330.1c.4.4.7.7 1 1.2-.4-.5-.7-.8-1-1.2zM-4228.1 3326.7c.5-.1 1.1-.1 1.6-.1-.5 0-1 0-1.6.1zM-4222.6 3327.2c.5.2 1 .4 1.4.6-.4-.2-.9-.4-1.4-.6zM-4224.5 3326.8c.5.1 1.1.2 1.6.4-.5-.2-1-.4-1.6-.4zM-4226.3 3326.6c.5 0 1 .1 1.6.1-.6-.1-1.1-.1-1.6-.1zM-4221.1 3327.9c.5.2.9.5 1.4.8-.4-.3-.9-.6-1.4-.8zM-4230 3327.1c.5-.2 1.1-.3 1.6-.4-.6.2-1.1.3-1.6.4zM-4215.9 3333.2c.3.5.5 1 .7 1.6-.2-.6-.4-1.1-.7-1.6zM-4243.3 3354.1c-.3-.5-.5-1-.7-1.6.2.6.4 1.1.7 1.6zM-4239.7 3358.4c-.4-.3-.8-.7-1.2-1 .3.3.7.7 1.2 1zM-4238.1 3359.4c-.5-.2-.9-.5-1.4-.8.5.3.9.6 1.4.8zM-4234.7 3360.5c-.5-.1-1-.2-1.6-.4.6.2 1.1.3 1.6.4zM-4241.1 3357.2c-.4-.4-.7-.7-1-1.1.3.3.6.7 1 1.1zM-4234.4 3360.6c.5.1 1 .1 1.5.1-.5 0-1 0-1.5-.1zM-4236.5 3360.1c-.5-.2-1-.4-1.4-.6.4.2.9.4 1.4.6zM-4242.3 3355.8c-.3-.4-.6-.9-.9-1.4.3.5.6 1 .9 1.4zM-4231.1 3360.6c-.5.1-1.1.1-1.6.1.5 0 1.1 0 1.6-.1zM-4232.9 3360.7s.1 0 0 0c.1 0 0 0 0 0zM-4230.7 3360.5c.2 0 .4-.1.7-.1-.3 0-.5.1-.7.1z"/><path class="st4" d="M-4231.3 3357.9c-1.1-1.6-1.4-3.4-1.1-5.2.3-1.9 1.4-3.7 3.1-4.8l14.6-9.7c0-1.1-.1-2.3-.5-3.4-.2-.6-.4-1.1-.7-1.6-.1-.1-.1-.2-.2-.3-.3-.5-.5-1-.9-1.4l-.2-.2c-.3-.4-.6-.8-1-1.2l-.1-.1c-.4-.4-.8-.7-1.2-1-.1-.1-.2-.1-.3-.2-.4-.3-.9-.6-1.4-.8h-.1c-.5-.2-1-.4-1.4-.6-.1 0-.2-.1-.3-.1-.5-.2-1-.3-1.6-.4h-.3c-.5-.1-1-.1-1.6-.1h-.1c-.5 0-1.1 0-1.6.1-.1 0-.2 0-.4.1-.5.1-1.1.2-1.6.4-5 1.6-8.2 6.3-8.2 11.3-1.7.9-3.1 2.2-4.2 3.7-.9 1.2-1.5 2.6-1.9 4.1h0c-.5 2-.4 4.1.3 6.2.2.6.4 1.1.7 1.6.1.1.1.2.2.3.3.5.5 1 .9 1.4l.2.2c.3.4.6.8 1 1.1.1.1.1.1.1.2.4.4.8.7 1.2 1 .1.1.2.1.3.2.4.3.9.6 1.4.8h.1c.5.2.9.4 1.4.6.1 0 .2.1.3.1.5.2 1 .3 1.6.4h.3c.5.1 1 .1 1.5.1h.2c.5 0 1.1 0 1.6-.1.1 0 .2 0 .4-.1.2 0 .4-.1.7-.2.3-.1.6-.1 1-.2h.1c-.4-.2-.7-.5-1-.8-.5-.4-1-.8-1.3-1.4z"/><path class="st5" d="M-4210.9 3333.4c-2.2-6.8-8.4-11.3-15.5-11.3-1.7 0-3.4.3-5 .8-5.9 1.9-10.1 7-11.1 13-2.1 1.6-3.8 3.6-4.9 6-.7.1-1.5.3-2.2.5-4.5 1.5-7.8 5.2-8.7 9.8-4.1 3.3-5.8 8.8-4.2 13.9 1.7 5.3 6.5 8.8 12 8.9v2.7c0 1.8 1.4 3.2 3.2 3.2 1.8 0 3.2-1.4 3.2-3.2v-3.1c.9.2 1.9.3 2.8.3 1.3 0 2.6-.2 3.9-.6 3.2-1 5.7-3.2 7.2-5.8v9.2c0 1.8 1.4 3.2 3.2 3.2 1.2 0 2.3-.7 2.8-1.7v-18.1c-.4.1-.8.1-1.2.1-.5 0-1.1-.1-1.6-.2s-1.1-.3-1.5-.5l-.6-.3h-.1c-.3.1-.6.2-1 .3-.2 0-.4.1-.7.1-.1 0-.2 0-.4.1-.5.1-1.1.1-1.6.1h-.1-.1c-.5 0-1-.1-1.5-.1h-.3c-.5-.1-1-.2-1.6-.4-.1 0-.2-.1-.3-.1-.5-.2-1-.4-1.4-.6h-.1c-.5-.2-.9-.5-1.4-.8-.1-.1-.2-.1-.3-.2-.4-.3-.8-.7-1.2-1-.1-.1-.1-.1-.1-.2-.4-.4-.7-.7-1-1.1l-.2-.2c-.3-.4-.6-.9-.9-1.4-.1-.1-.1-.2-.2-.3-.3-.5-.5-1-.7-1.6-.7-2.1-.7-4.2-.3-6.2.3-1.5 1-2.9 1.9-4.1 1.1-1.5 2.5-2.8 4.2-3.7 0-5 3.1-9.7 8.2-11.3.5-.2 1.1-.3 1.6-.4.1 0 .2 0 .4-.1.5-.1 1.1-.1 1.6-.1h.1c.5 0 1 .1 1.6.1h.3c.5.1 1.1.2 1.6.4.1 0 .2.1.3.1.5.2 1 .4 1.4.6h.1c.5.2.9.5 1.4.8.1.1.2.1.3.2.4.3.9.7 1.2 1l.1.1c.4.4.7.7 1 1.2l.2.2c.3.4.6.9.9 1.4.1.1.1.2.2.3.3.5.5 1 .7 1.6.4 1.1.5 2.3.5 3.4l4.2-2.8c0-.8-.1-1.4-.3-2.1zm-22.4 31.7c-.9 2.3-2.8 4.2-5.3 5-.4.1-.8.2-1.1.3h-.3c-.3 0-.6.1-.9.1h-.2-.1c-.4 0-.7 0-1.1-.1h-.2c-.3 0-.6-.1-.9-.2-.1 0-.2-.1-.3-.1-.1 0-.2-.1-.3-.1v-1c0-1.8-1.4-3.2-3.2-3.2-1.8 0-3.2 1.4-3.2 3.2v1.6c-.3 0-.6 0-.9-.1h-.2c-.4-.1-.7-.2-1.1-.3-.1 0-.1-.1-.2-.1-.3-.1-.7-.3-1-.4h-.1c-.3-.2-.7-.4-1-.6-.1 0-.1-.1-.2-.1-.3-.2-.6-.5-.9-.7l-.1-.1c-.3-.3-.5-.5-.7-.8 0-.1-.1-.1-.1-.2-.2-.3-.4-.7-.6-1 0-.1-.1-.1-.1-.2-.2-.4-.3-.7-.5-1.2-1.3-4 .6-8.2 4.1-10 0-3.4 2-6.5 5.2-7.8-.3 2.3-.1 4.7.6 7 2.1 6.4 8 10.9 14.9 11.1z"/><path class="st4" d="M-4230.1 3360.4c.3-.1.6-.2 1-.3-.3.1-.7.2-1 .3z"/><path class="st6" d="M-4219.3 3360.6v18.7c0 1 .8 1.7 1.7 1.7h12.7c1 0 1.7-.8 1.7-1.7V3365h9.2v14.3c0 1 .8 1.7 1.7 1.7h12.7c1 0 1.7-.8 1.7-1.7v-20.5c0-.6-.3-1.1-.8-1.5l-19-12.6c-.3-.2-.6-.3-1-.3-.3 0-.7.1-1 .3l-4.7 3.1-4.6 3-9.8 6.5c-.5.3-.8.9-.8 1.5v1.8"/><path class="st7" d="M-4170.4 3351.9l-7.5-5V3336.5c0-1.4-1.1-2.5-2.5-2.5h-4.1c-1.4 0-2.5 1.1-2.5 2.5v4.5l-10.3-6.8c-.4-.3-.9-.4-1.4-.4-.5 0-.9.1-1.4.4l-7.5 5-3.7 2.5-15.6 10.3c-.5.3-.8.8-1 1.3-.2.7-.2 1.5.3 2.1.5.7 1.3 1.1 2 1.1.5 0 .9-.1 1.4-.4l.2-.1 14.8-9.9 3.9-2.6 6.5-4.3 25.4 16.9.6.3h.2c.2.1.4.1.6.1.2 0 .4 0 .5-.1h.1c.1 0 .2-.1.4-.1.1 0 .1-.1.2-.1.1-.1.2-.1.3-.2l.1-.1.4-.4c1-1.3.7-2.9-.4-3.6z"/><path class="st0" d="M-4197.2 3334.1c-.8-.5-1.9-.5-2.7 0 .4-.3.9-.4 1.4-.4.5 0 .9.1 1.3.4zM-4170.2 3355.8c-.1.1-.2.2-.3.2.1 0 .2-.1.3-.2zM-4170.7 3356.1c-.1.1-.2.1-.4.1.2 0 .3 0 .4-.1zM-4171.8 3356.4c-.2 0-.4 0-.6-.1.2 0 .4.1.6.1zM-4171.2 3356.3c-.2 0-.4.1-.5.1.1 0 .3 0 .5-.1zM-4172.5 3356.3l-.6-.3.6.3z"/><path class="st8" d="M-4179.8 3320.6c-.8-.7-.8-.8-.8-1.1 0-.3 0-.4.8-1.1.3-.3.7-.6 1-.9.9-1 .8-2.5-.2-3.4-1-.9-2.5-.8-3.4.2l-.6.6c-.9.8-2.4 2.1-2.4 4.6 0 2.5 1.5 3.8 2.4 4.6.8.7.8.8.8 1.1 0 .3 0 .4-.8 1.1-.3.3-.7.6-1 .9-.5.5-.6 1.3-.6 1.9.1.5.3 1.1.7 1.4.5.4 1 .6 1.6.6.7 0 1.3-.3 1.8-.8l.6-.6.6-.6c.8-.8 1.8-2.1 1.8-4.1.1-2.3-1.4-3.6-2.3-4.4z"/></g></g></svg>