<svg id="Layer_1" data-name="Layer 1" xmlns="http://www.w3.org/2000/svg" viewBox="0 0 140 140"><defs><style>.cls-1{fill:#fff;}.cls-2{fill:#009348;}.cls-3{fill:#3b5153;}.cls-4{fill:#009247;}</style></defs><title>icon-MyMoney-CapitalCashflow</title><g id="Capital_Cash_Flow" data-name="Capital &amp; Cash Flow"><circle class="cls-1" cx="70" cy="70" r="66.46"/><path class="cls-2" d="M74.92,145.72a70,70,0,1,1,70-70A70.08,70.08,0,0,1,74.92,145.72Zm0-132.91a62.91,62.91,0,1,0,62.91,62.91A63,63,0,0,0,74.92,12.8Z" transform="translate(-4.92 -5.72)"/><path class="cls-3" d="M82.56,112H77V71.45a2.5,2.5,0,1,0-5,0V112H66.84c-1,0-1.46.26-.82,1l7.86,8.16a1.13,1.13,0,0,0,1.63-.22l7.86-7.83C84,112.37,83.52,112,82.56,112Z" transform="translate(-4.92 -5.72)"/><path class="cls-3" d="M108,93.21l-4,4L76.31,69.46a2.6,2.6,0,0,0-3.68,3.68l27.71,27.71-3.48,3.48a1,1,0,0,0,.59,1.74l11.56.45a1.11,1.11,0,0,0,1.12-1.19l-.4-11.51A1,1,0,0,0,108,93.21Z" transform="translate(-4.92 -5.72)"/><path class="cls-3" d="M40.56,93.21l4,4L72.23,69.46a2.6,2.6,0,0,1,3.68,3.68L48.2,100.85l3.48,3.48a1,1,0,0,1-.59,1.74l-11.56.45a1.11,1.11,0,0,1-1.12-1.19l.4-11.51A1,1,0,0,1,40.56,93.21Z" transform="translate(-4.92 -5.72)"/><circle class="cls-4" cx="69.87" cy="54.51" r="27.05"/><path class="cls-1" d="M74.79,90a29.75,29.75,0,1,1,29.75-29.75A29.78,29.78,0,0,1,74.79,90Zm0-54.09A24.34,24.34,0,1,0,99.13,60.23,24.37,24.37,0,0,0,74.79,35.89Z" transform="translate(-4.92 -5.72)"/><path class="cls-1" d="M79,75v5H73V75.24a13.81,13.81,0,0,1-9-3.93l3.91-3.81C69.82,69.4,72.44,70,75.2,70c3.43,0,5.3-1.31,5.3-3.73a3.37,3.37,0,0,0-.9-2.54A4.36,4.36,0,0,0,77,62.71l-3.59-.51a10,10,0,0,1-5.76-2.5,8.2,8.2,0,0,1-2.43-5.93c0-4.72,1.81-8.19,7.81-9V41h6v3.75c1,.32,4.89,1.36,7,3.4L82,51.83a8.49,8.49,0,0,0-6.23-2.07c-3.09,0-4.66,1.73-4.66,3.81A2.9,2.9,0,0,0,72,55.73a5,5,0,0,0,2.74,1.18l3.5.51a9.77,9.77,0,0,1,5.68,2.33,8.83,8.83,0,0,1,2.8,6.39C86.73,71.07,84,74.16,79,75Z" transform="translate(-4.92 -5.72)"/></g></svg>