<svg id="Layer_1" xmlns="http://www.w3.org/2000/svg" viewBox="-4285 3279 140 140"><style>.st0{fill:#FFFFFF;} .st1{fill:#019547;} .st2{fill:#4B8F92;} .st3{fill:#3D5253;} .st4{fill:#059347;}</style><g id="Summary_1_"><g id="_x31__4_"><g id="XMLID_49_"><circle id="XMLID_53_" class="st0" cx="-4214" cy="3350" r="66.5"/><path id="XMLID_50_" class="st1" d="M-4214 3420c-38.6 0-70-31.4-70-70s31.4-70 70-70 70 31.4 70 70-31.4 70-70 70zm0-132.9c-34.7 0-62.9 28.2-62.9 62.9s28.2 62.9 62.9 62.9 62.9-28.2 62.9-62.9-28.2-62.9-62.9-62.9z"/></g></g><g id="XMLID_32_"><g id="XMLID_40_"><g id="XMLID_41_"><path id="XMLID_48_" class="st0" d="M-4183.3 3385.9v-47.3h-19.2c-1.2 0-2.3-.4-3.1-1.3-.9-.9-1.3-1.9-1.3-3.1V3315h-35.4v70.9h59z"/><path id="XMLID_44_" class="st2" d="M-4180.5 3326.7c.9.9 1.6 2 2.2 3.5.6 1.5.9 2.8.9 4.1v53.2c0 1.2-.4 2.3-1.3 3.1-.9.9-1.9 1.3-3.1 1.3h-62c-1.2 0-2.3-.4-3.1-1.3-.9-.9-1.3-1.9-1.3-3.1v-73.8c0-1.2.4-2.3 1.3-3.1.9-.9 1.9-1.3 3.1-1.3h41.4c1.2 0 2.6.3 4.1.9 1.5.6 2.6 1.4 3.5 2.2l14.3 14.3zm-20.5-11.3v17.4h17.4c-.3-.9-.6-1.5-1-1.9l-14.4-14.4c-.5-.5-1.1-.8-2-1.1zm17.7 70.5v-47.3h-19.2c-1.2 0-2.3-.4-3.1-1.3-.9-.9-1.3-1.9-1.3-3.1V3315h-35.4v70.9h59z"/><path id="XMLID_43_" class="st0" d="M-4201 3315.4v17.4h17.4c-.3-.9-.6-1.5-1-1.9l-14.4-14.4c-.5-.5-1.1-.8-2-1.1z"/></g></g><path id="XMLID_33_" class="st3" d="M-4225.3 3373.8c0 1.3-.4 2.3-1.3 3.2-.9.9-2 1.3-3.2 1.3s-2.3-.4-3.2-1.3c-.9-.9-1.3-2-1.3-3.2 0-1.3.4-2.3 1.3-3.2.9-.9 2-1.3 3.2-1.3s2.3.4 3.2 1.3c.9.9 1.3 2 1.3 3.2zm0-12c0 1.3-.4 2.3-1.3 3.2-.9.9-2 1.3-3.2 1.3s-2.3-.4-3.2-1.3c-.9-.9-1.3-2-1.3-3.2 0-1.3.4-2.3 1.3-3.2.9-.9 2-1.3 3.2-1.3s2.3.4 3.2 1.3c.9.8 1.3 1.9 1.3 3.2zm33.3 9.8v4.5c0 .2-.1.4-.2.5-.1.2-.3.2-.5.2h-28.7c-.2 0-.4-.1-.5-.2-.1-.1-.2-.3-.2-.5v-4.5c0-.2.1-.4.2-.5.1-.2.3-.2.5-.2h28.7c.2 0 .4.1.5.2.1.1.2.3.2.5zm-33.3-21.9c0 1.3-.4 2.3-1.3 3.2-.9.9-2 1.3-3.2 1.3s-2.3-.4-3.2-1.3c-.9-.9-1.3-2-1.3-3.2 0-1.3.4-2.3 1.3-3.2.9-.9 2-1.3 3.2-1.3s2.3.4 3.2 1.3c.9.8 1.3 1.9 1.3 3.2zm33.3 9.8v4.5c0 .2-.1.4-.2.5-.1.2-.3.2-.5.2h-28.7c-.2 0-.4-.1-.5-.2-.1-.1-.2-.3-.2-.5v-4.5c0-.2.1-.4.2-.5.1-.2.3-.2.5-.2h28.7c.2 0 .4.1.5.2.1.1.2.3.2.5zm0-12.1v4.5c0 .2-.1.4-.2.5-.1.2-.3.2-.5.2h-28.7c-.2 0-.4-.1-.5-.2-.1-.1-.2-.3-.2-.5v-4.5c0-.2.1-.4.2-.5.1-.2.3-.2.5-.2h28.7c.2 0 .4.1.5.2.1.1.2.3.2.5z"/></g><g id="XMLID_27_"><circle id="XMLID_31_" class="st4" cx="-4234.4" cy="3324.1" r="17.7"/><path id="XMLID_28_" class="st0" d="M-4234.4 3343.6c-10.7 0-19.5-8.7-19.5-19.5 0-10.7 8.7-19.5 19.5-19.5s19.5 8.7 19.5 19.5c0 10.7-8.7 19.5-19.5 19.5zm0-35.5c-8.8 0-15.9 7.2-15.9 15.9 0 8.8 7.2 15.9 15.9 15.9s15.9-7.2 15.9-15.9c.1-8.7-7.1-15.9-15.9-15.9z"/></g><path id="XMLID_26_" class="st0" d="M-4232.3 3333.8v3.2h-2.9v-3.1c-2.5-.1-4.4-.8-6.1-2.6l2.5-2.5c1.2 1.2 2.9 1.7 4.7 1.7 2.2 0 3.5-.9 3.5-2.4 0-.7-.2-1.3-.6-1.7-.4-.4-.8-.6-1.7-.7l-2.4-.3c-1.7-.2-2.9-.8-3.8-1.6-.9-.9-1.4-2.2-1.4-3.9 0-3.1 2-5.4 5.3-5.9v-2.8h2.9v2.8c2 .2 3.5.9 4.9 2.2l-2.4 2.4c-1.2-1.2-2.7-1.4-4-1.4-2 0-3 1.1-3 2.5 0 .5.2 1 .6 1.4.4.4 1 .7 1.8.8l2.3.3c1.8.2 2.9.7 3.7 1.5 1 1 1.5 2.4 1.5 4.2 0 3.3-2.2 5.3-5.4 5.9z"/></g></svg>