<svg id="Layer_1" xmlns="http://www.w3.org/2000/svg" viewBox="-4285 3279 140 140"><style>.st0{fill:#FFFFFF;} .st1{fill:#8DC44A;} .st2{fill:#E4F3F8;} .st3{fill:#ADDEE6;} .st4{fill:#FFC744;}</style><g id="Retirement_2_"><circle class="st0" cx="-4215" cy="3349" r="66.5"/><path class="st1" d="M-4215 3419c-38.6 0-70-31.4-70-70s31.4-70 70-70 70 31.4 70 70-31.4 70-70 70zm0-132.9c-34.7 0-62.9 28.2-62.9 62.9s28.2 62.9 62.9 62.9 62.9-28.2 62.9-62.9-28.2-62.9-62.9-62.9z"/><g><path class="st2" d="M-4238.1 3350.4c-2.8 2.2-5.4 4.9-7.1 7.5-1 1.4-2.6 2.3-4.3 2.3-.5 0-.9-.1-1.4-.2-2.1-.6-3.7-2.5-3.8-4.7-.2-3.7.2-7.1 1.3-10.1-3 2.2-5.1 5.5-5.6 9.4-.1.6-.4 1-.9 1.3-.5.3-1.1.3-1.6.1-1-.4-2-.6-3-.6-3.6 0-6.7 2.6-7.4 6h33.5c-.4-3.4-.3-7.3.3-11z"/><path class="st3" d="M-4238.1 3363.1l-.3-1.8h-33.5c.7-3.4 3.8-6 7.4-6 1.1 0 2.1.2 3 .6.5.2 1.1.2 1.6-.1.5-.3.8-.8.9-1.3.5-3.9 2.6-7.2 5.6-9.4.3-1 .7-1.9 1.2-2.8.4-.9.9-1.7 1.5-2.5-5.5 1.9-9.9 6.4-11.4 12.2-.8-.2-1.6-.3-2.4-.3-6.1 0-11.1 5-11.1 11.1v.2c0 1 .8 1.7 1.8 1.7h36.1c-.2-.4-.3-1-.4-1.6z"/><path class="st2" d="M-4195.6 3334.2c.1.4.2.9.2 1.3 0 1.7-.8 3.2-2.1 4.1 1.6.2 3.2.7 4.6 1.4 2.7-2.1 6.2-3.3 10.1-3.3 3.8 0 7.4 1.2 9.7 3.4.7.6 1.1 1.4 1.4 2.2h9.5c-.7-4.5-4.7-8-9.5-8-1.3 0-2.6.3-3.9.8-.5.2-1.1.2-1.6-.1-.5-.3-.8-.8-.9-1.3-1.2-8.6-8.6-15-17.2-15-4.3 0-8.3 1.6-11.4 4.3 5.9 1.5 10.3 5.4 11.1 10.2z"/><path class="st3" d="M-4171.7 3331.8c-1.1 0-2.2.1-3.2.4-2.2-9.3-10.6-16-20.3-16-6.2 0-11.8 2.7-15.6 7.1.7.1 1.5.1 2.2.3.7.1 1.4.3 2.1.5 3.1-2.7 7.1-4.3 11.4-4.3 8.7 0 16.1 6.5 17.2 15 .1.6.4 1 .9 1.3.5.3 1.1.3 1.6.1 1.2-.5 2.5-.8 3.9-.8 4.8 0 8.7 3.5 9.5 8h-9.5c.2.6.2 1.2.1 1.8 0 .3 0 .6-.1.8-.1.3-.2.6-.4.9h11.9c.9 0 1.7-.8 1.8-1.7v-.2c-.3-7.3-6.2-13.2-13.5-13.2z"/><path class="st4" d="M-4190.7 3370.1c-.4-.4-.7-.8-1.1-1.2-.2-.2-.4-.4-.5-.6-.3-.4-.6-.8-1-1.3-.3-.4-.7-.9-1-1.4-.8 4.3-2.5 9.1-5.6 13.8-.3.4-.3.9-.1 1.3.2.4.6.7 1.1.7h5.4c.5 0 .9-.3 1.1-.7.1-.3 1.9-4 2.8-9.4-.3-.4-.7-.8-1.1-1.2zM-4216 3364.8c-.2-.6-.3-1.1-.5-1.7-.4-1.5-.7-3-1-4.4-.2-1.3-.4-2.5-.5-3.7-.1-.8-.1-1.6-.2-2.4-.1-.1-.1-.2-.2-.4-.2.6-.5 1.2-.7 1.8-.2.4-.4.9-.6 1.3-.1.1-.1.2-.2.3-.3.5-.6 1.1-.9 1.6-.1.2-.3.4-.4.6v.1c-.6.9-1.2 1.7-1.8 2.5-.2.3-.4.6-.7.9-.3.4-.7.8-1 1.2v.5c.1.6.1 1.2.2 1.8 1.1 9 4.1 15.5 4.4 16 .3.6.9 1 1.6 1h7.8c1 0 1.8-.8 1.8-1.8 0-.5-.2-.9-.5-1.2-3.1-4.7-5.2-9.5-6.6-14z"/><g><path class="st1" d="M-4176.2 3352.3c-2.1-2.2-5-3.5-8.2-3.8.7-.6 1.8-1.1 3.1-1.6 1.5-.6 3.3-1 5.2-1.2.3 0 .6-.3.8-.5 0-.1.1-.1.1-.2.1-.4 0-.9-.3-1.2-.2-.1-.4-.3-.6-.4-1.7-1.3-4.1-2.1-6.8-2.1s-5.2.8-7.2 2.1c-.8.5-1.4 1.1-2 1.8-.1.2-.3.3-.4.5-.2-.2-.5-.3-.7-.5-1.1-.8-2.4-1.4-3.9-1.8-.9-.2-1.8-.4-2.8-.4-1 0-2 .1-2.9.4h-.3v.1c.2.5.4 1 .6 1.4 0 .1 0 .2.1.3.2.6.4 1.2.5 1.8.2.7.3 1.4.4 2.1 1.2.1 2.4.4 3.8 1.1-1.5.5-2.7 1.2-3.6 2-.1 4-1.2 8.2-3.3 11.8.5 2 1.4 3.9 2.7 5.4.2.3.5.4.9.4.2 0 .3 0 .4-.1.5-.2.7-.7.7-1.2-.7-5.2 2.9-11 5.7-13.1.1 1.2.3 2.3.6 3.3s.7 2 1.1 3c.6 1.2 1.4 2.4 2.2 3.4l1.2 1.5c.9 1 1.8 2 2.7 2.8.2.2.5.3.8.3h.3c.4-.1.7-.4.8-.8 1.1-3.9.5-10.7-1.3-14.7 3.5 1.3 8.3 5.2 11 9.1.2.3.6.5.9.5h.3c.5-.1.8-.5.8-1 .1-4.4-1-8-3.4-10.5z"/><path class="st1" d="M-4205.5 3346.9c-.1-.3-.1-.6-.2-.8-.1-.3-.3-.6-.4-1 0-.1-.1-.2-.1-.3-.2-.5-.5-1-.8-1.5v-.1c-.3-.5-.7-.9-1-1.4-1.6-1.9-3.9-3.6-7.2-4.8 2.3-1.2 4.1-1.7 6.2-1.7 2.1 0 4.5.5 8.2 1.7.2 0 .3.1.5.1.9 0 1.6-.7 1.6-1.6 0-.2 0-.4-.1-.5-.6-3.9-4.9-7.1-10.3-8-.7-.1-1.3-.2-2-.2h-2.1c-3.7.2-7 1.5-9.6 3.7-2.8-3.8-8-6.2-13.8-6.2-4.2 0-8.1 1.3-10.6 3.5-.5.4-.6 1.1-.5 1.7.2.6.7 1 1.3 1.1 5.1.6 9.7 2.3 12 4.1-4 .3-7.8 1.8-10.7 4.3-.4.4-.8.7-1.2 1.1-.2.2-.4.5-.6.8-.5.7-1 1.3-1.5 2.1-2 3.3-2.9 7.5-2.7 12.2 0 .7.5 1.3 1.2 1.5.1 0 .3.1.4.1.5 0 1-.3 1.3-.7 2.7-4.1 7.1-8.1 11.3-10.8.6-.4 1.1-.7 1.6-1 .6-.3 1.2-.6 1.7-.9.4-.2.8-.4 1.1-.5-.2.4-.3.8-.4 1.1-.2.6-.4 1.2-.6 1.9l-.6 2.1c-1 4.3-1.3 9.4-.7 13.4l.3 1.8c.1.3.1.6.2.9.1.3.3.6.6.8.2.1.3.2.5.3.1 0 .3.1.4.1.3 0 .6-.1.9-.3.1-.1.2-.1.2-.1l1.6-1.6c.5-.6 1.1-1.2 1.7-1.8 1.2-1.3 2.4-2.8 3.5-4.4.3-.4.6-.9.8-1.3.3-.5.6-1 .9-1.6.1-.2.2-.4.3-.7.2-.3.3-.6.5-1 .7-1.7 1.3-3.5 1.6-5.5.1-.6.2-1.2.2-1.8 0-.2 0-.4.1-.6.2.1.4.3.6.5v.1h.1c.5.4 1 .9 1.5 1.5.1.1.2.2.2.3 3.4 3.9 6.6 10.4 5.7 16.5-.1.7.3 1.4.9 1.7.2.1.4.1.6.1.5 0 .9-.2 1.2-.6.4-.4.7-.9 1-1.4.6-.9 1.1-1.8 1.6-2.7 1.1-2.2 1.7-4.6 1.9-7 .1-.8.1-1.6.1-2.3 0-.6-.1-1.2-.2-1.8.2-1 0-1.8-.2-2.6z"/></g></g></g></svg>