<svg xmlns="http://www.w3.org/2000/svg" width="30" height="28" viewBox="0 0 30 28"><path fill="#444" d="M14 14q0-1.656-1.172-2.828T10 10t-2.828 1.172T6 14t1.172 2.828T10 18t2.828-1.172T14 14zm12 8q0-.812-.594-1.406T24 20t-1.406.594T22 22q0 .828.586 1.414T24 24t1.414-.586T26 22zm0-16q0-.812-.594-1.406T24 4t-1.406.594T22 6q0 .828.586 1.414T24 8t1.414-.586T26 6zm-6 6.578v2.89q0 .157-.11.306t-.25.164l-2.42.375q-.173.547-.5 1.188.53.75 1.405 1.798.11.156.11.313 0 .188-.11.298-.36.47-1.29 1.398t-1.226.93q-.173 0-.33-.11l-1.796-1.405q-.578.298-1.203.485-.17 1.687-.358 2.422-.11.375-.47.375H8.548q-.172 0-.313-.117t-.156-.273l-.36-2.39q-.53-.157-1.17-.485l-1.845 1.39q-.11.11-.313.11-.172 0-.328-.125-2.25-2.078-2.25-2.5 0-.14.11-.297.155-.22.64-.828t.734-.953q-.36-.688-.547-1.28l-2.376-.376q-.156-.016-.266-.148t-.11-.305v-2.89q0-.157.11-.306t.25-.165l2.422-.375q.172-.547.5-1.188-.53-.75-1.406-1.797-.11-.172-.11-.313 0-.187.11-.313.344-.47 1.28-1.392t1.235-.922q.17 0 .327.11L6.514 7.28q.53-.28 1.203-.5.172-1.686.36-2.405Q8.184 4 8.544 4h2.906q.173 0 .314.117t.156.273l.36 2.39q.53.157 1.17.485l1.845-1.39q.125-.11.313-.11.172 0 .328.125 2.25 2.078 2.25 2.5 0 .14-.11.297-.186.25-.655.844t-.702.94q.36.75.53 1.28l2.376.36q.156.03.266.163t.11.305zm10 8.328v2.188q0 .25-2.328.484-.187.422-.47.812.798 1.766.798 2.156 0 .063-.063.11Q26.03 27.763 26 27.763q-.125 0-.72-.734t-.81-1.062q-.314.03-.47.03t-.47-.03q-.218.328-.81 1.062t-.72.734q-.03 0-1.937-1.11Q20 26.61 20 26.547q0-.39.797-2.156-.28-.39-.47-.812Q18 23.344 18 23.094v-2.188q0-.25 2.328-.484.203-.453.47-.812Q20 17.844 20 17.454q0-.063.063-.11.063-.03.547-.312t.922-.53.47-.25q.124 0 .718.726t.812 1.055q.313-.03.47-.03t.468.03q.797-1.11 1.437-1.75l.094-.03q.064 0 1.938 1.093.063.047.063.11 0 .39-.796 2.155.266.36.47.813 2.327.234 2.327.484zm0-16v2.187q0 .25-2.328.484-.187.422-.47.812.798 1.765.798 2.155 0 .063-.063.11Q26.03 11.762 26 11.762q-.125 0-.72-.734t-.81-1.063q-.314.03-.47.03t-.47-.03q-.218.328-.81 1.062t-.72.733q-.03 0-1.937-1.11-.063-.046-.063-.108 0-.39.797-2.156-.28-.392-.47-.813Q18 7.343 18 7.093V4.905q0-.25 2.328-.484.203-.452.47-.81Q20 1.842 20 1.452q0-.063.063-.11.063-.03.547-.312t.922-.53.47-.25q.124 0 .718.727t.812 1.055q.313-.03.47-.03t.468.03q.797-1.11 1.437-1.75L26 .252q.064 0 1.938 1.093.063.047.063.11 0 .39-.796 2.155.266.36.47.812Q30 4.656 30 4.906z"/></svg>