<svg xmlns="http://www.w3.org/2000/svg" width="26" height="28" viewBox="0 0 26 28"><path fill="#444" d="M2 26h4.5v-4.5H2V26zm5.5 0h5v-4.5h-5V26zM2 20.5h4.5v-5H2v5zm5.5 0h5v-5h-5v5zm-5.5-6h4.5V10H2v4.5zM13.5 26h5v-4.5h-5V26zm-6-11.5h5V10h-5v4.5zm12 11.5H24v-4.5h-4.5V26zm-6-5.5h5v-5h-5v5zM8 7V2.5q0-.203-.148-.352T7.5 2h-1q-.203 0-.352.148T6 2.5V7q0 .203.148.352T6.5 7.5h1q.203 0 .352-.148T8 7zm11.5 13.5H24v-5h-4.5v5zm-6-6h5V10h-5v4.5zm6 0H24V10h-4.5v4.5zM20 7V2.5q0-.203-.148-.352T19.5 2h-1q-.203 0-.352.148T18 2.5V7q0 .203.148.352t.352.148h1q.203 0 .352-.148T20 7zm6-1v20q0 .812-.594 1.406T24 28H2q-.812 0-1.406-.594T0 26V6q0-.812.594-1.406T2 4h2V2.5q0-1.03.734-1.766T6.5 0h1q1.03 0 1.766.734T10 2.5V4h6V2.5q0-1.03.734-1.766T18.5 0h1q1.03 0 1.766.734T22 2.5V4h2q.812 0 1.406.594T26 6z"/></svg>