<svg id="Layer_1" xmlns="http://www.w3.org/2000/svg" viewBox="-4285 3279 140 140"><style>.st0{fill:#FFFFFF;} .st1{fill:#D79F29;} .st2{display:none;} .st3{display:inline;fill:#FFC745;} .st4{display:inline;fill:#E79446;} .st5{display:inline;opacity:0.5;fill:#FFFFFF;} .st6{fill:#FFC745;} .st7{fill:#E79446;} .st8{fill-rule:evenodd;clip-rule:evenodd;fill:#E79446;} .st9{opacity:0.5;fill:#FFFFFF;}</style><g id="_x31__31_"><circle class="st0" cx="-4215" cy="3349" r="66.5"/><path class="st1" d="M-4215 3419c-38.6 0-70-31.4-70-70s31.4-70 70-70 70 31.4 70 70-31.4 70-70 70zm0-132.9c-34.7 0-62.9 28.2-62.9 62.9s28.2 62.9 62.9 62.9 62.9-28.2 62.9-62.9-28.2-62.9-62.9-62.9z"/><g class="st2"><path class="st3" d="M-4232.5 3352.5c-2.4-5.2-3.5-11.1-3.5-17.8h-12.3v4.6c0 2.5 1.5 5.1 4.5 7.8 3 2.6 6.8 4.4 11.3 5.4zm51.6-13.2v-4.6h-12.3c0 6.7-1.2 12.6-3.5 17.8 4.5-.9 8.3-2.7 11.3-5.4s4.5-5.3 4.5-7.8zm6.1-6.2v6.1c0 2.3-.7 4.6-2 6.9-1.3 2.3-3.1 4.4-5.4 6.2-2.3 1.9-5 3.4-8.3 4.7-3.3 1.3-6.7 2-10.3 2.1-1.3 1.7-2.9 3.2-4.6 4.6-1.2 1.1-2.1 2.2-2.5 3.5-.5 1.2-.7 2.7-.7 4.3 0 1.7.5 3.2 1.5 4.4 1 1.2 2.5 1.8 4.7 1.8 2.4 0 4.5.7 6.4 2.2 1.9 1.5 2.8 3.3 2.8 5.5v3.1c0 .4-.1.8-.4 1.1-.3.3-.7.4-1.1.4h-39.9c-.4 0-.8-.1-1.1-.4s-.4-.7-.4-1.1v-3.1c0-2.2.9-4 2.8-5.5s4-2.2 6.4-2.2c2.1 0 3.7-.6 4.7-1.8 1-1.2 1.5-2.6 1.5-4.4 0-1.6-.2-3.1-.7-4.3-.5-1.2-1.3-2.4-2.5-3.5-1.7-1.3-3.2-2.8-4.6-4.6-3.6-.2-7.1-.9-10.3-2.1-3.3-1.3-6-2.8-8.3-4.7s-4-3.9-5.4-6.2c-1.3-2.3-2-4.6-2-6.9v-6.1c0-1.3.4-2.4 1.3-3.3.9-.9 2-1.3 3.3-1.3h13.8v-4.6c0-2.1.8-3.9 2.3-5.4s3.3-2.3 5.4-2.3h27.6c2.1 0 3.9.8 5.4 2.3 1.5 1.5 2.3 3.3 2.3 5.4v4.6h13.8c1.3 0 2.4.4 3.3 1.3.8 1 1.3 2.1 1.2 3.3z"/><path class="st4" d="M-4195.2 3390h-38.9c-1.1 0-2-.9-2-2v-3h42.9v3c0 1.1-.9 2-2 2zM-4194.2 3326.2h-40.8c-1.4 0-2.5-1.1-2.5-2.5v-5c0-1.4 1.1-2.5 2.5-2.5h40.8c1.4 0 2.5 1.1 2.5 2.5v5c0 1.4-1.2 2.5-2.5 2.5z"/><path class="st5" d="M-4207 3316h7.9c.6 9 .4 15.4 0 20.9-.4 5.5-2.2 13.6-6.4 21.1-4.1 7-4.8 13.3-4.3 15.6.5 2.2 1.9 6 8.3 7.2 6.5 1.9 6.2 12.2 6.2 12.2h-9.1s2.2-7.2-1.7-10.8c-9.3-6.3-7.5-17-2.4-30.7 5.2-13.6 1.5-35.5 1.5-35.5z"/></g><g><path class="st6" d="M-4234.6 3352.4c-2.5-5.5-3.8-11.8-3.8-19h-13.1v4.9c0 2.7 1.6 5.4 4.8 8.3s7.3 4.8 12.1 5.8zm55.1-14.1v-4.9h-13.1c0 7.1-1.3 13.4-3.8 19 4.8-1 8.8-2.9 12-5.8 3.3-2.9 4.9-5.6 4.9-8.3zm6.5-6.5v6.5c0 2.4-.7 4.9-2.1 7.3-1.4 2.5-3.3 4.7-5.7 6.6-2.4 2-5.4 3.6-8.8 5-3.5 1.3-7.2 2.1-11 2.3-1.4 1.8-3 3.5-4.9 4.9-1.3 1.2-2.2 2.4-2.7 3.7-.5 1.3-.7 2.8-.7 4.6 0 1.8.5 3.4 1.6 4.7 1 1.3 2.7 1.9 5 1.9 2.6 0 4.8.8 6.8 2.3 2 1.6 3 3.5 3 5.9v3.3c0 .5-.2.9-.5 1.2-.3.3-.7.5-1.2.5h-42.5c-.5 0-.9-.2-1.2-.5-.3-.3-.5-.7-.5-1.2v-3.3c0-2.4 1-4.3 3-5.9s4.3-2.3 6.8-2.3c2.3 0 3.9-.6 5-1.9 1-1.3 1.6-2.8 1.6-4.7 0-1.7-.2-3.3-.7-4.6-.5-1.3-1.4-2.5-2.7-3.7-1.8-1.4-3.4-3-4.9-4.9-3.9-.2-7.5-.9-11-2.3-3.5-1.3-6.4-3-8.8-5-2.4-2-4.3-4.2-5.7-6.6-1.4-2.5-2.1-4.9-2.1-7.3v-6.5c0-1.4.5-2.5 1.4-3.5 1-1 2.1-1.4 3.5-1.4h14.7v-4.9c0-2.2.8-4.2 2.4-5.8 1.6-1.6 3.5-2.4 5.8-2.4h29.4c2.2 0 4.2.8 5.8 2.4 1.6 1.6 2.4 3.5 2.4 5.8v4.9h14.7c1.4 0 2.5.5 3.5 1.4s1.3 2.1 1.3 3.5z"/><path class="st7" d="M-4194.6 3392.4h-41.8c-1.1 0-2-.9-2-2v-3.3h45.8v3.3c0 1.1-.9 2-2 2zM-4194.1 3324.4h-42.8c-1.6 0-3-1.3-3-3v-4.6c0-1.6 1.3-3 3-3h42.8c1.6 0 3 1.3 3 3v4.6c0 1.6-1.4 3-3 3z"/><polygon class="st8" points="-4215.8,3330 -4211.8,3338.1 -4202.9,3339.4 -4209.3,3345.6 -4207.8,3354.5 -4215.8,3350.3 -4223.7,3354.5 -4222.2,3345.6 -4228.7,3339.4 -4219.7,3338.1"/><path class="st9" d="M-4207.4 3314h8.4c.6 11 .5 16.2 0 22-.5 5.9-2.3 14.4-6.9 22.4-4.4 7.5-5.1 14.2-4.6 16.5.6 2.3 2 5.1 8.9 6.3 6.9 2 6.7 11.7 6.7 11.7h-9.7s2.4-6.4-1.8-10.2c-9.9-6.7-8-17.2-2.5-31.8 5.5-14.5 1.5-36.9 1.5-36.9z"/></g></g></svg>