<svg id="Layer_1" xmlns="http://www.w3.org/2000/svg" xmlns:xlink="http://www.w3.org/1999/xlink" viewBox="-4285 3279 140 140"><style>.st0{fill:#FFFFFF;} .st1{fill:#8DC44A;} .st2{fill:#64BAA8;} .st3{fill:#498D91;} .st4{clip-path:url(#SVGID_2_);fill:#64BAA8;} .st5{clip-path:url(#SVGID_2_);fill:#63B9A8;} .st6{clip-path:url(#SVGID_2_);fill:#64B9A8;} .st7{clip-path:url(#SVGID_2_);fill:#63B8A7;} .st8{clip-path:url(#SVGID_2_);fill:#63B7A7;} .st9{clip-path:url(#SVGID_2_);fill:#62B7A7;} .st10{clip-path:url(#SVGID_2_);fill:#62B6A7;} .st11{clip-path:url(#SVGID_2_);fill:#61B5A6;} .st12{clip-path:url(#SVGID_2_);fill:#61B4A5;} .st13{clip-path:url(#SVGID_2_);fill:#60B3A5;} .st14{clip-path:url(#SVGID_2_);fill:#5FB2A4;} .st15{clip-path:url(#SVGID_2_);fill:#5FB1A4;} .st16{clip-path:url(#SVGID_2_);fill:#5EB0A4;} .st17{clip-path:url(#SVGID_2_);fill:#5EB0A3;} .st18{clip-path:url(#SVGID_2_);fill:#5EAFA2;} .st19{clip-path:url(#SVGID_2_);fill:#5DAEA1;} .st20{clip-path:url(#SVGID_2_);fill:#5CADA1;} .st21{clip-path:url(#SVGID_2_);fill:#5DACA1;} .st22{clip-path:url(#SVGID_2_);fill:#5CABA1;} .st23{clip-path:url(#SVGID_2_);fill:#5CABA0;} .st24{clip-path:url(#SVGID_2_);fill:#5BAAA0;} .st25{clip-path:url(#SVGID_2_);fill:#5AA99F;} .st26{clip-path:url(#SVGID_2_);fill:#59A79E;} .st27{clip-path:url(#SVGID_2_);fill:#58A69E;} .st28{clip-path:url(#SVGID_2_);fill:#57A59D;} .st29{clip-path:url(#SVGID_2_);fill:#58A49D;} .st30{clip-path:url(#SVGID_2_);fill:#57A49D;} .st31{clip-path:url(#SVGID_2_);fill:#57A39C;} .st32{clip-path:url(#SVGID_2_);fill:#56A29C;} .st33{clip-path:url(#SVGID_2_);fill:#56A19B;} .st34{clip-path:url(#SVGID_2_);fill:#55A19B;} .st35{clip-path:url(#SVGID_2_);fill:#55A09B;} .st36{clip-path:url(#SVGID_2_);fill:#549F9B;} .st37{clip-path:url(#SVGID_2_);fill:#539F9A;} .st38{clip-path:url(#SVGID_2_);fill:#549E99;} .st39{clip-path:url(#SVGID_2_);fill:#529D99;} .st40{clip-path:url(#SVGID_2_);fill:#539C98;} .st41{clip-path:url(#SVGID_2_);fill:#529C98;} .st42{clip-path:url(#SVGID_2_);fill:#529B98;} .st43{clip-path:url(#SVGID_2_);fill:#519A98;} .st44{clip-path:url(#SVGID_2_);fill:#519A97;} .st45{clip-path:url(#SVGID_2_);fill:#509997;} .st46{clip-path:url(#SVGID_2_);fill:#509896;} .st47{clip-path:url(#SVGID_2_);fill:#4F9796;} .st48{clip-path:url(#SVGID_2_);fill:#509796;} .st49{clip-path:url(#SVGID_2_);fill:#4F9695;} .st50{clip-path:url(#SVGID_2_);fill:#4E9595;} .st51{clip-path:url(#SVGID_2_);fill:#4D9495;} .st52{clip-path:url(#SVGID_2_);fill:#4D9494;} .st53{clip-path:url(#SVGID_2_);fill:#4C9394;} .st54{clip-path:url(#SVGID_2_);fill:#4C9293;} .st55{clip-path:url(#SVGID_2_);fill:#4B9193;} .st56{clip-path:url(#SVGID_2_);fill:#4C9193;} .st57{clip-path:url(#SVGID_2_);fill:#4B9092;} .st58{clip-path:url(#SVGID_2_);fill:#4A8F92;} .st59{clip-path:url(#SVGID_2_);fill:#498D91;} .st60{fill:#AFAE9E;}</style><g id="Travel_2_"><circle class="st0" cx="-4215" cy="3349" r="66.5"/><path class="st1" d="M-4215 3419c-38.6 0-70-31.4-70-70s31.4-70 70-70 70 31.4 70 70-31.4 70-70 70zm0-132.9c-34.7 0-62.9 28.2-62.9 62.9s28.2 62.9 62.9 62.9 62.9-28.2 62.9-62.9-28.2-62.9-62.9-62.9z"/><g><path class="st2" d="M-4203.1 3336.4c-8-8-27.7-10.6-27.7-10.6l-5.6 5.6s18.9 4.8 26.2 12.1c7.3 7.3 12.1 26.2 12.1 26.2l5.6-5.6c0 .1-2.7-19.7-10.6-27.7z"/><path class="st3" d="M-4199 3373.2l-.8-3c0-.2-4.8-18.5-11.6-25.4-6.9-6.9-25.2-11.6-25.4-11.6l-3-.8 8.4-8.4.9.1c.8.1 20.4 2.8 28.7 11.1s11 27.9 11.1 28.7l.1.9-8.4 8.4zm-34-42.7c5.7 1.7 18.2 5.9 24.1 11.7 5.9 5.9 10.1 18.4 11.7 24.1l2.8-2.8c-.6-3.8-3.4-19.3-10-25.8-6.6-6.6-22-9.4-25.8-10l-2.8 2.8z"/><path class="st3" d="M-4182.4 3315.7c-.6-.6-1.8-1.4-3.6-1.4-7.4 0-22.5 14.8-25.4 17.7-5.2 5.2-9.8 10.6-13 15.1l-3.4-.9-6.5 6.5 5.5 2.9c-.5 2-.3 3.9 1.2 5.4.6.6 1.8 1.4 3.6 1.4.6 0 1.2-.1 1.8-.3l2.9 5.6 6.5-6.5-.9-3.5c6.5-4.6 13.2-11.1 15.1-13 5.5-5.5 10.4-11.2 13.6-15.9 2.9-4.4 5.9-9.9 2.6-13.1zm-41.7 43.2c-.5 0-.8-.1-1.1-.4-.3-.3-.4-.7-.4-1.2l1 .5.5 1.1zm22.9-16.7c-4.8 4.8-9.5 8.9-13.5 11.8l-.4-1.5-9.2 5.2 5.2-9.2-1.6-.4c2.9-4 7-8.7 11.8-13.5 9.8-9.8 19.4-16.7 22.9-16.7.5 0 .8.1 1.1.4 2.1 2-5.2 12.8-16.3 23.9z"/><defs><ellipse id="SVGID_1_" transform="rotate(45 -4205.066 3338.43)" cx="-4205.1" cy="3338.4" rx="5.5" ry="28.5"/></defs><clipPath id="SVGID_2_"><use xlink:href="#SVGID_1_" overflow="visible"/></clipPath><polygon class="st4" points="-4182.8,3316.1 -4182.8,3316.1 -4227.4,3360.7 -4227.4,3316.1"/><polygon class="st4" points="-4182.8,3316.1 -4227.4,3360.7 -4227.4,3360.7 -4182.8,3316.1"/><polygon class="st5" points="-4182.8,3316.1 -4227.4,3360.7 -4227.4,3360.7 -4182.8,3316.1"/><polygon class="st7" points="-4182.8,3316.1 -4227.3,3360.7 -4227.4,3360.7 -4182.8,3316.1"/><polygon class="st9" points="-4182.8,3316.1 -4227.3,3360.7 -4227.3,3360.7 -4182.8,3316.1"/><polygon class="st11" points="-4182.8,3316.1 -4227.3,3360.7 -4227.3,3360.7 -4182.8,3316.1"/><polygon class="st13" points="-4182.8,3316.1 -4227.3,3360.7 -4227.3,3360.7 -4182.8,3316.1"/><polygon class="st15" points="-4182.8,3316.1 -4227.3,3360.7 -4227.3,3360.7 -4182.8,3316.1"/><polygon class="st16" points="-4182.8,3316.1 -4227.3,3360.7 -4227.3,3360.7 -4182.8,3316.1"/><polygon class="st18" points="-4182.8,3316.1 -4227.3,3360.7 -4227.3,3360.7 -4182.8,3316.1"/><polygon class="st20" points="-4182.8,3316.1 -4227.3,3360.7 -4227.3,3360.7 -4182.8,3316.1"/><polygon class="st22" points="-4182.8,3316.1 -4227.3,3360.7 -4227.3,3360.7 -4182.8,3316.1"/><polygon class="st24" points="-4182.8,3316.1 -4227.3,3360.7 -4227.3,3360.7 -4182.8,3316.1"/><polygon class="st25" points="-4182.8,3316.1 -4227.3,3360.7 -4227.3,3360.7 -4182.8,3316.1"/><polygon class="st26" points="-4182.8,3316.1 -4227.3,3360.7 -4227.3,3360.7 -4182.8,3316.1"/><polygon class="st27" points="-4182.8,3316.1 -4227.3,3360.7 -4227.3,3360.7 -4182.8,3316.1"/><polygon class="st28" points="-4182.8,3316.1 -4227.3,3360.7 -4227.3,3360.7 -4182.8,3316.1"/><polygon class="st30" points="-4182.8,3316.1 -4227.3,3360.7 -4227.3,3360.7 -4182.8,3316.1"/><polygon class="st32" points="-4182.8,3316.1 -4227.3,3360.7 -4227.3,3360.7 -4182.8,3316.1"/><polygon class="st34" points="-4182.8,3316.1 -4227.3,3360.7 -4227.3,3360.7 -4182.8,3316.1"/><polygon class="st35" points="-4182.8,3316.1 -4227.3,3360.7 -4227.3,3360.7 -4182.8,3316.1"/><polygon class="st37" points="-4182.8,3316.2 -4227.3,3360.7 -4227.3,3360.7 -4182.8,3316.1"/><polygon class="st39" points="-4182.8,3316.2 -4227.3,3360.7 -4227.3,3360.7 -4182.8,3316.2"/><polygon class="st40" points="-4182.8,3316.2 -4227.3,3360.7 -4227.3,3360.7 -4182.8,3316.2"/><polygon class="st43" points="-4182.8,3316.2 -4227.2,3360.7 -4227.3,3360.7 -4182.8,3316.2"/><polygon class="st45" points="-4182.8,3316.2 -4227.2,3360.7 -4227.2,3360.7 -4182.8,3316.2"/><polygon class="st46" points="-4182.8,3316.2 -4227.2,3360.7 -4227.2,3360.7 -4182.8,3316.2"/><polygon class="st48" points="-4182.8,3316.2 -4227.2,3360.7 -4227.2,3360.7 -4182.8,3316.2"/><polygon class="st50" points="-4182.8,3316.2 -4227.2,3360.7 -4227.2,3360.7 -4182.8,3316.2"/><polygon class="st50" points="-4182.8,3316.2 -4227.2,3360.7 -4227.2,3360.7 -4182.8,3316.2"/><polygon class="st52" points="-4182.8,3316.2 -4227.2,3360.7 -4227.2,3360.7 -4182.8,3316.2"/><polygon class="st55" points="-4182.8,3316.2 -4227.2,3360.7 -4227.2,3360.7 -4182.8,3316.2"/><polygon class="st56" points="-4182.8,3316.2 -4227.2,3360.7 -4227.2,3360.7 -4182.8,3316.2"/><polygon class="st57" points="-4182.8,3316.2 -4227.2,3360.7 -4227.2,3360.7 -4182.8,3316.2"/><polygon class="st59" points="-4182.8,3316.2 -4227.2,3360.7 -4227.2,3360.7 -4182.8,3316.2"/><polygon class="st59" points="-4227.2,3360.7 -4182.8,3316.2 -4182.8,3360.7"/><g><path class="st60" d="M-4235.1 3373c-2.1 2.1-2.1 5.4 0 7.5 1 1 2.4 1.5 3.7 1.5s2.7-.5 3.7-1.5c.3-.3.3-.9 0-1.3-.3-.3-.9-.3-1.3 0-1.3 1.3-3.6 1.3-5 0-.7-.7-1-1.5-1-2.5s.4-1.8 1-2.5l8.4-8.4c-.7-.1-1.4-.3-2-.5l-7.5 7.7zM-4241.3 3366.8c-1.3 1.3-3.6 1.3-5 0-1.4-1.4-1.4-3.6 0-5 .3-.3.3-.9 0-1.3s-.9-.3-1.3 0c-2.1 2.1-2.1 5.4 0 7.5 1 1 2.3 1.5 3.7 1.5 1.4 0 2.7-.6 3.7-1.5l7.8-7.8c-.2-.6-.3-1.3-.4-2.1l-8.5 8.7zM-4231.1 3362.5l-15.8 15.8c-.3.3-.3.9 0 1.3.2.2.4.3.6.3s.5-.1.6-.3l15.8-15.8-.3-.3c-.3-.3-.6-.6-.9-1z"/></g></g></g></svg>