<svg id="Layer_1" xmlns="http://www.w3.org/2000/svg" viewBox="-4285 3279 140 140"><style>.st0{fill:#FFFFFF;} .st1{fill:#E79446;} .st2{fill:#4A8E91;} .st3{fill:#3C5152;}</style><g id="_x31__25_"><circle class="st0" cx="-4215" cy="3349" r="66.5"/><path class="st1" d="M-4215 3419c-38.6 0-70-31.4-70-70s31.4-70 70-70 70 31.4 70 70-31.4 70-70 70zm0-132.9c-34.7 0-62.9 28.2-62.9 62.9s28.2 62.9 62.9 62.9 62.9-28.2 62.9-62.9-28.2-62.9-62.9-62.9z"/><g><path class="st2" d="M-4209.4 3386c-.8 0-1.6-.6-1.6-1.4v-3.3c-4-.4-6.5-1.8-9-4.2-.3-.3-.4-.7-.4-1.1 0-.4.2-.8.5-1.1l3.9-3.8c.3-.3.7-.4 1.1-.4s.8.1 1.1.4c1.4 1.4 3.5 2.1 6.3 2.1 3.9 0 3.9-1.6 3.9-2.2 0-.5-.1-1.1-.5-1.4-.3-.3-.6-.5-1.9-.7l-3.7-.5c-2.9-.4-5.1-1.4-6.7-2.9-1.8-1.7-2.7-4.1-2.7-7 0-5.1 3.2-8.9 8.2-10.1v-3c0-.8.8-1.6 1.6-1.6h4.5c.8 0 1.9.8 1.9 1.6v2.9c2 .5 5 1.7 7 3.6.3.3.4.7.4 1.1s-.2.8-.5 1.1l-3.8 3.6c-.3.3-.7.4-1.1.4-.4 0-.7-.1-1-.4-1.5-1.4-3.4-1.6-5.2-1.6-2 0-3.2.8-3.2 2.3 0 .3.1.7.4 1 .4.4 1.2.7 2 .8l3.6.5c3 .4 5 1.2 6.6 2.7 1.9 1.8 3 4.2 3 7.4 0 4.9-3.2 8.7-8.2 10v3.7c0 .8-1 1.4-1.9 1.4h-4.6z"/><path class="st0" d="M-4205 3346v3.8c3 .3 5.6 1.3 7.7 3.4l-3.7 3.6c-1.9-1.8-4.2-2.1-6.2-2.1-3.2 0-4.7 1.7-4.7 3.8 0 .8.3 1.6.9 2.1.6.5 1.6 1 2.8 1.2l3.6.5c2.8.4 4.5 1.1 5.8 2.3 1.6 1.5 2.3 3.7 2.3 6.3 0 4.9-3.5 7.9-8.5 8.8v5.3h-4v-5.1c-4-.2-7.1-1.3-9.7-3.9l3.8-3.8c1.9 1.9 4.5 2.5 7.3 2.5 3.5 0 5.4-1.3 5.4-3.7 0-1-.3-1.9-1-2.5-.6-.5-1.3-.8-2.7-1l-3.7-.5c-2.6-.4-4.5-1.2-5.9-2.5-1.5-1.4-2-3.3-2-5.9 0-4.7 2.5-8.1 8.5-8.9v-3.8h4m.1-2.9h-4.5c-1.7 0-2.6.9-2.6 2.6v1.9c-5 1.7-8.5 5.9-8.5 11.2 0 3.3.9 6 3 8 1.8 1.7 4.3 2.8 7.5 3.3l3.7.5c.7.1.9.2 1 .2v.5s-.5.5-2.4.5c-2.4 0-4.1-.5-5.3-1.7-.6-.6-1.3-.9-2.1-.9s-1.5.3-2.1.9l-3.9 3.8c-.6.6-.9 1.3-.9 2.1s.5 1.6 1.1 2.1c2.4 2.4 4.8 3.8 8.8 4.4v2c0 1.7 1 3.4 2.6 3.4h4.5c1.7 0 2.9-1.8 2.9-3.4v-2.5c5-1.7 8.5-5.8 8.5-11.1 0-3.6-1.1-6.5-3.3-8.5-1.8-1.7-4.2-2.6-7.4-3.1l-3.6-.5c-.6-.1-1-.2-1.1-.4.1-.7 1.1-.7 1.7-.7 1.7 0 3.1.2 4.2 1.2.6.5 1.3.8 2.1.8s1.5-.3 2.1-.8l3.8-3.6c.6-.6.9-1.4.9-2.2 0-.8-.4-1.6-1-2.2-2-1.8-3.8-3.1-6.8-3.7v-1.7c0-1.5-1.2-2.4-2.9-2.4z"/><path class="st3" d="M-4233.3 3326c-6 6-9 13-9 22h-12.8l16.4 16.4 16.4-16.4h-12.2c0-7 2.3-12 6.8-16.5 9-9 23.7-9.1 32.7-.1 4.9 4.9 7.1 11.4 6.7 17.8l7.7.5c.5-8.5-2.5-17.2-9-23.7-12.1-12.1-31.6-12-43.7 0z"/></g></g></svg>