<?xml version="1.0" encoding="utf-8"?>
<!-- Generator: Adobe Illustrator 19.0.0, SVG Export Plug-In . SVG Version: 6.00 Build 0)  -->
<svg version="1.1" id="Layer_1" xmlns="http://www.w3.org/2000/svg" xmlns:xlink="http://www.w3.org/1999/xlink" x="0px" y="0px"
	 viewBox="0 0 400 114.7" style="enable-background:new 0 0 400 114.7;" xml:space="preserve">
<style type="text/css">
	.st0{clip-path:url(#SVGID_2_);fill:#8EC54A;}
	.st1{clip-path:url(#SVGID_2_);fill:#FFFFFF;}
</style>
<g>
	<defs>
		<rect id="SVGID_1_" y="0" width="400" height="114.7"/>
	</defs>
	<clipPath id="SVGID_2_">
		<use xlink:href="#SVGID_1_"  style="overflow:visible;"/>
	</clipPath>
	<path class="st0" d="M56.4,68.1c-6.4,0-11.6-5.2-11.6-11.6c0-6.4,5.2-11.6,11.6-11.6c6.4,0,11.6,5.2,11.6,11.6
		C68,62.8,62.8,68,56.4,68.1"/>
	<path class="st1" d="M114.8,103.3l-13.2-13.2c7.3-9.7,11.3-21.4,11.3-33.8C112.9,25.3,87.5,0,56.4,0C41.4,0,27.2,5.9,16.5,16.5
		C5.9,27.2,0,41.4,0,56.4c0,31.1,25.3,56.4,56.4,56.4c12.3,0,24-4,33.8-11.3l13.2,13.2L114.8,103.3z M56.4,96.7
		c-22.2,0-40.3-18.1-40.3-40.3c0-10.8,4.2-20.9,11.8-28.5c7.6-7.6,17.7-11.8,28.5-11.8c22.2,0,40.3,18.1,40.3,40.3
		c0,8-2.3,15.7-6.7,22.2L78.9,67.5L67.5,78.9l11.1,11.1C72.1,94.4,64.5,96.7,56.4,96.7"/>
	<path class="st1" d="M382.6,30.2c-4,0-6.8,1-8.5,3.1c-1.6,2.1-2.5,5.3-2.5,9.6v7.2h-6.9v5.3h6.9l-0.1,30.7c0,1.1-0.1,2.1-0.2,3
		c-0.1,0.9-0.4,1.6-0.7,2.3c-0.4,0.6-0.9,1.1-1.6,1.5c-0.7,0.3-1.6,0.5-2.7,0.5c-0.6,0-1.2,0-1.8-0.1c-0.5-0.1-1.1-0.2-1.7-0.5
		l-0.7,5.4c0.9,0.2,1.7,0.4,2.4,0.4c0.7,0,1.5,0.1,2.1,0.1c4,0,6.8-1,8.5-3.1c1.6-2.1,2.5-5.3,2.5-9.6V55.3h7.3v-5.3h-7.2v-7.4
		c0-1.1,0.1-2.1,0.2-3c0.1-0.9,0.4-1.6,0.7-2.3c0.4-0.6,0.9-1.1,1.6-1.5c0.7-0.3,1.6-0.5,2.7-0.5c0.6,0,1.2,0,1.8,0.1
		c0.5,0.1,1.1,0.2,1.7,0.5l0.7-5.4c-0.9-0.2-1.7-0.4-2.4-0.4C384,30.2,383.3,30.2,382.6,30.2"/>
	<rect x="148" y="50.1" class="st1" width="6.1" height="32.1"/>
	<path class="st1" d="M151,34.1c-1.2,0-2.3,0.4-3.1,1.3c-0.9,0.9-1.3,1.9-1.3,3.1c0,1.2,0.4,2.3,1.3,3.1c0.9,0.9,1.9,1.3,3.1,1.3
		c1.2,0,2.3-0.4,3.1-1.3c0.9-0.9,1.3-1.9,1.3-3.1c0-1.2-0.4-2.3-1.3-3.1C153.3,34.5,152.3,34.1,151,34.1"/>
	<path class="st1" d="M243,66.6c0,1.8-0.2,3.5-0.7,4.8c-0.5,1.3-1.1,2.5-1.9,3.3c-0.8,0.9-1.8,1.5-2.8,1.9c-1.1,0.4-2.3,0.6-3.5,0.6
		c-0.9,0-1.9-0.1-2.7-0.4c-0.9-0.3-1.7-0.8-2.3-1.4c-0.7-0.7-1.2-1.5-1.6-2.6c-0.4-1.1-0.6-2.3-0.6-3.8V50.1h-6.1v20.6
		c0,2.1,0.3,4,0.9,5.5c0.6,1.6,1.5,2.8,2.5,3.8c1.1,1,2.3,1.7,3.7,2.2c1.4,0.5,2.9,0.7,4.5,0.7c2.5,0,4.7-0.5,6.6-1.6
		c1.9-1.1,3.2-2.4,4-4.2h0.1v4.9h6.1V50.1H243V66.6z"/>
	<path class="st1" d="M283.1,76.3V59.9c0-1.4-0.3-2.7-0.8-4c-0.5-1.3-1.3-2.4-2.4-3.4c-1.1-1-2.5-1.8-4.2-2.4
		c-1.7-0.6-3.7-0.9-6-0.9c-2.3,0-4.5,0.4-6.8,1.2c-2.3,0.8-4.2,2-6,3.5l3.7,3.8c0.5-0.4,1.1-0.8,1.7-1.3c0.6-0.5,1.2-0.8,2-1.2
		c0.7-0.3,1.5-0.6,2.4-0.8c0.9-0.2,1.9-0.3,3.1-0.3c1.3,0,2.4,0.2,3.4,0.6c0.9,0.4,1.7,0.9,2.4,1.6c0.6,0.7,1.1,1.4,1.4,2.2
		c0.3,0.8,0.5,1.6,0.5,2.4v1.4H273c-2.4,0-4.7,0.2-6.9,0.6c-2.1,0.4-4,1-5.6,1.9c-1.6,0.9-2.9,2-3.8,3.4c-0.9,1.4-1.4,3.1-1.4,5.2
		c0,1.6,0.3,3,0.9,4.2c0.6,1.2,1.4,2.2,2.4,3c1,0.8,2.2,1.4,3.6,1.8c1.4,0.4,2.8,0.6,4.3,0.6c2.4,0,4.6-0.4,6.4-1.3
		c1.9-0.9,3.5-2.3,4.8-4.4h0.1c0,1.6,0.1,3.2,0.2,4.9h5.4c-0.1-0.9-0.2-1.8-0.2-2.7C283.2,78.5,283.1,77.4,283.1,76.3 M277.5,68.7
		c0,1.1-0.2,2.2-0.5,3.3c-0.3,1.1-0.8,2.1-1.6,3c-0.7,0.9-1.7,1.6-2.8,2.2c-1.2,0.6-2.6,0.8-4.3,0.8c-2.1,0-3.8-0.4-5-1.2
		c-1.2-0.8-1.9-2.1-1.9-4c0-1.3,0.4-2.3,1.2-3.1c0.8-0.8,1.8-1.4,3-1.9c1.2-0.5,2.6-0.8,4.1-0.9c1.5-0.2,3-0.2,4.4-0.2h3.2V68.7z"/>
	<path class="st1" d="M315.6,52.2c-1.1-1-2.3-1.7-3.7-2.2c-1.4-0.5-2.9-0.7-4.4-0.7c-2.5,0-4.7,0.5-6.6,1.6c-1.9,1.1-3.2,2.4-4,4.2
		h-0.1v-4.9h-6.1v32.1h6.1V65.6c0-1.8,0.2-3.5,0.7-4.8c0.4-1.4,1.1-2.5,1.9-3.3c0.8-0.9,1.8-1.5,2.8-1.9c1.1-0.4,2.2-0.6,3.5-0.6
		c0.9,0,1.9,0.1,2.7,0.4c0.9,0.3,1.7,0.8,2.3,1.4c0.7,0.7,1.2,1.5,1.6,2.6c0.4,1.1,0.6,2.3,0.6,3.8v18.9h6.1V61.5
		c0-2.1-0.3-4-0.9-5.5C317.5,54.4,316.6,53.2,315.6,52.2"/>
	<path class="st1" d="M339.9,77.3c-1.2,0-2.1-0.2-2.7-0.6c-0.6-0.4-1.1-1-1.4-1.7c-0.3-0.7-0.5-1.5-0.5-2.4c0-0.9-0.1-1.8-0.1-2.7
		V55.3h8.7v-5.3h-8.7v-9h-6.1v9h-7v5.3h7v16.7c0,1.3,0.1,2.6,0.2,3.9c0.1,1.3,0.5,2.4,1.1,3.5c0.6,1,1.6,1.9,2.8,2.5
		c1.3,0.7,3.1,1,5.4,1c0.6,0,1.5-0.1,2.7-0.2c1.1-0.2,2.1-0.4,2.8-0.8v-5.6c-0.6,0.4-1.3,0.6-2.1,0.7
		C341.4,77.2,340.7,77.3,339.9,77.3"/>
	<path class="st1" d="M355.4,34.1c-1.2,0-2.3,0.4-3.1,1.3c-0.9,0.9-1.3,1.9-1.3,3.1c0,1.2,0.4,2.3,1.3,3.1c0.9,0.9,1.9,1.3,3.1,1.3
		c1.2,0,2.3-0.4,3.1-1.3c0.9-0.9,1.3-1.9,1.3-3.1c0-1.2-0.4-2.3-1.3-3.1C357.7,34.5,356.6,34.1,355.4,34.1"/>
	<rect x="352.4" y="50.1" class="st1" width="6.1" height="32.1"/>
	<path class="st1" d="M215.3,57.5c0-14.7-12-26.7-26.7-26.7c-14.7,0-26.7,12-26.7,26.7c0,14.7,12,26.7,26.7,26.7
		c6.1,0,11.9-2.1,16.6-5.8l7.5,7.5l4.3-4.3l-7.5-7.5C213.2,69.3,215.3,63.5,215.3,57.5 M188.6,78c-11.3,0-20.6-9.2-20.6-20.6
		c0-11.3,9.2-20.6,20.6-20.6c11.3,0,20.6,9.2,20.6,20.6c0,4.5-1.4,8.7-4,12.2l-6.9-6.9l-4.3,4.3l6.9,6.9
		C197.3,76.6,193.1,78,188.6,78"/>
	<path class="st1" d="M398.7,35.4c-0.9-0.9-1.9-1.3-3.2-1.3c-1.2,0-2.3,0.4-3.1,1.3c-0.9,0.9-1.3,1.9-1.3,3.1c0,1.2,0.4,2.3,1.3,3.1
		c0.9,0.9,1.9,1.3,3.1,1.3c1.2,0,2.3-0.4,3.2-1.3c0.9-0.9,1.3-1.9,1.3-3.1C400,37.4,399.6,36.3,398.7,35.4"/>
	<rect x="392.5" y="50.1" class="st1" width="6.1" height="32.1"/>
</g>
</svg>
