<svg xmlns="http://www.w3.org/2000/svg" viewBox="0 0 612 792"><path fill="#FFF" d="M306 758.1s306-176.5 306-473.3V33.9H0v250.9c0 296.8 306 473.3 306 473.3z"/><path fill="#479295" d="M571.2 74.7v210.1c0 226.4-199.9 381.5-265.2 425.3-65.3-44.8-265.2-197.8-265.2-425.3V74.7h530.4M612 33.9H0v250.9c0 296.8 306 473.3 306 473.3s306-176.5 306-473.3V33.9z"/><path fill="#E4E0C7" d="M308 557.2c-122.4 0-221.3-98.9-221.3-221.3S185.6 114.5 308 114.5s221.3 98.9 221.3 221.3S429.4 557.2 308 557.2zm-3-369.3c-80.6 0-145.9 65.3-145.9 145.9S224.4 479.6 305 479.6s145.9-65.3 145.9-145.9S385.6 187.9 305 187.9z"/><path fill="#3C5152" d="M308 129.8c114.2 0 206 92.8 206 206s-92.8 206-206 206c-114.2 0-206-91.8-206-206s91.8-206 206-206m-3 365.1c88.7 0 161.2-72.4 161.2-161.2S393.7 172.6 305 172.6 143.8 245 143.8 333.8 216.2 494.9 305 494.9m3-394.7c-130.6 0-236.6 105.1-236.6 235.6S177.5 571.4 307 571.4c130.6 0 235.6-106.1 235.6-235.6S438.6 100.2 308 100.2zm-3 364.1c-72.4 0-131.6-59.2-131.6-131.6S232.6 201.2 305 201.2s131.6 59.2 131.6 131.6S377.4 464.3 305 464.3z"/><rect x="447.8" y="290.9" fill="#3C5152" width="84.7" height="88.7"/><rect x="261.1" y="108.4" fill="#3C5152" width="88.7" height="76.5"/><rect x="261.1" y="477.6" fill="#3C5152" width="88.7" height="85.7"/><path fill="#3C5152" d="M233.6 332.8c0-49 27.5-84.7 76.5-84.7 19.4 0 36.7 6.1 47.9 17.3L342.7 292c-9.2-8.2-18.4-12.2-32.6-12.2-24.5 0-40.8 20.4-40.8 45.9v3.1c7.1-11.2 24.5-21.4 41.8-21.4 29.6 0 56.1 18.4 56.1 53 0 31.6-25.5 56.1-62.2 56.1-50 .9-71.4-37.8-71.4-83.7zm97.9 29.5c0-17.3-14.3-24.5-30.6-24.5-12.2 0-24.5 6.1-31.6 15.3 1 15.3 10.2 32.6 32.6 32.6 19.4.1 29.6-12.1 29.6-23.4z"/><g><rect x="88.7" y="290.9" fill="#3C5152" width="78.5" height="88.7"/></g></svg>