<svg xmlns="http://www.w3.org/2000/svg" viewBox="0 0 60 71"><path fill="#FFF" d="M30 71s30-17.3 30-46.4V0H0v24.6C0 53.7 30 71 30 71z"/><path fill="#3C5152" d="M56 4v20.6c0 22.2-19.6 37.3-26 41.7-6.4-4.4-26-19.5-26-41.7V4h52m4-4H0v24.6C0 53.7 30 71 30 71s30-17.3 30-46.4V0z"/><path fill="#3A5050" d="M21.9 19.9L20 24.3s-1.7 3.7 1.9 4.3l2.8.2v3.3l-5.3 16.3s-1.4 3.5 1.1 4.3c2.5.8 3.7-2.9 3.7-2.9l5.1-13.4 3.9 3.3.8 10.1s-.1 3.1 2.3 3c2.5-.1 2.1-3 2.1-3l-1-11.7-3.9-5.9v-7l2.1 3 5.1 3.3s2.1 1.1 2.9-.4c0 0 .7-1.5-.8-2.6S37.7 25 37.7 25l-1.8-6.8s.1-1.8-3-1.8H26s-2.6.1-4.1 3.5z"/><circle fill="#3A5050" cx="29.6" cy="11.7" r="4"/><ellipse fill="#3A5050" cx="28.8" cy="25.6" rx="2.7" ry="2"/><path fill="#E4E0C7" d="M28.8 28c-1.7 0-3.1-1.1-3.1-2.4 0-1.3 1.4-2.4 3.1-2.4 1.7 0 3.1 1.1 3.1 2.4 0 1.3-1.4 2.4-3.1 2.4zm0-4c-1.2 0-2.3.7-2.3 1.6 0 .8 1 1.6 2.3 1.6s2.3-.7 2.3-1.6-1-1.6-2.3-1.6z"/><g><path fill="#E4E0C7" d="M29.9 16.3L25 20.4s-4.6 3.3-4.5 5.8c0 0 0 2.1 5.1 1.6l2.3.1 3.9-11.6h-1.9z"/></g></svg>