<svg xmlns="http://www.w3.org/2000/svg" viewBox="0 0 60 71"><path fill="#FFF" d="M30 71s30-17.3 30-46.4V0H0v24.6C0 53.7 30 71 30 71z"/><path fill="#3C5152" d="M56 4v20.6C56 46.8 36.4 62 30 66.3 23.6 61.9 4 46.9 4 24.6V4h52m4-4H0v24.6C0 53.7 30 71 30 71s30-17.3 30-46.4V0z"/><path fill="#E4E0C7" d="M30.2 51.3c-12 0-21.7-9.7-21.7-21.7S18.2 7.9 30.2 7.9s21.7 9.7 21.7 21.7-9.7 21.7-21.7 21.7zm-.3-36.2c-7.9 0-14.3 6.4-14.3 14.3S22 43.7 29.9 43.7s14.3-6.4 14.3-14.3-6.4-14.3-14.3-14.3z"/><path fill="#3C5152" d="M30.2 9.4c11.2 0 20.2 9.1 20.2 20.2s-9.1 20.2-20.2 20.2C19 49.8 10 40.8 10 29.6S19 9.4 30.2 9.4m-.3 35.8c8.7 0 15.8-7.1 15.8-15.8s-7.1-15.8-15.8-15.8c-8.7 0-15.8 7.1-15.8 15.8s7.1 15.8 15.8 15.8m.3-38.7C17.4 6.5 7.1 16.8 7.1 29.6s10.4 23.1 23.1 23.1 23.1-10.4 23.1-23.1S43 6.5 30.2 6.5zm-.3 35.7c-7.1 0-12.9-5.8-12.9-12.9s5.8-12.9 12.9-12.9c7.1 0 12.9 5.8 12.9 12.9S37 42.2 29.9 42.2z"/><rect x="7.7" y="25.2" fill="#3C5152" width="7.7" height="8.7"/><rect x="43.9" y="25.2" fill="#3C5152" width="8.3" height="8.7"/><rect x="25.6" y="7.3" fill="#3C5152" width="8.7" height="7.5"/><rect x="25.6" y="43.5" fill="#3C5152" width="8.7" height="8.4"/><g><path fill="#3C5152" d="M28.4 37V25.4l-2.7 2.7-1.9-2 5-5.1h3v16h-3.4z"/></g></svg>