<svg xmlns="http://www.w3.org/2000/svg" viewBox="0 0 612 792"><path fill="#FFF" d="M306 758.1s306-176.5 306-473.3V33.9H0v250.9c0 296.8 306 473.3 306 473.3z"/><path fill="#479295" d="M571.2 74.7v210.1c0 226.4-199.9 380.5-265.2 425.3-65.3-44.8-265.2-198.8-265.2-425.3V74.7h530.4M612 33.9H0v250.9c0 296.8 306 473.3 306 473.3s306-176.5 306-473.3V33.9z"/><path fill="#3A5050" d="M223.4 236.9L204 281.8s-17.3 37.7 19.4 43.9l28.6 2v33.7l-54.1 166.3s-14.3 35.7 11.2 43.9 37.7-29.6 37.7-29.6l52-136.7 39.8 33.7 8.2 103s-1 31.6 23.5 30.6c25.5-1 21.4-30.6 21.4-30.6l-10.2-119.3-39.8-60.2v-71.4l21.4 30.6 52 33.7s21.4 11.2 29.6-4.1c0 0 7.1-15.3-8.2-26.5-15.3-11.2-52-35.7-52-35.7l-18.4-69.4s1-18.4-30.6-18.4h-70.4s-26.4.9-41.7 35.6z"/><circle fill="#3A5050" cx="301.9" cy="153.2" r="40.8"/><ellipse fill="#3A5050" cx="293.8" cy="295" rx="27.5" ry="20.4"/><path fill="#E4E0C7" d="M293.8 319.5c-17.3 0-31.6-11.2-31.6-24.5s14.3-24.5 31.6-24.5 31.6 11.2 31.6 24.5-14.3 24.5-31.6 24.5zm0-40.8c-12.2 0-23.5 7.1-23.5 16.3 0 8.2 10.2 16.3 23.5 16.3s23.5-7.1 23.5-16.3-10.3-16.3-23.5-16.3z"/><g><path fill="#E4E0C7" d="M305 200.2L255 242s-46.9 33.7-45.9 59.2c0 0 0 21.4 52 16.3l23.5 1 39.8-118.3H305z"/></g></svg>