<svg xmlns="http://www.w3.org/2000/svg" viewBox="0 0 612 792"><path fill="#FFF" d="M306 758.1s306-176.5 306-473.3V33.9H0v250.9c0 296.8 306 473.3 306 473.3z"/><path fill="#479295" d="M571.2 74.7v210.1c0 226.4-199.9 381.5-265.2 425.3-65.3-44.8-265.2-197.8-265.2-425.3V74.7h530.4M612 33.9H0v250.9c0 296.8 306 473.3 306 473.3s306-176.5 306-473.3V33.9z"/><path fill="#E4E0C7" d="M308 557.2c-122.4 0-221.3-98.9-221.3-221.3S185.6 114.5 308 114.5s221.3 98.9 221.3 221.3S430.4 557.2 308 557.2zm-3-369.3c-80.6 0-145.9 65.3-145.9 145.9S224.4 479.6 305 479.6s145.9-65.3 145.9-145.9S385.6 187.9 305 187.9z"/><path fill="#3C5152" d="M308 129.8c114.2 0 206 92.8 206 206s-92.8 206-206 206c-114.2 0-206-91.8-206-206s91.8-206 206-206m-3 365.1c88.7 0 161.2-72.4 161.2-161.2S393.7 172.6 305 172.6 143.8 245 143.8 333.8 216.2 494.9 305 494.9m3-394.7c-130.6 0-235.6 105.1-235.6 235.6S178.5 571.4 308 571.4s235.6-106.1 235.6-235.6-105-235.6-235.6-235.6zm-3 364.1c-72.4 0-131.6-59.2-131.6-131.6S232.6 201.2 305 201.2s131.6 59.2 131.6 131.6S377.4 464.3 305 464.3z"/><rect x="78.5" y="290.9" fill="#3C5152" width="78.5" height="88.7"/><rect x="447.8" y="290.9" fill="#3C5152" width="84.7" height="88.7"/><rect x="261.1" y="108.4" fill="#3C5152" width="88.7" height="76.5"/><rect x="261.1" y="477.6" fill="#3C5152" width="88.7" height="85.7"/><g><path fill="#3C5152" d="M237.7 394l18.4-23.5c11.2 12.2 28.6 18.4 44.9 18.4 19.4 0 30.6-8.2 30.6-20.4 0-13.3-10.2-18.4-32.6-18.4h-20.4v-31.6H299c18.4 0 30.6-5.1 30.6-17.3 0-13.3-13.3-19.4-30.6-19.4-16.3 0-30.6 6.1-41.8 17.3l-17.3-21.4c13.3-15.3 33.7-25.5 62.2-25.5 37.7 0 61.2 17.3 61.2 43.9 0 20.4-17.3 33.7-35.7 36.7 16.3 2 37.7 14.3 37.7 38.8 0 28.6-25.5 47.9-64.3 47.9-28.7 0-51.1-11.3-63.3-25.5z"/></g></svg>