<svg xmlns="http://www.w3.org/2000/svg" viewBox="0 0 612 792"><path fill="#FFF" d="M306 758.1s306-176.5 306-473.3V33.9H0v250.9c0 296.8 306 473.3 306 473.3z"/><path fill="#FFF" d="M306 758.1s306-176.5 306-473.3V33.9H0v250.9c0 296.8 306 473.3 306 473.3z" opacity=".15"/><path fill="#479295" d="M571.2 74.7v210.1c0 226.4-199.9 381.5-265.2 425.3-65.3-44.8-265.2-198.8-265.2-425.3V74.7h530.4M612 33.9H0v250.9c0 296.8 306 473.3 306 473.3s306-176.5 306-473.3V33.9z"/><rect x="158.1" y="206.3" fill="#F1F1F2" width="317.2" height="275.4"/><path fill="#3C5152" d="M479.4 486.8H153V201.2h326.4v285.6zm-316.2-10.2h306V211.4h-306v265.2z"/><rect x="147.9" y="195.1" fill="#E4E0C7" width="317.2" height="275.4"/><path fill="#3C5152" d="M469.2 475.6H142.8V190h326.4v285.6zM153 465.4h306V200.2H153v265.2z"/><rect x="147.9" y="195.1" fill="#3C5152" width="317.2" height="60.2"/><path fill="#3C5152" d="M226.4 208.3c0 9.2-7.1 17.3-17.3 17.3-9.2 0-17.3-7.1-17.3-17.3v-57.1c0-9.2 7.1-17.3 17.3-17.3 9.2 0 17.3 7.1 17.3 17.3v57.1zM420.2 208.3c0 9.2-7.1 17.3-17.3 17.3-9.2 0-17.3-7.1-17.3-17.3v-57.1c0-9.2 7.1-17.3 17.3-17.3 9.2 0 17.3 7.1 17.3 17.3v57.1z"/><g><rect x="236.6" y="341.9" fill="#3C5152" width="138.7" height="40.8"/></g><g><rect x="285.6" y="294" fill="#3C5152" width="40.8" height="137.7"/></g></svg>