<svg xmlns="http://www.w3.org/2000/svg" viewBox="0 0 60 71"><path fill="#FFF" d="M30 71s30-17.3 30-46.4V0H0v24.6C0 53.7 30 71 30 71z"/><circle fill="#3C5152" cx="20.9" cy="30.3" r="3.4"/><path fill="#3C5152" d="M24.4 50.3c0 1.9-1.5 3.4-3.4 3.4s-3.4-1.5-3.4-3.4V37.8c0-1.9 1.5-3.4 3.4-3.4s3.4 1.5 3.4 3.4v12.5z"/><circle fill="#3C5152" cx="40" cy="34.7" r="2.8"/><circle fill="#3C5152" cx="30.9" cy="41" r="2.5"/><path fill="#3C5152" d="M33.4 51.3c0 1.4-1.1 2.5-2.5 2.5s-2.5-1.1-2.5-2.5v-4.8c0-1.4 1.1-2.5 2.5-2.5s2.5 1.1 2.5 2.5v4.8zM42.8 50.9c0 1.5-1.3 2.8-2.8 2.8-1.5 0-2.8-1.3-2.8-2.8V41c0-1.5 1.3-2.8 2.8-2.8 1.5 0 2.8 1.3 2.8 2.8v9.9z"/><g fill="#3C5152"><path d="M11.7 23.8s3.2-1.6 6.4-1.6 6.4 1.6 6.4 1.6 3.2-1.6 6.4-1.6 6.4 1.6 6.4 1.6 3.2-1.6 6.4-1.6 6.4 1.6 6.4 1.6V23c0-6.2-8.6-15.5-19.1-15.5S11.7 16.8 11.7 23v.8z"/><path d="M49.9 24.3c-.1 0-.2 0-.2-.1 0 0-3.1-1.6-6.1-1.6-3 0-6.1 1.5-6.1 1.5-.1.1-.3.1-.5 0 0 0-3.1-1.6-6.1-1.6-3 0-6.1 1.5-6.1 1.5-.1.1-.3.1-.5 0 0 0-3.1-1.6-6.1-1.6-3 0-6.1 1.5-6.1 1.5-.2.1-.3.1-.5 0-.1-.1-.2-.3-.2-.4V23c0-3.3 2.2-7.3 5.8-10.5C21 8.9 25.9 7 30.8 7s9.9 2 13.9 5.6c3.6 3.2 5.8 7.2 5.8 10.5v.8c0 .2-.1.3-.2.4h-.4zm-19.1-2.6c2.8 0 5.6 1.2 6.4 1.6.8-.4 3.6-1.5 6.4-1.5 2.4 0 4.8.9 5.9 1.3V23c0-5.9-8.3-15-18.6-15s-18.6 9.1-18.6 15c1.1-.5 3.5-1.3 5.9-1.3 2.8 0 5.6 1.2 6.4 1.6.7-.4 3.4-1.6 6.2-1.6z"/></g><path fill="#3C5152" d="M30.9 34.6c-.6 0-1-.4-1-1V13c0-.6.4-1 1-1s1 .4 1 1v20.6c0 .6-.5 1-1 1z"/><path fill="#3C5152" d="M56 4v20.6C56 46.8 36.4 62 30 66.3 23.6 61.9 4 46.9 4 24.6V4h52m4-4H0v24.6C0 53.7 30 71 30 71s30-17.3 30-46.4V0z"/></svg>