<svg xmlns="http://www.w3.org/2000/svg" viewBox="0 0 612 792"><path fill="#FFF" d="M306 758.1s306-176.5 306-473.3V33.9H0v250.9c0 296.8 306 473.3 306 473.3z"/><circle fill="#3C5152" cx="213.2" cy="343" r="34.7"/><path fill="#3C5152" d="M248.9 547c0 19.4-15.3 34.7-34.7 34.7-19.4 0-34.7-15.3-34.7-34.7V419.5c0-19.4 15.3-34.7 34.7-34.7 19.4 0 34.7 15.3 34.7 34.7V547z"/><circle fill="#3C5152" cx="408" cy="387.8" r="28.6"/><circle fill="#3C5152" cx="315.2" cy="452.1" r="25.5"/><path fill="#3C5152" d="M340.7 557.2c0 14.3-11.2 25.5-25.5 25.5s-25.5-11.2-25.5-25.5v-49c0-14.3 11.2-25.5 25.5-25.5s25.5 11.2 25.5 25.5v49zM436.6 553.1c0 15.3-13.3 28.6-28.6 28.6s-28.6-13.3-28.6-28.6v-101c0-15.3 13.3-28.6 28.6-28.6s28.6 13.3 28.6 28.6v101z"/><g fill="#3C5152"><path d="M119.3 276.7s32.6-16.3 65.3-16.3 65.3 16.3 65.3 16.3 32.6-16.3 65.3-16.3 65.3 16.3 65.3 16.3 32.6-16.3 65.3-16.3 65.3 16.3 65.3 16.3v-8.2c0-63.2-87.7-158.1-194.8-158.1s-196.9 94.9-196.9 158.1v8.2h-.1z"/><path d="M509 281.8c-1 0-2 0-2-1 0 0-31.6-16.3-62.2-16.3s-62.2 15.3-62.2 15.3c-1 1-3.1 1-5.1 0 0 0-31.6-16.3-62.2-16.3S253 278.7 253 278.7c-1 1-3.1 1-5.1 0 0 0-31.6-16.3-62.2-16.3s-62.2 15.3-62.2 15.3c-2 1-3.1 1-5.1 0-1-1-2-3.1-2-4.1v-5.1c0-33.7 22.4-74.5 59.2-107.1 38.8-36.7 88.7-56.1 138.7-56.1s101 20.4 141.8 57.1c36.7 32.6 59.2 73.4 59.2 107.1v8.2c0 2-1 3.1-2 4.1H509zm-194.8-26.6c28.6 0 57.1 12.2 65.3 16.3 8.2-4.1 36.7-15.3 65.3-15.3 24.5 0 49 9.2 60.2 13.3v-1c0-60.2-84.7-153-189.7-153s-189.7 92.8-189.7 153c11.2-5.1 35.7-13.3 60.2-13.3 28.6 0 57.1 12.2 65.3 16.3 7-4 34.5-16.3 63.1-16.3z"/></g><path fill="#3C5152" d="M315.2 386.8c-6.1 0-10.2-4.1-10.2-10.2V166.5c0-6.1 4.1-10.2 10.2-10.2s10.2 4.1 10.2 10.2v210.1c0 6.1-5.1 10.2-10.2 10.2z"/><path fill="#479295" d="M571.2 74.7v210.1c0 226.4-199.9 381.5-265.2 425.3-65.3-44.8-265.2-197.8-265.2-425.3V74.7h530.4M612 33.9H0v250.9c0 296.8 306 473.3 306 473.3s306-176.5 306-473.3V33.9z"/></svg>